<?xml version="1.0" encoding="UTF-8" standalone="no"?>
<svg
   xmlns:dc="http://purl.org/dc/elements/1.1/"
   xmlns:cc="http://creativecommons.org/ns#"
   xmlns:rdf="http://www.w3.org/1999/02/22-rdf-syntax-ns#"
   xmlns:svg="http://www.w3.org/2000/svg"
   xmlns="http://www.w3.org/2000/svg"
   xmlns:sodipodi="http://sodipodi.sourceforge.net/DTD/sodipodi-0.dtd"
   xmlns:inkscape="http://www.inkscape.org/namespaces/inkscape"
   width="210mm"
   height="297mm"
   viewBox="0 0 210 297"
   version="1.1"
   id="svg8"
   inkscape:version="1.0.2 (e86c8708, 2021-01-15)"
   sodipodi:docname="17.svg">
  <defs
     id="defs2" />
  <sodipodi:namedview
     id="base"
     pagecolor="#ffffff"
     bordercolor="#666666"
     borderopacity="1.0"
     inkscape:pageopacity="0.0"
     inkscape:pageshadow="2"
     inkscape:zoom="0.62"
     inkscape:cx="400"
     inkscape:cy="714.22814"
     inkscape:document-units="mm"
     inkscape:current-layer="layer1"
     inkscape:document-rotation="0"
     showgrid="false"
     inkscape:window-width="1252"
     inkscape:window-height="938"
     inkscape:window-x="636"
     inkscape:window-y="25"
     inkscape:window-maximized="0" />
  <metadata
     id="metadata5">
    <rdf:RDF>
      <cc:Work
         rdf:about="">
        <dc:format>image/svg+xml</dc:format>
        <dc:type
           rdf:resource="http://purl.org/dc/dcmitype/StillImage" />
        <dc:title></dc:title>
      </cc:Work>
    </rdf:RDF>
  </metadata>
  <g
     inkscape:label="Layer 1"
     inkscape:groupmode="layer"
     id="layer1">
    <path
       style="fill:#000000;stroke-width:0.264583"
       d="m 105.14777,223.255 c 0.16627,-0.80535 2.5774,-18.21059 5.4507,-39.3472 1.17194,-8.62102 1.98871,-13.82484 2.18996,-13.95272 0.50122,-0.31852 0.71782,-0.24989 0.71782,0.22745 0,0.24173 -1.25371,8.77042 -2.78604,18.95264 -2.71604,18.04797 -5.15146,34.46207 -5.15146,34.71948 0,0.0704 -0.12852,0.12795 -0.2856,0.12795 -0.1716,0 -0.22564,-0.29044 -0.13538,-0.7276 z m -7.781102,0.28872 c 0,-0.11303 1.727528,-7.41264 3.838952,-16.22134 2.11142,-8.8087 4.94056,-20.65926 6.28696,-26.33457 2.31828,-9.77189 2.48071,-10.3234 3.06492,-10.40653 0.49473,-0.0704 0.58645,0.008 0.46316,0.39687 -0.27221,0.85818 -12.851167,50.72428 -13.020955,51.61831 -0.144322,0.75995 -0.633037,1.49125 -0.633037,0.94726 z m 15.645482,-1.28091 c -0.0189,-0.87313 0.31737,-10.69578 0.74738,-21.82813 0.43001,-11.13234 0.86412,-22.70871 0.9647,-25.72526 0.16995,-5.09744 0.21887,-5.49607 0.69301,-5.64655 0.28058,-0.0891 0.54204,-0.12128 0.58104,-0.0716 0.039,0.0497 -0.14024,4.0789 -0.39828,8.95385 -0.25804,4.87495 -0.83985,16.6026 -1.29291,26.06146 -0.45307,9.45885 -0.92202,17.79323 -1.04212,18.52083 l -0.21836,1.32292 z m -23.318399,0.23826 c 0,-0.14544 3.143152,-9.36683 6.984786,-20.49197 3.841633,-11.12515 7.800463,-22.59814 8.797393,-25.49555 1.65417,-4.80751 2.35356,-6.18549 2.87485,-5.6642 0.0889,0.0889 -3.34505,9.90732 -7.63094,21.81877 -4.285887,11.91146 -8.417935,23.44313 -9.182327,25.62594 -1.265536,3.61389 -1.843762,4.93326 -1.843762,4.20701 z m 30.896969,-0.63514 c -0.0956,-0.50932 -0.60686,-8.48651 -1.13616,-17.72708 -0.5293,-9.24057 -1.23394,-21.08729 -1.56587,-26.32604 -0.54496,-8.6011 -0.56359,-9.55718 -0.19209,-9.85672 0.22628,-0.18245 0.48872,-0.24198 0.58321,-0.13229 0.0945,0.10968 0.43422,6.09302 0.75497,13.2963 0.32075,7.20328 0.88026,19.10953 1.24334,26.45833 0.36309,7.34881 0.62106,13.77818 0.57328,14.2875 l -0.0869,0.92605 z M 83.228977,217.986 c 1.550731,-3.33006 12.971304,-28.1918 17.785633,-38.71798 3.01526,-6.59266 3.79407,-8.08527 4.25479,-8.15434 0.31016,-0.0465 0.56394,-0.0144 0.56394,0.0713 0,0.0857 -3.41087,7.32706 -7.579701,16.09184 -4.168834,8.76478 -9.405713,19.80488 -11.637513,24.53354 -2.231798,4.72867 -4.179581,8.63817 -4.328409,8.68778 -0.148826,0.0496 0.274743,-1.08087 0.94126,-2.51216 z m 44.829363,2.37886 c 0,-0.28102 -3.18273,-20.41403 -5.95069,-37.64236 -2.24373,-13.96535 -2.48251,-15.77218 -2.13086,-16.12383 0.21782,-0.21782 0.4493,-0.34276 0.51441,-0.27765 0.0651,0.0651 0.84702,5.11818 1.73757,11.22905 2.95004,20.24278 6.09761,41.52706 6.2503,42.26534 0.0904,0.43733 0.0365,0.72761 -0.13513,0.72761 -0.15708,0 -0.2856,-0.0802 -0.2856,-0.17816 z M 74.877084,217.8022 c 0,-0.11045 1.175142,-2.18809 2.611427,-4.61698 3.149039,-5.32531 22.623919,-38.71403 23.834179,-40.86252 0.8002,-1.42054 1.36839,-1.84594 1.71547,-1.28436 0.13121,0.2123 -27.25609,46.05969 -27.896927,46.70053 -0.145282,0.14528 -0.264149,0.17378 -0.264149,0.0633 z m 60.464476,-0.23574 c -0.0597,-0.18191 -1.19796,-4.55745 -2.52952,-9.72344 -1.33156,-5.16599 -4.37817,-16.82632 -6.77024,-25.91184 -3.87364,-14.71279 -4.30565,-16.5627 -3.95077,-16.91758 0.21915,-0.21915 0.44312,-0.34602 0.4977,-0.28192 0.25469,0.29907 13.24953,53.16789 13.06808,53.16677 -0.11371,-7.9e-4 -0.25557,-0.15009 -0.31525,-0.33199 z m -67.608226,-2.94932 c 0,-0.0578 3.18747,-4.49285 7.083266,-9.85572 3.895797,-5.36288 11.059608,-15.25733 15.91958,-21.98767 7.520374,-10.4146 8.933006,-12.23698 9.48559,-12.23698 0.48139,0 0.5822,0.0855 0.38985,0.33073 -0.28585,0.36442 -23.575253,31.6812 -29.120941,39.15833 -3.091421,4.1681 -3.757345,4.98183 -3.757345,4.59131 z m 74.796466,-0.0759 c -0.0735,-0.1189 -2.45998,-6.52643 -5.30331,-14.23896 -2.84334,-7.71252 -7.06425,-19.10974 -9.37981,-25.32715 -3.91738,-10.51841 -4.17894,-11.3326 -3.76191,-11.71 0.4159,-0.37639 0.6248,0.095 2.89943,6.54189 1.34818,3.82112 5.47991,15.44576 9.18164,25.83254 5.79366,16.25662 7.06747,20.04 6.36396,18.90168 z m -81.401186,-3.86493 c -0.0054,-0.1152 5.022509,-5.88973 11.173185,-12.83229 6.150679,-6.94256 14.257835,-16.10542 18.015903,-20.3619 3.75807,-4.25648 6.911245,-7.73724 7.007056,-7.73501 1.228701,0.0286 1.463818,-0.23921 -34.277915,39.04134 -1.049602,1.15352 -1.912805,2.00306 -1.918229,1.88786 z m 86.840466,-2.56867 c -1.35358,-2.85036 -12.16199,-25.09101 -18.82959,-38.74597 -3.25382,-6.66371 -3.68962,-7.70687 -3.35817,-8.03832 0.47132,-0.47132 0.002,-1.38549 7.51414,14.63742 3.2066,6.83947 8.16294,17.37387 11.01411,23.40976 2.85116,6.03588 5.13777,11.09604 5.08136,11.24479 -0.0564,0.14874 -0.69625,-0.97971 -1.42185,-2.50768 z m -93.20033,-2.07066 c 0,-0.14495 0.386953,-0.5871 0.859896,-0.98254 0.472943,-0.39545 9.405657,-8.65111 19.850476,-18.34592 10.444816,-9.69481 19.185989,-17.62692 19.424825,-17.62692 0.238837,0 0.464696,0.11906 0.50191,0.26458 0.03721,0.14552 -4.172085,4.07459 -9.353995,8.73125 -5.181912,4.65667 -13.825784,12.45526 -19.208608,17.33021 -12.368358,11.2014 -12.074504,10.94271 -12.074504,10.62934 z m 98.70329,-3.28952 c -1.08387,-1.78133 -7.48997,-12.21725 -14.23578,-23.19095 -10.72877,-17.45294 -12.21693,-20.00034 -11.88048,-20.33679 0.33646,-0.33645 1.17133,0.93652 6.66507,10.16258 3.45424,5.80097 9.73488,16.32175 13.95697,23.37951 8.93916,14.94293 7.94455,13.22973 7.67895,13.2268 -0.11773,-0.001 -1.10086,-1.45982 -2.18473,-3.24115 z M 49.078139,200.70261 c 0.0888,-0.14368 4.233249,-3.33965 9.209887,-7.10215 4.976638,-3.7625 14.685161,-11.13791 21.574496,-16.38981 11.399978,-8.69045 13.270812,-9.96277 13.270812,-9.02524 0,0.13082 -1.339453,1.22722 -2.976562,2.43643 -1.63711,1.20922 -8.036719,5.93477 -14.221355,10.50122 -6.184635,4.56646 -14.731773,10.89873 -18.993636,14.07172 -4.261864,3.17299 -7.811,5.76907 -7.88697,5.76907 -0.07597,0 -0.06547,-0.11756 0.02334,-0.26124 z M 157.3673,195.62475 c -13.4027,-17.66479 -28.61168,-37.69647 -28.8073,-37.94198 -0.13292,-0.16683 -0.092,-0.47241 0.0981,-0.7323 0.28308,-0.38699 1.77751,1.52381 11.29464,14.4415 6.03261,8.18813 13.39144,18.14508 16.35294,22.12657 2.96151,3.98149 5.32974,7.29389 5.26273,7.3609 -0.067,0.067 -1.95752,-2.2976 -4.20114,-5.25469 z M 43.922928,194.9602 c 0.0011,-0.11773 3.483732,-2.34727 7.739063,-4.95454 4.255331,-2.60726 14.681391,-9.02335 23.169018,-14.25798 13.671495,-8.43169 15.47703,-9.47252 15.826291,-9.12326 0.349261,0.34926 -0.535937,0.94818 -7.759134,5.24975 -6.252369,3.72342 -37.714887,22.52918 -38.778896,23.17891 -0.10914,0.0666 -0.197495,0.0248 -0.196342,-0.0929 z m 117.605202,-5.30485 c -4.97486,-5.41633 -23.0788,-24.95981 -28.92859,-31.22885 -2.55751,-2.7408 -2.99276,-3.32907 -2.79321,-3.7752 0.20565,-0.45978 1.37153,0.73428 8.96763,9.18443 11.144,12.39693 26.42459,29.33154 27.47357,30.44739 0.4446,0.47294 0.69571,0.85664 0.55802,0.85266 -0.13768,-0.004 -2.51252,-2.47018 -5.27742,-5.48043 z M 39.303854,188.55993 c 0.138244,-0.1282 3.704166,-1.89924 7.924271,-3.93564 4.220104,-2.0364 15.153003,-7.35603 24.295333,-11.82141 13.614985,-6.64994 16.692664,-8.06055 17.010693,-7.79661 0.213553,0.17723 0.293934,0.41054 0.178626,0.51848 -0.115308,0.10793 -7.174807,3.47035 -15.687776,7.47203 -8.512969,4.00169 -19.522923,9.1929 -24.466564,11.53602 -8.354831,3.95991 -9.913494,4.63816 -9.254583,4.02713 z M 163.7167,182.1984 c -4.03504,-3.60772 -13.15836,-11.70977 -20.27405,-18.00454 -10.14093,-8.97102 -12.90941,-11.55286 -12.80718,-11.94378 0.0717,-0.2743 0.1788,-0.49873 0.23794,-0.49873 0.0591,0 4.18268,3.72436 9.16342,8.27636 4.98073,4.55199 13.75885,12.54429 19.50692,17.76066 11.83118,10.73678 12.12513,11.0112 11.76888,10.98709 -0.14273,-0.01 -3.56089,-2.96933 -7.59593,-6.57706 z M 35.321874,181.97227 c 0.145521,-0.15299 8.956146,-3.49793 19.579168,-7.43321 10.623021,-3.93528 21.99349,-8.15868 25.267709,-9.38533 5.670939,-2.12455 6.614583,-2.33799 6.614583,-1.49611 0,0.10989 -1.69664,0.8051 -3.770312,1.54492 -2.073672,0.73981 -13.473907,4.81411 -25.333855,9.05399 -23.063569,8.24514 -22.761806,8.141 -22.357293,7.71574 z m 134.276046,-3.84236 c -2.98318,-2.2001 -12.80583,-9.34447 -21.82812,-15.87638 -13.35869,-9.67135 -16.42022,-11.99949 -16.49061,-12.54027 -0.0644,-0.49483 0.003,-0.60986 0.26458,-0.45138 0.19307,0.11697 7.55431,5.58467 16.35832,12.15043 8.80401,6.56577 18.5969,13.86212 21.76198,16.21411 3.16508,2.35198 5.75468,4.33836 5.75468,4.41417 0,0.33583 -0.70607,-0.13855 -5.82083,-3.91068 z M 31.85029,174.9829 c -0.06706,-0.10851 0.210359,-0.27784 0.616492,-0.3763 1.540158,-0.37336 30.052162,-7.84588 40.782498,-10.68841 10.402369,-2.75564 11.235674,-2.93695 11.640101,-2.53252 0.404426,0.40443 0.388371,0.44806 -0.22428,0.60945 -9.242356,2.43476 -52.727922,13.12838 -52.814811,12.98778 z m 142.78579,-2.11052 c -1.95845,-1.17587 -12.31688,-7.25 -23.01875,-13.49807 -10.70188,-6.24806 -19.63144,-11.53044 -19.84349,-11.73861 -0.28457,-0.27937 -0.30793,-0.45609 -0.0892,-0.67483 0.21873,-0.21874 5.51634,2.85199 20.22928,11.72583 10.96312,6.6122 21.39533,12.89406 23.18269,13.95969 2.99998,1.7886 3.86302,2.40733 3.3143,2.37612 -0.11773,-0.007 -1.81641,-0.97426 -3.77485,-2.15013 z M 29.368749,167.64737 c 0,-0.15708 0.09118,-0.2856 0.202623,-0.2856 0.288711,0 19.028009,-2.98203 37.516685,-5.97011 14.384116,-2.32473 15.822394,-2.51409 16.203185,-2.13329 0.229838,0.22983 0.365442,0.4635 0.301344,0.51926 -0.0641,0.0558 -3.152637,0.54269 -6.863419,1.08207 -14.688765,2.13508 -45.946738,6.77255 -46.632814,6.9185 -0.439975,0.0936 -0.727604,0.0419 -0.727604,-0.13083 z m 135.058691,-7.51938 c -9.17392,-4.24335 -20.27649,-9.36709 -24.67239,-11.3861 -7.04776,-3.23698 -7.99255,-3.74176 -7.99255,-4.27026 0,-0.54645 1.17338,-0.039 13.29532,5.75025 7.31242,3.49227 18.415,8.77749 24.67239,11.74492 6.2574,2.96743 11.41677,5.51431 11.46528,5.65973 0.0485,0.14542 0.0485,0.25366 0,0.24052 -0.0485,-0.0131 -7.59413,-3.49571 -16.76805,-7.73906 z M 27.781249,159.95903 c 0.363802,-0.11947 3.340365,-0.35627 6.614584,-0.52624 3.274218,-0.16996 15.24,-0.89 26.590625,-1.60008 19.338487,-1.20979 20.659237,-1.26278 20.982833,-0.84194 0.31066,0.40403 0.217688,0.46835 -0.926042,0.64064 -0.699254,0.10533 -6.80778,0.43982 -13.574499,0.7433 -6.766719,0.30348 -18.077656,0.84209 -25.135417,1.19691 -13.831986,0.69539 -15.636228,0.74342 -14.552084,0.38741 z m 149.357301,-1.73022 c -3.05594,-1.07858 -14.48164,-5.04482 -25.39045,-8.81388 -11.73861,-4.05576 -19.94227,-7.02417 -20.09897,-7.2726 -0.14563,-0.23087 -0.18291,-0.50164 -0.0828,-0.60172 0.10008,-0.10007 8.78743,2.92424 19.30523,6.7207 10.5178,3.79645 22.04031,7.93836 25.60557,9.20424 6.04761,2.14725 7.55723,2.77347 6.60135,2.73838 -0.211,-0.008 -2.88396,-0.89655 -5.93989,-1.97512 z m -104.378133,-3.3112 c -1.81901,-0.10558 -12.475104,-0.62845 -23.680209,-1.16194 -11.205104,-0.53348 -20.96823,-1.06799 -21.695834,-1.1878 l -1.322917,-0.21783 1.719792,-0.0343 c 0.945886,-0.0188 7.79198,0.19904 15.213542,0.48421 7.421563,0.28516 18.911095,0.71404 25.532293,0.95306 11.647609,0.42048 12.416208,0.49711 12.431366,1.23946 0.0047,0.23076 -3.480893,0.19892 -8.198033,-0.0749 z m -7.540625,-4.23247 c -7.421563,-1.13251 -19.262633,-2.90799 -26.313488,-3.94552 -7.050855,-1.03753 -12.874996,-1.94168 -12.942534,-2.00922 -0.353812,-0.35381 0.638776,-0.26836 6.580463,0.56654 3.564994,0.50094 15.637434,2.14976 26.827643,3.66405 19.618913,2.65488 20.77665,2.85812 20.792824,3.65026 0.0068,0.33218 -0.974958,0.20565 -14.944908,-1.92611 z m 117.475008,1.57385 c -0.69665,-0.2112 -28.6699,-6.94548 -45.37605,-10.92384 -5.48982,-1.30733 -5.96008,-1.46454 -6.04251,-2.01996 -0.0767,-0.51709 -0.002,-0.57834 0.52917,-0.43293 1.60801,0.44028 50.73122,12.84211 51.48166,12.99725 0.93616,0.19353 1.45023,0.67944 0.68011,0.64285 -0.26325,-0.0125 -0.83582,-0.13103 -1.27238,-0.26337 z M 52.866703,143.68955 c -23.01927,-5.78999 -27.662732,-7.01945 -26.511345,-7.01945 0.137391,0 5.187626,1.18413 11.222743,2.63141 6.035117,1.44727 17.815791,4.24795 26.179275,6.22373 8.363485,1.97578 15.310041,3.69603 15.436793,3.82278 0.126751,0.12675 0.189526,0.39817 0.139499,0.60315 -0.07095,0.29071 -5.892896,-1.08666 -26.466965,-6.26162 z m 18.570797,1.41543 c -4.001823,-1.45364 -15.431823,-5.55671 -25.4,-9.11793 -21.017411,-7.50865 -18.990859,-6.75904 -18.637111,-6.89372 0.154329,-0.0588 6.107454,1.90476 13.229167,4.36337 7.121713,2.4586 18.604038,6.40823 25.516278,8.77696 6.912239,2.36872 12.655182,4.43743 12.762095,4.59712 0.254259,0.3798 0.25676,0.95656 0.004,0.9345 -0.10914,-0.01 -3.472656,-1.20666 -7.474479,-2.6603 z m 3.175001,-1.86945 c -4.104207,-1.98549 -36.296819,-17.25132 -41.801459,-19.82237 -1.817518,-0.84891 -3.345138,-1.66514 -3.394708,-1.81385 -0.04957,-0.14871 0.961242,0.21575 2.24625,0.80991 2.124633,0.98239 29.798264,13.66391 42.023875,19.25755 4.120721,1.88538 5.042326,2.40554 5.111631,2.88503 0.0465,0.32173 -0.01302,0.57478 -0.132292,0.56233 -0.119261,-0.0125 -1.943245,-0.85783 -4.053297,-1.8786 z m 106.097919,1.07257 c -3.05573,-0.46651 -32.25908,-4.52109 -44.64312,-6.19822 -4.69616,-0.63599 -5.37233,-0.78738 -5.51426,-1.23456 -0.089,-0.28032 -0.12113,-0.54442 -0.0715,-0.58687 0.0497,-0.0425 3.06687,0.38216 6.70489,0.94357 8.511,1.31341 47.08985,7.111 47.31864,7.111 0.0957,0 0.17407,0.11906 0.17407,0.26458 0,0.31772 0.14662,0.32879 -3.96875,-0.2995 z M 56.207514,128.97046 c -12.360227,-7.41964 -22.875097,-13.728 -23.366381,-14.01856 -0.491284,-0.29057 -0.834226,-0.58732 -0.762095,-0.65945 0.07213,-0.0721 8.98706,5.03133 19.810953,11.34102 10.82389,6.3097 21.376442,12.4547 23.450114,13.65556 3.411813,1.97579 4.193931,2.64428 3.555431,3.03889 -0.118187,0.073 -10.327796,-5.93781 -22.688022,-13.35746 z m 6.853685,-0.96989 c -8.754311,-6.50962 -18.618663,-13.83789 -21.920785,-16.28503 -3.302125,-2.44715 -5.939679,-4.51354 -5.861235,-4.59198 0.07844,-0.0784 0.834514,0.38514 1.680159,1.03018 1.304245,0.99486 11.90071,8.65553 37.256288,26.93427 3.457469,2.49248 5.053481,3.8009 5.111631,4.19055 0.0465,0.3116 -0.01302,0.56455 -0.132292,0.56212 -0.119261,-0.002 -7.379457,-5.33049 -16.133766,-11.84011 z m 6.65651,0.29376 C 64.187917,123.26617 55.050523,114.977 49.412387,109.87395 43.774251,104.7709 39.21122,100.54568 39.272315,100.48459 c 0.0611,-0.0611 6.221929,5.28952 13.690738,11.89026 7.46881,6.60075 16.580854,14.65149 20.248984,17.89054 3.668131,3.23905 6.719091,5.97541 6.779914,6.0808 0.06082,0.10539 0.03619,0.39381 -0.05474,0.64093 -0.128961,0.35047 -2.377104,-1.56182 -10.219497,-8.69279 z m 106.759381,8.44049 c -1.09141,-0.0514 -11.95488,-0.47885 -24.14105,-0.94999 -21.27702,-0.82261 -23.30526,-0.96912 -22.6391,-1.63528 0.0815,-0.0815 7.57447,0.21607 16.65111,0.66119 9.07665,0.44512 21.29942,1.02989 27.16173,1.29949 5.8623,0.2696 10.73394,0.56539 10.82586,0.65731 0.16533,0.16533 -4.01978,0.14791 -7.85855,-0.0327 z M 70.733291,124.03797 c -9.56087,-10.57974 -24.77279,-27.3769 -26.38963,-29.139708 -0.450837,-0.491537 -0.680614,-0.848725 -0.510614,-0.79375 0.169997,0.05498 2.67031,2.655504 5.55625,5.778953 2.885938,3.123455 11.170521,12.036795 18.410183,19.807435 7.239661,7.77064 13.163021,14.28658 13.163021,14.47987 0,0.19329 -0.108945,0.41877 -0.242102,0.50106 -0.133157,0.0823 -4.627354,-4.70294 -9.987108,-10.63386 z m 1.467284,-4.23506 c -5.137386,-6.94862 -12.477486,-16.84406 -16.311333,-21.989863 -3.83385,-5.145804 -6.916838,-9.409803 -6.851087,-9.475552 0.132019,-0.132019 1.480812,1.585619 7.723619,9.835724 2.312408,3.055941 8.998358,11.834501 14.857665,19.507921 9.866408,12.92116 11.126211,14.75563 10.133311,14.75563 -0.11631,0 -4.414787,-5.68524 -9.552175,-12.63386 z m 56.386925,12.23698 c 0,-0.21828 0.14883,-0.3975 0.33073,-0.39827 0.1819,-7.9e-4 10.92729,-0.53499 23.87865,-1.18716 28.11217,-1.4156 30.95584,-1.53182 29.89792,-1.22188 -0.43657,0.12789 -3.47266,0.37193 -6.74688,0.54231 -3.27422,0.17037 -14.76375,0.83808 -25.53229,1.48379 -22.40547,1.3435 -21.82813,1.32284 -21.82813,0.78121 z M 69.449162,107.79453 C 62.029779,95.411498 55.679396,84.817404 55.337197,84.252096 54.994998,83.686787 54.816404,83.22465 54.940322,83.225123 c 0.123917,5.29e-4 1.407382,1.935239 2.852145,4.299479 1.444762,2.36424 7.446774,12.097213 13.337802,21.628828 13.937584,22.55085 12.635064,20.32931 12.183917,20.78046 -0.323929,0.32393 -2.219806,-2.70336 -13.865024,-22.13936 z m 57.834238,22.15136 c -0.27551,-0.33197 -0.22779,-0.42097 0.28857,-0.53821 0.34026,-0.0773 8.71491,-1.3409 18.61033,-2.80808 9.89541,-1.46719 21.80148,-3.24461 26.45791,-3.94984 7.64034,-1.15714 8.93911,-1.3018 8.57733,-0.95533 -0.0606,0.0581 -4.39649,0.78004 -9.63524,1.60439 -17.93815,2.82268 -42.59763,6.75321 -43.28337,6.89904 -0.43613,0.0927 -0.8055,0.001 -1.01553,-0.25197 z M 83.808007,126.83996 C 82.751828,124.56336 67.817349,92.977718 64.316039,85.615459 62.553882,81.910147 61.158887,78.75499 61.216051,78.604001 c 0.05716,-0.150993 0.699063,0.975624 1.426448,2.503593 1.446154,3.037848 11.473426,23.567566 18.32287,37.514026 3.920255,7.98221 4.286517,8.8454 3.912066,9.21986 -0.374452,0.37445 -0.474576,0.28068 -1.069428,-1.00152 z m 41.886873,0.98804 c -0.26912,-0.32427 -0.15667,-0.4301 0.69025,-0.64954 0.55646,-0.14419 12.43334,-3.13389 26.39307,-6.64377 13.95973,-3.50989 25.47903,-6.442 25.59844,-6.5158 0.11941,-0.0738 0.21711,-0.0173 0.21711,0.12549 0,0.33642 -0.51021,0.48957 -8.06979,2.42229 -6.46997,1.65415 -43.30711,11.27881 -44.08192,11.51755 -0.23411,0.0721 -0.57034,-0.0432 -0.74716,-0.25622 z M 82.962534,117.28937 c -1.725824,-4.83857 -5.811256,-16.2388 -9.078738,-25.333859 -6.36619,-17.720326 -6.37159,-17.736077 -5.943161,-17.330209 0.153612,0.145521 2.306923,5.741459 4.78514,12.435417 2.478218,6.693959 6.707672,18.060481 9.398786,25.258931 4.727576,12.64576 5.065811,13.76712 4.152615,13.76712 -0.09723,0 -1.588818,-3.95883 -3.314642,-8.7974 z m 40.983886,8.51521 c -0.0959,-0.1552 -0.13272,-0.31489 -0.0818,-0.35486 0.051,-0.04 4.2003,-1.5342 9.22077,-3.32051 5.02047,-1.78631 16.39094,-5.86601 25.26771,-9.06601 17.24243,-6.21574 17.34268,-6.2502 16.93333,-5.82102 -0.14552,0.15258 -5.02055,2.02257 -10.83341,4.15555 -5.81286,2.13297 -17.14274,6.31059 -25.17753,9.28359 -8.03478,2.97299 -14.73155,5.40545 -14.8817,5.40545 -0.15015,0 -0.35148,-0.12699 -0.4474,-0.28219 z M 87.985077,124.19833 C 87.50856,122.85023 74.776667,71.318011 74.92011,71.318011 c 0.238186,0 0.560245,1.043778 1.551107,5.027083 0.945785,3.802089 12.123608,46.805116 12.288227,47.274936 0.06001,0.17126 -0.061,0.45256 -0.268915,0.62511 -0.295113,0.24492 -0.405963,0.23466 -0.505452,-0.0468 z m 34.010543,-0.0686 c -0.2133,-0.25701 1.88625,-1.35466 9.17693,-4.79772 5.19942,-2.45546 16.29504,-7.71468 24.65691,-11.68716 8.36189,-3.97248 15.32109,-7.22269 15.4649,-7.22269 0.59748,0 -0.51178,0.59444 -6.06206,3.24857 -3.20146,1.53093 -12.84553,6.20293 -21.43125,10.38224 -22.03153,10.72435 -21.47964,10.46931 -21.80543,10.07676 z m -31.888479,-1.51892 c -0.06712,-0.19828 -0.966859,-6.13505 -1.999416,-13.19281 -2.571279,-17.575267 -5.791063,-39.135549 -5.976269,-40.018239 -0.08397,-0.400182 -0.04048,-0.727604 0.09664,-0.727604 0.137117,0 0.38428,0.863203 0.549251,1.918229 3.199458,20.461251 8.005392,50.975244 8.08278,51.319444 0.130305,0.57957 -0.572587,1.23392 -0.752986,0.70098 z m 29.869819,0.0176 c -0.0992,-0.16058 -0.0777,-0.39019 0.0479,-0.51024 0.16466,-0.15744 30.21688,-18.24053 46.46424,-27.958571 0.10914,-0.06528 0.19744,-0.02236 0.19623,0.09536 -0.001,0.117729 -1.45972,1.096708 -3.24114,2.17551 -1.78142,1.078799 -12.16864,7.435211 -23.0827,14.125341 -10.91406,6.69014 -19.92482,12.20904 -20.0239,12.26422 -0.0991,0.0552 -0.26136,-0.031 -0.3606,-0.19162 z m -27.749405,-3.2393 c -0.0862,-1.19127 -0.338543,-6.095 -0.560766,-10.89719 -0.222226,-4.80218 -0.756896,-15.696407 -1.188159,-24.209376 -0.431263,-8.512969 -0.774052,-16.013906 -0.761754,-16.66875 0.04481,-2.386266 0.418716,0.04997 0.609108,3.96875 0.102515,2.110052 0.776107,13.890112 1.496872,26.177907 0.720762,12.287799 1.310478,22.603739 1.310478,22.924309 0,0.32056 -0.168539,0.64752 -0.374528,0.72656 -0.297042,0.11399 -0.406955,-0.30439 -0.531251,-2.02221 z m 25.485675,1.91882 c -0.23934,-0.14792 -0.27525,-0.31169 -0.10372,-0.47298 0.1443,-0.13569 5.62018,-4.20975 12.16862,-9.05346 6.54844,-4.84371 16.34133,-12.115945 21.76198,-16.160515 5.42065,-4.044572 9.85573,-7.256262 9.85573,-7.137091 0,0.119171 -7.64977,6.008018 -16.99948,13.086336 -9.34972,7.0783 -19.09593,14.46587 -21.65826,16.41681 -3.29665,2.51004 -4.76582,3.481 -5.02487,3.3209 z m -22.992395,-1.88561 c 0,-0.48821 0.350353,-7.90977 0.778565,-16.49236 0.42821,-8.582592 0.969402,-19.890958 1.20265,-25.129708 0.433171,-9.729102 0.684798,-13.100318 0.871326,-11.673798 0.122137,0.934075 -1.714135,48.630726 -1.991865,51.738196 -0.124841,1.39681 -0.322694,2.26937 -0.529947,2.33716 -0.220359,0.0721 -0.330729,-0.18806 -0.330729,-0.77949 z m 20.529325,0.618 c -0.0767,-0.12406 3.99243,-3.96383 9.04246,-8.53281 5.05002,-4.56899 13.70799,-12.418673 19.23993,-17.443738 13.02528,-11.831799 12.40902,-11.282865 12.28334,-10.941521 -0.0597,0.162203 -5.76406,5.515803 -12.6763,11.896889 -6.91224,6.38109 -15.87139,14.67205 -19.90921,18.42436 -4.03782,3.75231 -7.45385,6.82238 -7.59116,6.82238 -0.13731,0 -0.31239,-0.1015 -0.38906,-0.22556 z m -18.148075,-0.68951 c 0,-0.0667 1.006795,-6.88306 2.237322,-15.1474 1.230533,-8.264343 3.020203,-20.377701 3.977053,-26.918579 0.95686,-6.540879 1.79553,-11.948301 1.86372,-12.016494 0.0682,-0.06819 0.16786,-0.07438 0.22148,-0.01375 0.0536,0.06064 -0.94328,7.551651 -2.21535,16.646703 -1.27206,9.095052 -2.94756,21.17991 -3.723324,26.85522 -0.775764,5.67531 -1.535028,10.40622 -1.687254,10.51313 -0.313034,0.21986 -0.673647,0.2633 -0.673647,0.0812 z m 18.977105,-4.17816 c 5.26688,-5.78019 20.92252,-23.061646 27.56679,-30.429559 3.11617,-3.455562 5.71541,-6.233192 5.77609,-6.172512 0.0607,0.06068 -7.96579,9.219983 -17.8366,20.354012 -13.81905,15.587559 -18.08906,20.248209 -18.56489,20.263329 -0.50551,0.0161 0.0511,-0.71471 3.05861,-4.01527 z m -16.331272,3.23908 c 0,-0.32265 12.913912,-52.085949 13.135132,-52.65002 0.0966,-0.246403 0.1983,-0.284046 0.26813,-0.09928 0.0619,0.163674 -0.41985,2.425861 -1.0705,5.027083 -0.65066,2.601222 -3.46152,14.254493 -6.24638,25.89616 -2.78485,11.641667 -5.12298,21.375027 -5.19583,21.629687 -0.13957,0.48788 -0.890552,0.65347 -0.890552,0.19637 z m 10.318752,0.11717 c 0,-0.0822 5.27404,-7.25573 11.72008,-15.94115 6.44605,-8.685416 13.7191,-18.499638 16.16234,-21.809385 2.44324,-3.309744 4.56947,-6.096344 4.72497,-6.19244 0.44764,-0.276662 0.59233,-0.479261 -14.57765,20.412244 -7.92505,10.914071 -15.01544,20.700911 -15.75644,21.748551 -0.77065,1.08956 -1.54543,1.91054 -1.81028,1.91822 -0.25466,0.007 -0.46302,-0.0538 -0.46302,-0.13604 z m -7.80706,-0.57812 c 0.10288,-0.25466 4.22746,-11.77396 9.16573,-25.598444 10.40058,-29.116003 9.25955,-25.999197 9.39146,-25.653482 0.0579,0.151627 -1.51321,4.914128 -3.49124,10.583334 -1.97803,5.669206 -5.86049,16.856085 -8.62767,24.859732 -5.79278,16.75471 -5.6092,16.27188 -6.18665,16.27188 -0.31267,0 -0.38495,-0.13301 -0.25163,-0.46302 z m 5.34637,0.27855 c -0.0704,-0.11682 5.92747,-10.31626 13.32852,-22.665421 7.40106,-12.349157 13.70334,-22.871427 14.00507,-23.382827 0.30173,-0.511398 0.6071,-0.871318 0.67859,-0.799823 0.0715,0.0715 -3.42899,6.188454 -7.77886,13.593242 -4.34987,7.404788 -10.51515,17.918529 -13.70063,23.363859 -3.18549,5.44533 -5.92971,9.94623 -6.09828,10.00199 -0.16856,0.0558 -0.36405,0.006 -0.43441,-0.11102 z m -2.1969,-1.46918 c 0.34507,-0.76398 4.46359,-9.48531 9.15226,-19.380731 4.68868,-9.895417 9.64107,-20.372075 11.00533,-23.281465 1.36425,-2.909388 2.60224,-5.330394 2.75109,-5.380009 0.14885,-0.04962 -0.3634,1.259229 -1.13833,2.908546 -0.77493,1.64932 -5.92171,12.791652 -11.43729,24.760741 -7.74553,16.808198 -10.13442,21.761988 -10.4944,21.761988 -0.42455,0 -0.41017,-0.12375 0.16134,-1.38907 z"
       id="path1505" />
  </g>
</svg>
