<?xml version="1.0" encoding="UTF-8" standalone="no"?>
<svg
   xmlns:dc="http://purl.org/dc/elements/1.1/"
   xmlns:cc="http://creativecommons.org/ns#"
   xmlns:rdf="http://www.w3.org/1999/02/22-rdf-syntax-ns#"
   xmlns:svg="http://www.w3.org/2000/svg"
   xmlns="http://www.w3.org/2000/svg"
   xmlns:sodipodi="http://sodipodi.sourceforge.net/DTD/sodipodi-0.dtd"
   xmlns:inkscape="http://www.inkscape.org/namespaces/inkscape"
   width="210mm"
   height="297mm"
   viewBox="0 0 210 297"
   version="1.1"
   id="svg8"
   inkscape:version="1.0.2 (e86c8708, 2021-01-15)"
   sodipodi:docname="20.svg">
  <defs
     id="defs2" />
  <sodipodi:namedview
     id="base"
     pagecolor="#ffffff"
     bordercolor="#666666"
     borderopacity="1.0"
     inkscape:pageopacity="0.0"
     inkscape:pageshadow="2"
     inkscape:zoom="0.62"
     inkscape:cx="400"
     inkscape:cy="714.22814"
     inkscape:document-units="mm"
     inkscape:current-layer="layer1"
     inkscape:document-rotation="0"
     showgrid="false"
     inkscape:window-width="1252"
     inkscape:window-height="938"
     inkscape:window-x="590"
     inkscape:window-y="40"
     inkscape:window-maximized="0" />
  <metadata
     id="metadata5">
    <rdf:RDF>
      <cc:Work
         rdf:about="">
        <dc:format>image/svg+xml</dc:format>
        <dc:type
           rdf:resource="http://purl.org/dc/dcmitype/StillImage" />
        <dc:title></dc:title>
      </cc:Work>
    </rdf:RDF>
  </metadata>
  <g
     inkscape:label="Layer 1"
     inkscape:groupmode="layer"
     id="layer1">
    <path
       style="fill:#000000;stroke-width:0.264583"
       d="m 101.55306,207.0496 c 0,-0.27747 1.12368,-5.69897 1.72054,-8.30116 0.11224,-0.48935 -1.74065,-2.19255 -12.233084,-11.24479 -6.800948,-5.86746 -12.664943,-10.91355 -13.031097,-11.21355 -0.599593,-0.49125 -0.895067,-0.52918 -2.973906,-0.38176 -1.269494,0.09 -2.368007,0.22353 -2.441143,0.29666 -0.07314,0.0731 0.200612,2.40082 0.608329,5.17262 l 0.741302,5.03965 7.214502,9.31774 c 3.967975,5.12476 7.142689,9.38956 7.054919,9.47733 -0.08777,0.0878 -0.307182,-0.036 -0.487577,-0.27498 -2.232747,-2.95818 -13.570426,-17.57323 -13.60914,-17.54313 -0.02859,0.0222 0.345916,2.71578 0.832236,5.98566 0.486318,3.26988 0.835145,5.99684 0.775171,6.0599 -0.345807,0.3636 -0.641283,-1.01837 -1.430721,-6.6916 l -0.878374,-6.31237 -1.92704,-2.51065 -1.927039,-2.51066 -2.240603,4.65583 c -1.232331,2.56071 -2.361705,4.65584 -2.509721,4.65584 -0.295566,0 0.691623,-2.26402 2.947789,-6.76044 l 1.467159,-2.92397 -1.96021,-2.58923 c -1.078116,-1.42408 -1.960211,-2.75743 -1.960211,-2.96301 0,-0.20557 -0.100192,-0.37377 -0.222652,-0.37377 -0.12246,0 -1.843582,0.89468 -3.824719,1.98817 -3.997946,2.20668 -4.419295,2.40426 -4.419295,2.07224 0,-0.12624 1.828906,-1.2338 4.064235,-2.46124 l 4.064236,-2.23171 -1.055439,-3.18946 c -0.580491,-1.7542 -1.135489,-3.27882 -1.233326,-3.38803 -0.09784,-0.10921 -2.523361,-0.45799 -5.390047,-0.77506 -2.866689,-0.31707 -5.212159,-0.6742 -5.212159,-0.79362 0,-0.31518 0.942522,-0.26779 5.820833,0.29267 2.401094,0.27586 4.39243,0.4754 4.425188,0.44344 0.03276,-0.032 -0.380566,-1.39035 -0.918501,-3.01861 l -0.978067,-2.9605 -4.836183,-4.15618 c -2.659904,-2.2859 -4.836187,-4.25773 -4.836187,-4.38185 0,-0.34448 0.246867,-0.14987 4.820706,3.80034 2.343682,2.02413 4.297116,3.64436 4.340963,3.60051 0.04385,-0.0439 -1.524675,-4.76579 -3.485608,-10.49321 -1.960932,-5.72742 -3.49799,-10.48083 -3.415683,-10.56314 0.0823,-0.0823 0.232468,-0.014 0.333695,0.15173 0.10123,0.16576 1.842008,5.16293 3.868399,11.10484 l 3.684346,10.80346 4.068609,3.50573 c 3.231862,2.78474 4.228994,3.50573 4.848466,3.50573 0.50601,0 0.779857,-0.13515 0.779857,-0.38488 0,-0.36849 -4.598567,-32.48749 -4.890516,-34.15812 -0.109053,-0.62405 -0.910799,-1.49471 -3.512376,-3.8143 -1.854086,-1.65312 -3.413236,-3.18355 -3.464776,-3.40096 -0.05154,-0.2174 1.43674,1.00415 3.307291,2.71456 1.870551,1.71041 3.547764,3.17018 3.727141,3.24394 0.179376,0.0738 7.60159,-2.40183 16.493804,-5.50129 l 16.167666,-5.6354 1.05451,-2.09731 c 0.579978,-1.15353 0.956358,-2.19144 0.836408,-2.30648 -0.445362,-0.42709 -8.958862,-3.69309 -9.626792,-3.69309 -0.381358,0 -5.504633,0.65411 -11.385055,1.45358 -11.091627,1.50795 -12.161171,1.61922 -11.736784,1.22095 0.138244,-0.12974 4.954322,-0.85322 10.702395,-1.60774 5.748073,-0.75452 10.670074,-1.45557 10.937782,-1.55789 0.345599,-0.13209 -1.035373,-0.78924 -4.7625,-2.26629 -5.021445,-1.98999 -5.884431,-2.39361 -5.628475,-2.63245 0.06306,-0.0588 2.793558,0.96179 6.067776,2.26807 l 5.953125,2.37506 2.895354,-0.31601 c 1.592445,-0.17381 3.048463,-0.37477 3.235592,-0.44658 0.225494,-0.0865 -0.60416,-1.5103 -2.460088,-4.22176 -1.540179,-2.25017 -2.726319,-4.16522 -2.635869,-4.25567 0.232966,-0.23296 0.319284,-0.11885 3.301193,4.36433 1.47606,2.21919 2.742152,4.0349 2.813542,4.0349 0.07139,0 1.335265,-0.18106 2.808614,-0.40236 1.47334,-0.22129 3.0799,-0.3271 3.57013,-0.23513 l 0.89132,0.16721 v -4.65965 c 0,-2.93005 0.0982,-4.65966 0.26459,-4.65966 0.16647,0 0.26458,1.74514 0.26458,4.70626 v 4.70626 l 3.47006,0.68101 3.47006,0.68102 3.04615,-4.1305 c 3.47488,-4.71186 3.44625,-4.6768 3.65167,-4.47138 0.0842,0.0842 -1.23582,2.02252 -2.93329,4.30747 -1.69747,2.28495 -2.98474,4.24471 -2.86059,4.35503 0.12416,0.11032 1.48766,0.44757 3.03002,0.74945 l 2.80429,0.54887 6.00412,-2.09799 c 3.30227,-1.1539 6.11823,-2.098 6.25769,-2.098 1.00839,0 -0.50789,0.6608 -5.4516,2.37582 -3.13747,1.08842 -5.60787,2.00742 -5.48977,2.04222 0.1181,0.0348 5.01691,1.00958 10.88624,2.16618 5.86934,1.1566 10.74098,2.17237 10.82587,2.25726 0.0849,0.0849 0.099,0.20971 0.0314,0.27735 -0.0677,0.0677 -5.27095,-0.89458 -11.56289,-2.13829 l -11.43988,-2.26129 -5.15166,1.79045 c -3.99535,1.38858 -5.2451,1.93306 -5.56798,2.42583 -0.22898,0.34946 -0.37704,0.67352 -0.32903,0.72013 0.18048,0.17522 32.12675,12.91587 32.67451,13.03109 0.31495,0.0662 2.48248,-0.51201 4.81673,-1.285 2.33425,-0.77299 4.32883,-1.3207 4.43239,-1.21713 0.10357,0.10356 0.1387,0.23185 0.0781,0.28507 -0.0606,0.0532 -2.06837,0.73783 -4.46163,1.52135 l -4.3514,1.42459 -3.11676,16.40416 c -1.71423,9.0223 -3.11961,16.67349 -3.12309,17.00266 -0.006,0.56834 2.26702,4.2963 2.61955,4.2963 0.0918,0 1.94128,-1.40111 4.10987,-3.11358 l 3.94288,-3.11359 4.43084,-10.83671 c 2.43696,-5.96019 4.57762,-10.88563 4.75702,-10.94543 0.19194,-0.064 0.26606,0.0422 0.18011,0.25811 -0.0803,0.20175 -2.00374,4.88185 -4.27424,10.4002 -2.27049,5.51836 -4.08414,10.07741 -4.03033,10.13122 0.0538,0.0538 2.14793,-1.52316 4.65361,-3.50438 2.50568,-1.98121 4.62604,-3.53194 4.71192,-3.44607 0.19834,0.19834 0.44685,-0.0129 -4.83567,4.11002 -2.47386,1.93079 -4.65203,3.65429 -4.8404,3.83001 -0.18836,0.17571 -0.86746,1.58985 -1.50912,3.14254 l -1.16665,2.82308 h 1.20579 c 0.66318,0 2.92625,-0.13252 5.02903,-0.2945 3.44941,-0.26571 4.40532,-0.22773 4.01798,0.1596 -0.0713,0.0713 -2.26406,0.2682 -4.87274,0.4375 -2.60868,0.1693 -4.98964,0.39755 -5.29102,0.50722 -0.37985,0.13823 -0.82306,0.91096 -1.44458,2.5186 -0.49314,1.27555 -1.1841,2.66084 -1.53548,3.07843 -0.35138,0.41759 -0.59429,0.79902 -0.5398,0.84764 0.0545,0.0486 1.82548,1.13482 3.93553,2.41379 4.4561,2.701 4.10176,2.45774 3.88938,2.67012 -0.0922,0.0922 -1.96102,-0.91988 -4.15301,-2.24896 -2.192,-1.32909 -4.029,-2.41652 -4.08222,-2.41652 -0.0532,0 -1.13671,1.1941 -2.40776,2.65356 l -2.31099,2.65357 2.15153,4.93067 c 1.90218,4.35921 2.37628,5.77462 1.66077,4.9581 -0.11902,-0.13582 -1.0993,-2.31104 -2.1784,-4.83381 l -1.96201,-4.58687 -1.79592,1.94103 c -0.98775,1.06757 -1.95388,2.23869 -2.14694,2.6025 -0.19306,0.3638 -0.86736,3.42966 -1.49845,6.81302 -0.70231,3.76521 -1.26465,6.15156 -1.44961,6.15156 -0.20133,0 0.0787,-1.96017 0.83902,-5.87287 0.62767,-3.23009 1.11232,-5.90178 1.07701,-5.93709 -0.0353,-0.0353 -3.32987,3.67904 -7.32123,8.25412 -3.99136,4.57509 -7.37063,8.31834 -7.50948,8.31834 -0.13885,0 -0.0741,-0.20836 0.14385,-0.46302 0.21797,-0.25466 3.67092,-4.21349 7.67323,-8.7974 l 7.27693,-8.33437 1.01586,-5.35543 c 0.92615,-4.88246 0.98232,-5.42521 0.63601,-6.14549 l -0.37986,-0.79005 -13.62604,10.71598 c -7.49433,5.89378 -13.81966,10.98097 -14.05629,11.30486 -0.23664,0.32388 -0.82132,2.52364 -1.29929,4.88836 -0.47797,2.36471 -0.96897,4.29948 -1.09111,4.29948 -0.12213,0 -0.22206,-0.1554 -0.22206,-0.34533 z m 2.20764,-25.22653 0.15269,-7.97707 -0.98173,0.1095 c -0.53995,0.0602 -6.220478,0.46696 -12.623395,0.90385 -6.402916,0.43689 -11.778548,0.82214 -11.945849,0.85611 -0.167299,0.034 5.369107,4.95709 12.303124,10.94027 l 12.60731,10.87851 0.16758,-3.86705 c 0.0922,-2.12688 0.23629,-7.45673 0.32027,-11.84412 z m 14.99027,4.15242 c 7.05776,-5.56285 12.87198,-10.22247 12.92049,-10.35471 0.0485,-0.13224 -0.0859,-0.24044 -0.29859,-0.24044 -0.21272,0 -4.62984,-0.47484 -9.81581,-1.0552 -8.68331,-0.97175 -9.67457,-1.03486 -12.5337,-0.79794 -1.70758,0.1415 -3.41909,0.25915 -3.80338,0.26145 l -0.69869,0.004 -0.15678,5.09322 c -0.0862,2.80128 -0.22958,8.17803 -0.31856,11.94834 l -0.16177,6.8551 1.01725,-0.79987 c 0.55949,-0.43993 6.79178,-5.35129 13.84954,-10.91414 z m 16.00943,-2.43846 c 0.15344,-0.44459 -1.38025,-4.45252 -1.70382,-4.45252 -0.0952,0 -0.53596,1.92369 -0.97944,4.27486 l -0.80635,4.27486 1.66849,-1.82746 c 0.91767,-1.00511 1.73717,-2.02649 1.82112,-2.26974 z m -62.082692,-2.07728 c -0.293066,-2.10674 -0.593923,-4.00904 -0.668573,-4.22732 -0.0828,-0.24212 -0.545655,0.41268 -1.186987,1.67925 l -1.051261,2.07612 1.669733,2.19302 c 0.91835,1.20615 1.692274,2.17419 1.719833,2.1512 0.02756,-0.023 -0.189679,-1.76552 -0.482745,-3.87227 z m 65.491812,-1.63243 1.78577,-2.03532 -1.01101,-0.62914 c -0.55606,-0.34603 -1.16899,-0.72274 -1.36206,-0.83712 -0.19307,-0.11439 -1.14355,-0.30627 -2.11218,-0.4264 -1.96246,-0.24338 -2.15627,-0.13195 -2.16293,1.2435 -0.003,0.68189 1.37558,4.40276 2.01496,5.43731 0.17713,0.2866 0.20062,0.2639 2.84745,-2.75283 z m -66.862864,-3.56074 c -0.05873,-0.0587 -1.205394,-0.0143 -2.548134,0.0988 l -2.441344,0.20559 1.544502,2.02983 1.544503,2.02983 1.00363,-2.12863 c 0.551998,-1.17075 0.955578,-2.17669 0.896843,-2.23542 z m 69.380984,0.59759 c 0.25127,-0.30277 0.10411,-0.38932 -0.8275,-0.48665 -1.41688,-0.14804 -1.50215,-0.0832 -0.56121,0.42673 0.93834,0.50852 1.01371,0.51177 1.38871,0.0599 z m -7.64917,-0.97028 c 0,-0.13693 -0.17486,-0.24896 -0.38857,-0.24896 -0.23603,0 -0.32901,0.1552 -0.23686,0.39535 0.15618,0.407 0.62543,0.29717 0.62543,-0.14639 z M 67.292276,173.8397 c -0.04903,-0.049 -0.426892,0.12246 -0.8397,0.38109 -0.412809,0.25863 -0.775603,0.4817 -0.806212,0.49572 -0.03061,0.014 0.01355,0.29009 0.09812,0.6135 0.145071,0.55475 0.195712,0.53175 0.895352,-0.40658 0.407872,-0.54702 0.701469,-1.0347 0.652442,-1.08373 z m 2.785919,1.90257 1.730349,-0.16348 -0.247039,-1.88516 c -0.135871,-1.03684 -0.282387,-1.92771 -0.325588,-1.97971 -0.261557,-0.31483 -3.019983,1.69374 -3.751691,2.73182 -0.470892,0.66806 -0.856168,1.27071 -0.856168,1.33921 0,0.1703 1.376034,0.15327 3.450137,-0.0427 z m 69.414265,-2.01557 c -0.83597,-1.20055 -1.53281,-2.20669 -1.54854,-2.23588 -0.0157,-0.0292 -0.77259,0.52277 -1.68194,1.22655 l -1.65335,1.27961 1.26544,0.74571 c 1.23987,0.73065 2.50585,1.06754 4.26023,1.1337 l 0.87812,0.0331 z m -63.967026,1.65364 h 1.422898 l -1.125242,-0.98077 c -2.151186,-1.87499 -1.964663,-1.80629 -2.434949,-0.89685 -0.231998,0.44863 -0.541174,1.12963 -0.687054,1.51333 -0.257927,0.6784 -0.242264,0.69304 0.568105,0.53096 0.45834,-0.0917 1.47365,-0.16667 2.256242,-0.16667 z m 66.989936,-2.21364 0.83065,-2.08135 -2.3095,0.18997 c -1.27023,0.10448 -2.3516,0.2299 -2.40304,0.2787 -0.0514,0.0488 0.53263,0.99451 1.29794,2.10157 0.76531,1.10706 1.47289,1.91825 1.57239,1.80265 0.0995,-0.11561 0.55471,-1.1468 1.01156,-2.29154 z m -7.31932,1.67203 c -0.71993,-0.43892 -0.95927,-0.47809 -1.28242,-0.20991 -0.34875,0.28944 -0.33759,0.35322 0.0914,0.52203 0.26877,0.10577 0.84586,0.20022 1.28242,0.20991 l 0.79375,0.0176 -0.88513,-0.53963 z m -43.501601,-0.6129 c 6.583233,-0.47751 12.045051,-0.94374 12.137371,-1.03606 0.69898,-0.69897 -0.50962,-0.90769 -13.822491,-2.38702 -7.54819,-0.83876 -13.907537,-1.52115 -14.131883,-1.51642 -0.347522,0.007 -2.01664,2.85431 -1.78749,3.04889 0.0433,0.0368 0.781862,0.67744 1.641247,1.4237 1.401244,1.21679 1.687992,1.35572 2.778125,1.34598 0.668584,-0.006 6.601886,-0.40156 13.185121,-0.87907 z m 41.291111,0.57243 c 0.57288,-0.57288 0.33055,-1.12792 -0.76585,-1.75414 -0.5936,-0.33904 -1.13391,-0.5618 -1.20069,-0.49502 -0.2037,0.2037 1.04634,2.56666 1.3578,2.56666 0.16018,0 0.43411,-0.14288 0.60874,-0.3175 z m -1.79917,-0.20459 c 0,-0.14163 -0.25523,-0.78285 -0.56718,-1.42493 -0.53562,-1.10247 -0.62027,-1.16169 -1.52135,-1.0642 -0.99193,0.10731 -11.65938,0.87106 -12.92981,0.92572 -0.6833,0.0294 12.73577,1.70436 14.29074,1.78376 0.40018,0.0204 0.7276,-0.0787 0.7276,-0.22035 z m -58.428876,-2.82616 c -0.387879,-0.31357 -0.776359,-0.52617 -0.86329,-0.47245 -0.08693,0.0537 -0.06432,0.66747 0.05024,1.36388 0.114562,0.69641 0.220774,1.44479 0.236024,1.66307 0.01524,0.21828 0.309997,-0.13891 0.654992,-0.79375 l 0.627266,-1.19063 z m -3.499601,-0.4785 1.174644,-1.48485 -0.651359,-0.65136 c -0.529111,-0.52911 -1.07234,-0.70077 -2.894436,-0.91464 -1.233694,-0.1448 -2.558269,-0.31803 -2.9435,-0.38495 l -0.700418,-0.12168 1.08282,3.27108 1.082818,3.27108 1.337392,-0.74991 c 0.76976,-0.43163 1.835949,-1.38014 2.512039,-2.23477 z m 66.955557,0.92965 0.66146,-0.53072 -1.22846,-0.006 c -1.30735,-0.006 -1.54966,0.22655 -1.54966,1.48897 v 0.65784 l 0.7276,-0.53976 c 0.40018,-0.29686 1.02526,-0.77857 1.38906,-1.07046 z m -28.70729,0.79561 c 0.98502,-0.20374 1.00133,-0.22101 0.23537,-0.24933 -0.45263,-0.0167 -1.37537,-0.10615 -2.05052,-0.19868 -1.02867,-0.141 -1.22756,-0.0981 -1.22756,0.26458 0,0.48961 1.20984,0.56255 3.04271,0.18343 z m 26.10839,-0.4782 c 0.1045,-0.71062 0.0799,-0.72539 -1.05243,-0.63289 l -1.15943,0.0947 1.01632,0.62464 c 0.55897,0.34355 1.03257,0.62836 1.05243,0.6329 0.0199,0.005 0.0843,-0.31917 0.14311,-0.71935 z m -12.94537,-0.37695 c 4.76581,-0.3271 8.66235,-0.65887 8.65899,-0.73727 -0.008,-0.17527 -24.3666,-14.88937 -24.46139,-14.7759 -0.0374,0.0447 -0.1498,3.48824 -0.24991,7.65231 l -0.182,7.57105 3.25543,0.39584 c 1.7905,0.21772 3.49357,0.41674 3.78461,0.44227 0.29104,0.0255 4.42846,-0.2212 9.19427,-0.5483 z m -49.543226,-1.54807 c 0,-0.7363 -0.335618,-0.64956 -1.008575,0.26066 -0.769512,1.04082 -0.731012,1.16129 0.214825,0.67217 0.475319,-0.24579 0.79375,-0.62002 0.79375,-0.93283 z m 3.428492,-0.5939 c 0.0061,-0.11209 -0.471418,0.0424 -1.061151,0.34321 l -1.07224,0.54701 0.609219,0.49597 c 0.607081,0.49422 0.610809,0.49302 1.061151,-0.3432 0.248563,-0.46155 0.456923,-0.93089 0.463021,-1.04299 z m 29.470374,-3.14589 c 0.0957,-2.6427 0.17405,-6.15003 0.17405,-7.79405 v -2.98914 l -1.16436,-0.68236 -1.16435,-0.68236 -12.62891,6.95506 c -7.868513,4.33339 -12.441206,6.99392 -12.130955,7.05816 0.987258,0.20442 24.600845,2.88387 25.657755,2.9114 l 1.08273,0.0282 z m 29.79599,4.02959 c 0.11614,-0.1879 0.36263,-1.22718 0.54777,-2.30951 l 0.33661,-1.96788 -1.3194,-1.90541 c -0.72567,-1.04798 -4.02452,-5.92377 -7.33078,-10.8351 -3.30626,-4.91133 -6.17614,-8.92969 -6.37752,-8.92969 -0.20138,0 -0.4296,0.10268 -0.50716,0.22817 -0.0776,0.1255 2.30684,5.81073 5.29867,12.63385 2.99183,6.82313 5.551,12.68771 5.68705,13.03241 0.23012,0.58304 0.3591,0.61864 1.85049,0.51076 0.90965,-0.0658 1.69447,-0.26374 1.81427,-0.4576 z m 3.2186,0.0291 c 0.3623,-0.15185 0.25304,-0.44101 -0.70202,-1.8579 -1.20158,-1.78262 -1.20724,-1.78182 -1.57915,0.22286 -0.0945,0.50932 -0.23046,1.1344 -0.30216,1.38906 -0.11022,0.39144 0.0462,0.46014 1.01194,0.44442 0.62827,-0.0102 1.3354,-0.0995 1.57139,-0.19844 z m -7.5169,-0.24598 c -0.0592,-0.10914 -2.53073,-5.76461 -5.49236,-12.56771 -2.96162,-6.8031 -5.50984,-12.36632 -5.66271,-12.36271 -0.15287,0.004 -3.25451,1.65595 -6.89253,3.67188 l -6.61458,3.66531 -0.0655,1.42136 -0.0655,1.42135 12.36859,7.46627 c 6.80272,4.10644 12.40538,7.46996 12.45035,7.47448 0.045,0.005 0.0333,-0.0811 -0.0258,-0.19023 z m 12.91438,-0.0661 h 1.12249 l 1.07908,-2.66955 c 0.59349,-1.46825 0.93496,-2.55674 0.7588,-2.41887 -4.80976,3.76467 -6.53797,5.16013 -6.53797,5.27914 0,0.0802 0.5524,0.0701 1.22755,-0.0225 0.67515,-0.0925 1.73268,-0.16826 2.35005,-0.16826 z m -69.177627,-1.67832 c -1.683009,-0.26898 -2.115555,9e-5 -1.648399,1.02539 l 0.311809,0.68434 1.366314,-0.74331 1.366316,-0.74331 z m -2.463913,0.0247 c -0.06057,-0.1819 -0.33459,-0.37423 -0.608939,-0.42739 -0.431562,-0.0836 -0.450995,-0.039 -0.144116,0.33072 0.419682,0.50569 0.910206,0.56866 0.753055,0.0967 z m 6.668156,-4.89479 c 2.711902,-5.46378 4.105499,-8.48476 3.753164,-8.13594 -0.146989,0.14552 -2.243272,2.94349 -4.658405,6.21771 -4.817541,6.53118 -4.719528,6.25435 -2.238893,6.32362 l 0.944459,0.0264 2.199675,-4.43177 z m 12.050989,-3.10032 c 6.257396,-3.44076 11.461125,-6.33924 11.563845,-6.44108 0.15608,-0.15474 -12.415996,-7.98726 -12.820449,-7.98726 -0.07363,0 -1.147037,1.34887 -2.385351,2.9975 -1.931778,2.57186 -2.786382,4.10282 -6.018532,10.78177 -2.071883,4.28135 -3.8276,7.88789 -3.901596,8.01454 -0.074,0.12665 0.387358,-0.0712 1.025231,-0.43964 0.637874,-0.36845 6.279457,-3.48507 12.536852,-6.92583 z m -12.052619,-0.73793 c 4.856477,-6.58935 5.838862,-8.08936 7.333665,-11.19787 0.949306,-1.97412 1.685049,-3.62525 1.634982,-3.66919 -0.08249,-0.0724 -2.872158,-1.76096 -15.999978,-9.68466 -2.743727,-1.65606 -4.233836,-2.42048 -4.173604,-2.14103 0.05152,0.23905 1.175576,7.9951 2.497889,17.23567 1.322316,9.24058 2.460199,16.96978 2.528631,17.17602 0.162385,0.48937 -0.262541,1.02025 6.178415,-7.71894 z m -9.784953,7.12673 c -2.575547,-2.32363 -6.340552,-5.46856 -6.340552,-5.2963 0,0.12131 0.364964,1.31605 0.81103,2.65499 l 0.811033,2.43443 1.107196,0.14238 c 0.60896,0.0783 1.404856,0.18728 1.768658,0.24217 0.363802,0.0549 1.014394,0.11601 1.44576,0.13583 0.668012,0.0307 0.726855,-0.0158 0.396875,-0.3135 z m 70.350797,-17.99717 3.11627,-16.29732 -1.34079,0.76009 c -0.73743,0.41804 -5.38891,2.98534 -10.33662,5.70509 -4.94771,2.71975 -9.02482,4.97277 -9.06024,5.00671 -0.0354,0.0339 3.16283,4.85134 7.10722,10.70535 3.9444,5.85401 7.22254,10.59274 7.28476,10.53052 0.0622,-0.0622 1.51545,-7.44692 3.2294,-16.41044 z m -56.318433,6.04357 c 0,-0.0728 -0.05953,-0.13229 -0.132291,-0.13229 -0.07276,0 -0.132292,0.0595 -0.132292,0.13229 0,0.0728 0.05953,0.13229 0.132292,0.13229 0.07276,0 0.132291,-0.0595 0.132291,-0.13229 z m 22.489583,-0.941 v -1.07329 l -0.79375,0.46888 c -0.43656,0.25788 -0.79375,0.53469 -0.79375,0.61513 0,0.1222 1.31332,1.03339 1.52135,1.05553 0.0364,0.004 0.0662,-0.47594 0.0662,-1.06625 z m -0.13229,-1.6276 c 0.16339,-0.1451 0.37367,-5.71976 0.54981,-14.57589 0.15688,-7.88751 0.27237,-14.36434 0.25665,-14.39296 -0.0484,-0.088 -16.059058,21.6735 -16.174967,21.98483 -0.05983,0.16071 2.891113,2.10308 6.557658,4.31637 l 6.666449,4.02416 0.93991,-0.56077 c 0.51695,-0.30843 1.05897,-0.66651 1.20449,-0.79574 z m 7.83423,-4.16846 6.48468,-3.56206 -1.63813,-3.71399 c -1.37567,-3.1189 -2.39561,-4.83452 -6.36571,-10.70756 l -4.72757,-6.99359 -0.1672,2.23109 c -0.30409,4.0579 -0.57197,26.51137 -0.31505,26.40722 0.13437,-0.0545 3.16241,-1.70198 6.72898,-3.66111 z M 86.384815,148.1283 c 1.439354,-1.99974 1.458396,-2.04145 1.010489,-2.21332 -0.289984,-0.11128 -0.68752,0.43167 -1.481048,2.02279 -1.180576,2.36721 -1.115205,2.39368 0.470559,0.19053 z m 9.876575,-13.3729 c 4.43839,-6.03446 8.22633,-11.19893 8.41765,-11.47661 0.30354,-0.44055 0.23612,-0.67572 -0.52917,-1.84584 -0.48236,-0.73754 -0.99568,-1.34312 -1.1407,-1.34573 -0.14503,-0.003 -1.15775,0.293 -2.2505,0.65692 l -1.986813,0.66167 -5.801492,11.92669 c -4.691189,9.64413 -5.728946,11.9726 -5.422421,12.16657 0.208489,0.13193 0.438603,0.23722 0.511363,0.23397 0.07276,-0.003 3.763698,-4.94318 8.202083,-10.97764 z m -5.903894,2.85571 c 1.971845,-4.0382 4.512683,-9.27037 5.646307,-11.62705 l 2.061135,-4.28486 -4.539794,1.57884 c -20.727249,7.20848 -26.895734,9.38884 -26.887143,9.50373 0.0087,0.11675 19.834317,12.14439 20.050209,12.16392 0.04626,0.004 1.69744,-3.29638 3.669286,-7.33458 z m 29.023474,6.86393 c 0.13732,-0.22218 -1.95576,-3.57585 -2.12568,-3.40592 -0.0531,0.0531 0.26293,0.8892 0.70223,1.85805 0.75095,1.6562 1.11311,2.05001 1.42345,1.54787 z m 11.00874,-5.98866 c 5.45543,-3.00297 10.00988,-5.55087 10.12102,-5.662 0.11113,-0.11114 -7.1432,-3.13984 -16.12074,-6.73045 -8.97754,-3.5906 -16.37395,-6.47723 -16.43646,-6.41472 -0.0625,0.0625 1.64595,4.13765 3.79659,9.05586 3.07876,7.04071 4.30283,9.53293 5.75648,11.72031 2.04917,3.08349 2.56067,3.7393 2.80109,3.59131 0.0897,-0.0552 4.6266,-2.55735 10.08202,-5.56031 z m -13.22624,2.10129 c 0,-0.0728 -0.0595,-0.13229 -0.13229,-0.13229 -0.0728,0 -0.13229,0.0595 -0.13229,0.13229 0,0.0728 0.0595,0.1323 0.13229,0.1323 0.0728,0 0.13229,-0.0595 0.13229,-0.1323 z m -6.48468,-13.10234 c -1.6765,-3.83337 -3.09094,-7.01252 -3.14321,-7.06479 -0.0523,-0.0523 -0.50583,0.45956 -1.00791,1.13739 l -0.91288,1.23241 3.98042,5.90804 c 2.18923,3.24942 4.01447,5.87399 4.05609,5.83237 0.0416,-0.0416 -1.29601,-3.21206 -2.97251,-7.04542 z m -4.13973,-6.72376 0.84237,-1.17298 -0.56331,-0.39456 c -0.92882,-0.65057 -1.29631,-0.27817 -1.29631,1.31362 0,0.78479 0.0393,1.4269 0.0874,1.4269 0.0481,0 0.4665,-0.52784 0.92981,-1.17298 z m -1.54642,-0.2737 c 0,-1.11783 -0.0324,-1.16956 -0.59531,-0.95147 -0.32742,0.12685 -0.56271,0.36966 -0.52285,0.53959 0.0856,0.3649 0.86922,1.59398 1.0163,1.59398 0.056,0 0.10186,-0.53195 0.10186,-1.1821 z m -3.75879,-0.4286 1.63563,-0.55236 -0.80321,-1.16743 c -0.44177,-0.64209 -0.89101,-1.16743 -0.9983,-1.16743 -0.1073,0 -0.57672,0.77391 -1.04315,1.71979 -0.466441,0.94589 -0.753241,1.71979 -0.637333,1.71979 0.115906,0 0.946773,-0.24856 1.846363,-0.55236 z m 2.92556,-1.06102 c 0.45828,-0.15976 0.83323,-0.37436 0.83323,-0.4769 0,-0.10254 -0.62175,-0.41831 -1.38166,-0.70172 -0.75992,-0.28341 -1.48488,-0.55851 -1.61104,-0.61133 -0.12616,-0.0528 0.0947,0.39366 0.49078,0.99219 0.39609,0.59852 0.7461,1.08823 0.77781,1.08823 0.0317,0 0.4326,-0.13071 0.89088,-0.29047 z m 4.15833,-0.70597 c -0.23981,-0.23981 -0.97759,0.19863 -0.80477,0.47825 0.11854,0.19181 0.29156,0.18058 0.55233,-0.0358 0.20884,-0.17332 0.32244,-0.37241 0.25244,-0.44241 z m -1.7376,-0.1653 c 0,-0.0569 -0.23551,-0.62241 -0.52336,-1.25677 l -0.52335,-1.15337 -0.006,1.08038 c -0.003,0.59421 0.0736,1.15976 0.17058,1.25677 0.1884,0.18841 0.88194,0.24581 0.88194,0.073 z m 1.56501,-0.45757 c 0.59353,-0.20691 1.36977,-0.98518 2.57104,-2.57777 l 1.7208,-2.28137 -2.86228,-0.58488 c -3.99733,-0.81681 -3.72584,-0.88775 -3.83097,1.00096 -0.0728,1.30858 0.0437,1.90388 0.62165,3.175 0.3912,0.86045 0.76039,1.56445 0.82041,1.56445 0.06,0 0.49173,-0.13338 0.95935,-0.29639 z m -3.15251,-1.54955 c 0,-1.42742 -0.9082,-4.50258 -1.3301,-4.50369 -0.19061,-5.3e-4 -2.42644,4.53336 -2.29862,4.66118 0.14473,0.14474 3.19079,1.39919 3.43028,1.41268 0.10914,0.006 0.19844,-0.70042 0.19844,-1.57017 z m 9.78058,-0.79953 c 2.39975,-0.84284 3.39306,-1.30059 3.0427,-1.40219 -0.28608,-0.083 -1.51385,-0.34744 -2.72837,-0.58773 -2.11562,-0.41858 -2.22279,-0.41654 -2.55571,0.0487 -0.19112,0.2671 -0.85045,1.18331 -1.46517,2.03604 -1.2926,1.79304 -1.69819,1.80342 3.70655,-0.0948 z m -14.955126,-0.1988 c -0.260096,-0.40018 -0.839338,-1.29773 -1.287201,-1.99455 -0.710713,-1.10578 -0.905867,-1.24986 -1.53417,-1.13264 -0.395931,0.0739 -1.500606,0.21429 -2.454833,0.31206 -0.954228,0.0978 -1.786194,0.26065 -1.848819,0.36198 -0.09808,0.1587 6.738594,3.08633 7.369059,3.1556 0.12588,0.0138 0.0161,-0.30227 -0.244036,-0.70245 z m 3.272966,-3.89169 c -0.22919,-0.18402 -4.580627,0.56406 -4.580111,0.7874 2.65e-4,0.14301 0.536112,1.05634 1.190625,2.02962 l 1.190026,1.7696 1.14113,-2.26007 c 0.62761,-1.24304 1.10386,-2.28999 1.05833,-2.32655 z m 2.16616,0.79808 c 0,-0.39247 -0.19146,-0.66506 -0.52916,-0.75337 -0.60636,-0.15856 -0.65306,0.0444 -0.2259,0.98196 0.35384,0.77659 0.75506,0.65512 0.75506,-0.22859 z"
       id="path1637" />
  </g>
</svg>
