<?xml version="1.0" encoding="UTF-8" standalone="no"?>
<svg
   xmlns:dc="http://purl.org/dc/elements/1.1/"
   xmlns:cc="http://creativecommons.org/ns#"
   xmlns:rdf="http://www.w3.org/1999/02/22-rdf-syntax-ns#"
   xmlns:svg="http://www.w3.org/2000/svg"
   xmlns="http://www.w3.org/2000/svg"
   xmlns:sodipodi="http://sodipodi.sourceforge.net/DTD/sodipodi-0.dtd"
   xmlns:inkscape="http://www.inkscape.org/namespaces/inkscape"
   width="210mm"
   height="297mm"
   viewBox="0 0 210 297"
   version="1.1"
   id="svg8"
   inkscape:version="1.0.2 (e86c8708, 2021-01-15)"
   sodipodi:docname="24.svg">
  <defs
     id="defs2" />
  <sodipodi:namedview
     id="base"
     pagecolor="#ffffff"
     bordercolor="#666666"
     borderopacity="1.0"
     inkscape:pageopacity="0.0"
     inkscape:pageshadow="2"
     inkscape:zoom="0.62"
     inkscape:cx="400"
     inkscape:cy="714.22814"
     inkscape:document-units="mm"
     inkscape:current-layer="layer1"
     inkscape:document-rotation="0"
     showgrid="false"
     inkscape:window-width="1252"
     inkscape:window-height="938"
     inkscape:window-x="569"
     inkscape:window-y="25"
     inkscape:window-maximized="0" />
  <metadata
     id="metadata5">
    <rdf:RDF>
      <cc:Work
         rdf:about="">
        <dc:format>image/svg+xml</dc:format>
        <dc:type
           rdf:resource="http://purl.org/dc/dcmitype/StillImage" />
        <dc:title></dc:title>
      </cc:Work>
    </rdf:RDF>
  </metadata>
  <g
     inkscape:label="Layer 1"
     inkscape:groupmode="layer"
     id="layer1">
    <path
       style="fill:#000000;stroke-width:0.264583"
       d="m 91.1469,244.59235 c 0.0059,-0.10914 1.350835,-10.77226 2.988728,-23.69582 l 2.977988,-23.49738 -0.663382,-4.74689 c -0.36486,-2.61079 -0.734602,-4.74688 -0.82165,-4.74688 -0.08705,0 -0.436166,1.5419 -0.775819,3.42644 -0.604647,3.35485 -0.615799,4.11399 -0.107098,7.28918 0.261263,1.63075 -0.263396,0.83875 -0.566801,-0.85561 -0.254778,-1.4228 -0.42953,-0.59598 -4.715558,22.3109 -2.448033,13.08365 -4.515723,23.96705 -4.594865,24.18534 -0.677982,1.86995 0.248407,-3.54065 4.243168,-24.78238 l 4.619257,-24.56242 -0.597072,-3.43958 c -0.32839,-1.89177 -0.667904,-3.26099 -0.754475,-3.04271 -0.08657,0.21828 -0.464437,1.5875 -0.839698,3.04271 l -0.682294,2.64583 0.515384,2.5124 c 0.283462,1.38182 0.46526,2.56252 0.403998,2.62379 -0.239276,0.23927 -0.414708,-0.24926 -0.693343,-1.93076 -0.15951,-0.96262 -0.361715,-1.74954 -0.449345,-1.74871 -0.08763,8e-4 -2.897761,10.60597 -6.244741,23.56696 -3.346979,12.961 -6.168239,23.70226 -6.269468,23.86947 -0.101227,0.16722 -0.230574,0.24795 -0.287436,0.1794 -0.05686,-0.0685 2.748325,-11.12424 6.233748,-24.56822 l 6.33713,-24.44358 -0.473464,-2.76224 -0.473464,-2.76224 -0.891246,2.46519 -0.891249,2.4652 0.540539,2.52463 c 0.614415,2.86969 0.627462,2.98846 0.30653,2.79011 -0.128701,-0.0795 -0.37624,-0.89844 -0.550085,-1.81978 -0.173844,-0.92134 -0.395962,-1.80417 -0.493598,-1.96184 -0.09764,-0.15768 -3.738878,10.20896 -8.091649,23.03698 -4.352774,12.82801 -7.954415,23.37327 -8.003646,23.4339 -0.587073,0.72302 0.813885,-3.61395 7.735991,-23.94841 l 8.097337,-23.78683 -0.322421,-1.71979 c -0.486916,-2.59724 -0.602771,-2.63618 -1.498714,-0.50377 -0.795708,1.89384 -0.80055,1.93394 -0.425701,3.52481 0.664882,2.82177 0.712009,3.15773 0.417409,2.97566 -0.152175,-0.0941 -0.430728,-0.946 -0.619009,-1.89323 -0.188277,-0.94722 -0.409776,-1.71998 -0.49222,-1.71725 -0.08244,0.003 -4.485725,10.03375 -9.785069,22.29114 -5.299345,12.2574 -9.674892,22.33579 -9.723438,22.39642 -0.74939,0.936 1.198491,-3.76077 9.472099,-22.83929 l 9.833758,-22.67613 -0.334658,-1.87265 -0.334661,-1.87263 -0.905436,1.68877 -0.905438,1.68877 0.438147,1.79847 c 0.240983,0.98915 0.367213,1.8694 0.280514,1.9561 -0.173093,0.17309 -0.238757,0.0123 -0.749273,-1.83408 l -0.346859,-1.25451 -11.493984,21.16441 c -6.321689,11.64042 -11.597232,21.16441 -11.723425,21.16441 -0.126196,0 -0.17638,-0.0893 -0.111522,-0.19844 0.06486,-0.10914 5.319276,-9.77038 11.676483,-21.46943 l 11.558558,-21.27099 -0.350808,-1.43736 -0.350811,-1.43737 -0.860388,1.22064 c -0.822881,1.16743 -0.847312,1.27257 -0.56047,2.41172 0.378328,1.50248 0.141166,1.81037 -0.335758,0.43589 l -0.358291,-1.03258 -13.08186,19.41462 c -7.195024,10.67804 -13.2603,19.55893 -13.478394,19.73531 -0.580877,0.46978 -1.109207,1.26857 13.109938,-19.82102 7.174695,-10.64137 13.114303,-19.52882 13.199128,-19.74987 0.08483,-0.22105 0.01445,-0.92041 -0.156413,-1.55412 l -0.310642,-1.15221 -0.780833,0.92604 c -0.589135,0.6987 -0.746178,1.10467 -0.639678,1.65365 0.07763,0.40018 0.02506,0.7276 -0.116819,0.7276 -0.141883,0 -0.257969,-0.17859 -0.257969,-0.39688 0,-0.21828 -0.0893,-0.39005 -0.198437,-0.38171 -0.109141,0.008 -6.865938,8.04177 -15.015105,17.85209 -8.149166,9.81032 -14.924415,17.84022 -15.056112,17.84422 -0.131693,0.004 -0.05994,-0.20108 0.159449,-0.45574 1.415904,-1.64354 29.50523,-35.44298 29.644774,-35.67109 0.09524,-0.15569 0.02551,-0.7832 -0.154993,-1.39447 l -0.328157,-1.1114 -15.069982,14.5847 c -8.288488,8.02159 -16.184925,15.67379 -17.547635,17.00489 -1.36271,1.3311 -2.434272,2.27595 -2.38125,2.09966 0.05302,-0.17629 7.061563,-7.06149 15.574531,-15.30044 8.512969,-8.23896 15.939056,-15.43326 16.502412,-15.98735 l 1.02429,-1.00742 -0.368748,-1.10624 -0.368744,-1.10624 -18.745946,14.56984 c -10.31027,8.0134 -18.817871,14.56983 -18.905778,14.56983 -0.396682,0 2.25516,-2.10685 19.142723,-15.20863 9.895416,-7.67711 18.093814,-14.05234 18.218663,-14.16718 0.125317,-0.11528 0.08843,-0.62866 -0.08236,-1.14615 -0.290057,-0.87888 -0.350829,-0.91844 -0.974386,-0.63433 -0.574831,0.26191 -0.642782,0.42164 -0.500968,1.17757 0.193924,1.03371 -0.0314,1.15385 -0.390863,0.2084 l -0.25327,-0.66615 -2.319869,1.43181 c -19.731416,12.17816 -37.76018,23.15358 -37.863494,23.05027 -0.173636,-0.17364 -2.320995,1.17064 20.065502,-12.56124 10.986823,-6.73932 20.000632,-12.27043 20.030689,-12.29136 0.03006,-0.0209 -0.09062,-0.53006 -0.268169,-1.13138 -0.289295,-0.97978 -0.377393,-1.06346 -0.848397,-0.80581 -0.28907,0.15812 -0.585112,0.3572 -0.657873,0.4424 -0.07276,0.0852 -0.310885,0.1907 -0.529167,0.23445 -0.303601,0.0608 -41.220727,19.30473 -42.134895,19.81661 -0.109141,0.0611 -0.198438,0.007 -0.198438,-0.12086 0,-0.12759 9.525,-4.73799 21.166667,-10.24534 11.641666,-5.50735 21.166666,-10.06937 21.166666,-10.13784 0,-0.3754 -0.636907,-2.1699 -0.769485,-2.16804 -0.08611,0.001 -10.3364,3.5606 -22.778431,7.90975 -12.442031,4.34916 -22.671485,7.86051 -22.732118,7.80301 -0.06063,-0.0575 -0.05458,-0.1602 0.01344,-0.22823 0.06803,-0.068 10.059355,-3.59478 22.202952,-7.83723 12.143595,-4.24245 22.341115,-7.81295 22.661155,-7.93445 0.550503,-0.209 0.564169,-0.28211 0.25337,-1.35558 -0.211044,-0.72893 -0.502681,-1.16821 -0.81558,-1.22847 -0.392232,-0.0755 -0.457677,0.0272 -0.336122,0.5277 0.483833,1.99212 0.509625,2.20194 0.239022,1.94442 -0.152916,-0.14552 -0.387371,-0.6813 -0.521009,-1.19062 -0.17938,-0.68366 -0.375243,-0.91229 -0.748316,-0.87349 -0.277937,0.0289 -10.780945,2.49944 -23.34002,5.4901 -12.559075,2.99066 -22.911559,5.43756 -23.005521,5.43756 -1.312662,0 4.024023,-1.36297 23.350619,-5.96366 12.660312,-3.01378 23.069169,-5.52505 23.13079,-5.5806 0.206534,-0.18619 -0.651327,-2.57023 -0.962139,-2.67383 -0.227549,-0.0759 -0.237865,0.14792 -0.03987,0.86498 0.146896,0.53202 0.202208,1.03219 0.122909,1.11149 -0.163195,0.16319 -0.688147,-1.0952 -0.688147,-1.6496 0,-0.26014 -0.243691,-0.32575 -0.859895,-0.23154 -5.286418,0.80831 -46.655422,6.38313 -46.73995,6.29861 -0.06234,-0.0624 -0.06374,-0.16294 -0.0031,-0.22356 0.06063,-0.0606 10.706806,-1.56372 23.65816,-3.34023 12.951354,-1.77652 23.573814,-3.25103 23.605469,-3.27669 0.03165,-0.0257 -0.08146,-0.4996 -0.251365,-1.0532 -0.241655,-0.78738 -0.345893,-0.90114 -0.478727,-0.52246 -0.133564,0.38076 -0.24933,0.25841 -0.542382,-0.57325 l -0.372579,-1.05732 -21.695833,0.98078 c -11.932708,0.53943 -22.648333,0.97192 -23.8125,0.96109 l -2.116667,-0.0197 1.5875,-0.22511 c 0.873125,-0.12382 11.528955,-0.65268 23.679621,-1.17526 12.150667,-0.52258 22.122427,-0.98044 22.159466,-1.01748 0.03704,-0.037 -0.347459,-1.36684 -0.85444,-2.9551 -1.073513,-3.36309 -0.997757,-3.02005 -0.666938,-3.02005 0.145521,0 0.273984,0.20836 0.285472,0.46302 0.01148,0.25466 0.06951,0.34396 0.128926,0.19844 0.05942,-0.14552 -0.237977,-1.33589 -0.660881,-2.64525 -0.678694,-2.10131 -0.811329,-2.86638 -0.430988,-2.48604 0.06395,0.0639 0.857615,2.46505 1.763691,5.33576 0.906076,2.87072 1.746718,5.21949 1.868096,5.21949 0.121375,0 0.220684,-0.12857 0.220684,-0.2857 0,-0.15714 -1.019813,-3.56248 -2.266249,-7.56744 -1.246439,-4.00495 -2.201741,-7.34623 -2.122895,-7.42508 0.194699,-0.1947 0.215715,-0.13369 2.685394,7.79695 1.195755,3.83981 2.237549,7.04493 2.315093,7.12247 0.07754,0.0775 0.316148,0.1007 0.530231,0.0515 0.308858,-0.0711 -0.228643,-2.11115 -2.602849,-9.87912 -2.648599,-8.66575 -3.097218,-10.33523 -2.659669,-9.89768 0.06181,0.0618 1.460799,4.54505 3.108854,9.96274 2.992647,9.83781 2.997391,9.85036 3.724069,9.85359 0.400182,0.002 0.723022,-0.0265 0.717423,-0.0629 -0.0056,-0.0364 -1.654437,-5.54302 -3.664088,-12.23698 -2.009648,-6.69396 -3.605934,-12.22692 -3.547305,-12.29546 0.22729,-0.26574 0.58634,0.84605 4.047111,12.53173 l 3.571338,12.05903 0.859896,0.004 c 0.472943,0.002 0.857501,-0.0854 0.854575,-0.19453 -0.0029,-0.10914 -1.888495,-6.68735 -4.190156,-14.61823 -2.301661,-7.93089 -4.144735,-14.4694 -4.095721,-14.53004 0.04901,-0.0606 0.161203,-0.0382 0.249312,0.05 0.08811,0.0881 1.856541,6.03131 3.929851,13.20712 2.073309,7.1758 3.961458,13.70532 4.195887,14.51003 l 0.426233,1.46311 1.018354,-0.0971 1.018355,-0.0971 -4.711282,-16.95606 c -4.176339,-15.03079 -5.123336,-18.76046 -4.206742,-16.56794 0.144743,0.34623 2.312043,8.04115 4.816226,17.09982 l 4.553056,16.47031 H 71.7331 c 0.630746,0 1.146807,-0.0932 1.146807,-0.20711 0,-0.11392 -2.266913,-8.76154 -5.037584,-19.21694 -2.770672,-10.45539 -4.98719,-19.14305 -4.925597,-19.3059 0.169706,-0.44868 0.06469,-0.82534 5.440386,19.51263 2.764301,10.45824 5.061609,19.04969 5.105127,19.09211 0.04352,0.0424 0.626708,0.015 1.295975,-0.061 l 1.216845,-0.13816 -5.376323,-21.46748 c -2.956978,-11.80713 -5.379794,-21.49726 -5.384035,-21.53364 -0.0042,-0.0364 0.09692,-0.0662 0.224792,-0.0662 0.127876,0 2.657213,9.7036 5.620753,21.56355 l 5.38825,21.56354 h 1.423779 c 1.413806,0 1.422709,-0.005 1.271225,-0.72761 -0.08391,-0.40018 -2.577724,-11.1158 -5.54182,-23.8125 -2.964095,-12.69669 -5.299601,-23.08489 -5.190014,-23.08489 0.277718,0 -0.06722,-1.4178 5.793505,23.8125 2.923955,12.58755 5.37215,23.07711 5.440434,23.31012 0.09989,0.34088 0.394565,0.39887 1.507871,0.29674 0.761047,-0.0698 1.416256,-0.15409 1.456018,-0.18728 0.03976,-0.0332 -2.371254,-11.47669 -5.357813,-25.42998 -2.986558,-13.95329 -5.430107,-25.59881 -5.430107,-25.87892 0,-0.28011 0.06614,-0.44315 0.146979,-0.36231 0.08084,0.0808 2.62011,11.70854 5.642824,25.83935 3.022711,14.1308 5.562447,25.75897 5.643854,25.84038 0.08141,0.0814 0.794816,0.1119 1.585351,0.0678 l 1.437339,-0.0803 -5.346624,-27.78125 c -2.940642,-15.27969 -5.30035,-27.83086 -5.243798,-27.89149 0.05656,-0.0606 0.155832,-0.0572 0.22062,0.008 0.103571,0.10355 10.730122,54.93338 10.730122,55.36421 0,0.0928 0.714375,0.16867 1.5875,0.16867 0.926806,0 1.5875,-0.11499 1.5875,-0.2763 0,-0.15196 -2.208009,-13.3816 -4.90669,-29.3992 -4.297805,-25.50898 -5.150829,-31.0238 -4.536192,-29.32658 0.07905,0.21828 2.297486,13.25562 4.929857,28.97187 2.632374,15.71625 4.853207,28.90242 4.935186,29.30261 0.126889,0.61941 0.280937,0.7276 1.036053,0.7276 0.6902,0 1.01677,-0.18224 1.471879,-0.82138 l 0.584878,-0.82139 -4.299858,-30.41471 c -3.707619,-26.22554 -4.476755,-32.25423 -3.872799,-30.35591 0.0645,0.20273 1.998472,13.73336 4.29772,30.06808 2.299245,16.33471 4.267102,29.69948 4.373018,29.69948 0.105912,0 0.72998,-0.9859 1.386813,-2.19088 l 1.194247,-2.19087 -3.153166,-28.30235 c -1.734244,-15.5663 -3.227713,-28.83814 -3.318823,-29.49299 -0.115834,-0.83253 -0.08171,-1.10924 0.113456,-0.92004 0.205008,0.19873 6.613025,55.74178 6.649398,57.63525 0.0072,0.37352 0.7259,-1.19595 1.947664,-4.25308 l 0.928605,-2.32358 -2.096627,-26.70674 c -1.153144,-14.68871 -2.039739,-26.76363 -1.970206,-26.83316 0.06953,-0.0695 0.172034,-0.0768 0.227785,-0.0162 0.0856,0.0931 4.11449,50.95301 4.158625,52.49775 0.01085,0.37984 0.05728,0.41717 0.164516,0.13229 0.0822,-0.21828 0.25469,-0.68128 0.38339,-1.02889 0.43827,-1.18373 0.52134,-0.35152 0.1049,1.05081 -0.22819,0.76837 -0.40379,1.94098 -0.39024,2.60579 0.0185,0.90825 0.18904,0.35366 0.68594,-2.23084 0.36372,-1.89177 0.70983,-3.48919 0.76912,-3.54983 0.37247,-0.38089 0.27158,0.60948 -0.43071,4.22812 -0.70153,3.61472 -0.77259,4.41186 -0.61819,6.93454 0.0959,1.56768 0.21285,2.81193 0.25978,2.765 0.0469,-0.0469 0.52336,-3.59177 1.05874,-7.87741 0.53537,-4.28565 1.06472,-7.85218 1.17632,-7.92564 0.11159,-0.0734 -0.25981,-11.25848 -0.82535,-24.85563 -0.56554,-13.59714 -0.97181,-24.77853 -0.90281,-24.84752 0.069,-0.069 0.1712,-0.0758 0.22714,-0.0152 0.0559,0.0606 0.59502,12.25462 1.19798,27.09775 0.60296,14.84312 1.12664,27.28515 1.16374,27.64895 0.0371,0.36381 0.16504,-0.97565 0.28432,-2.97656 0.11929,-2.00091 0.32375,-3.63802 0.45436,-3.63802 0.29866,0 0.30677,-0.29168 -0.16185,5.82083 -0.25834,3.36961 -0.34373,6.76558 -0.24615,9.78959 0.18057,5.59593 0.21509,5.81465 0.89008,5.63814 0.7254,-0.1897 0.7665,-0.71557 0.95757,-12.25273 0.103,-6.21919 0.27197,-10.2895 0.43386,-10.45104 0.25757,-0.25702 0.20094,4.4805 -0.21268,17.79323 -0.14199,4.57016 -0.11452,5.09323 0.26754,5.09323 0.23418,0 0.42578,0.11906 0.42578,0.26458 0,0.14552 -0.1786,0.26459 -0.39688,0.26459 -0.21828,0 -0.39687,0.1877 -0.39687,0.41712 0,3.52896 -1.64159,71.16266 -1.72937,71.25044 -0.0675,0.0675 -0.16868,0.0731 -0.22486,0.0125 -0.0562,-0.0606 0.13274,-9.99243 0.41981,-22.07066 0.49515,-20.83306 0.49997,-22.53767 0.0939,-33.2052 -0.57169,-15.0184 -0.66553,-16.40417 -1.11085,-16.40417 -0.19748,0 -0.36055,0.20836 -0.36239,0.46302 -0.002,0.25466 -0.23373,3.57444 -0.51532,7.37727 -0.47092,6.35964 -0.48154,7.27224 -0.13245,11.37709 0.20875,2.45455 0.37088,4.99861 0.36029,5.65345 -0.036,2.22631 -0.4338,0.0102 -0.64004,-3.56555 -0.10585,-1.83525 -0.22497,-3.30184 -0.2647,-3.25907 -0.0397,0.0428 -0.93358,12.28165 -1.98633,27.19754 -1.052747,14.91588 -1.958117,27.1694 -2.01193,27.23003 -0.05382,0.0606 -0.158573,0.0495 -0.232797,-0.0247 -0.07422,-0.0742 0.784588,-13.04211 1.908469,-28.81753 l 2.043418,-28.68258 -0.49849,-6.86605 c -0.28737,-3.95813 -0.58397,-6.6475 -0.70033,-6.35 -0.11101,0.28383 -0.50326,3.0759 -0.87166,6.2046 l -0.669813,5.68854 0.734811,6.4313 c 0.404142,3.53721 0.653022,6.48184 0.553062,6.54362 -0.22858,0.14128 -0.36723,-0.78078 -0.945288,-6.28649 -0.255471,-2.43324 -0.522838,-4.36572 -0.594149,-4.29441 -0.260268,0.26026 -1.266552,9.27759 -1.146741,10.27594 0.06791,0.56589 0.01754,0.96288 -0.111985,0.88282 -0.175635,-0.10855 -5.975199,44.3098 -5.925534,45.38315 0.005,0.10915 -0.109881,0.19844 -0.255402,0.19844 -0.145521,0 -0.25975,-0.0893 -0.253841,-0.19844 z m 7.016572,-63.43385 c -0.25632,-2.32833 -0.49141,-4.26078 -0.522427,-4.29433 -0.03102,-0.0335 -0.431565,1.9649 -0.890112,4.44099 l -0.833723,4.50198 0.710901,4.95173 0.710901,4.95171 0.645247,-5.15937 0.645248,-5.15938 z m -3.436741,8.58717 c 0.674491,-3.42703 0.688104,-3.67133 0.364193,-6.53665 -0.185065,-1.63711 -0.406667,-2.97656 -0.492448,-2.97656 -0.08578,0 -0.526468,1.45852 -0.979305,3.24115 l -0.823341,3.24114 0.545537,3.36508 c 0.300045,1.85079 0.576844,3.33377 0.615111,3.29551 0.03826,-0.0383 0.384879,-1.67162 0.770253,-3.62967 z m -2.558132,-3.2955 c 0.0016,-0.58209 -0.142584,-1.75712 -0.320276,-2.61119 l -0.323077,-1.55285 -0.905833,2.80269 -0.905833,2.80267 0.487937,2.58663 0.487939,2.58663 0.738169,-2.77812 c 0.405993,-1.52797 0.739431,-3.25438 0.740974,-3.83646 z m -9.61257,4.29208 c 0.580877,-1.11424 0.625478,-1.38881 0.376053,-2.3151 -0.155644,-0.57802 -0.325517,-1.05094 -0.3775,-1.05094 -0.05198,0 -0.476131,0.5947 -0.942557,1.32156 -0.827167,1.28903 -0.840057,1.35487 -0.523608,2.67398 0.355619,1.48238 0.369814,1.47629 1.467612,-0.6295 z m 2.861371,-0.12719 c 0.590717,-1.3522 0.690632,-1.87451 0.544719,-2.84753 -0.09828,-0.65537 -0.268716,-1.24722 -0.378751,-1.31522 -0.110037,-0.068 -0.586171,0.60076 -1.058082,1.48615 -0.846788,1.58874 -0.853646,1.63039 -0.524068,3.18344 0.183674,0.8655 0.414684,1.47811 0.513363,1.36137 0.09868,-0.11675 0.504947,-0.95744 0.902819,-1.86821 z m 3.54288,-4.27811 c -0.164325,-0.88362 -0.367054,-1.60502 -0.450512,-1.60312 -0.08346,0.002 -0.540916,0.92993 -1.016582,2.0623 l -0.864843,2.05884 0.44297,1.96153 0.442968,1.96153 0.872387,-2.41725 c 0.83007,-2.30001 0.857893,-2.49519 0.573612,-4.02383 z m -9.467596,4.87834 c 0.764934,-1.11179 0.798459,-1.25822 0.522618,-2.28261 -0.162113,-0.60204 -0.376301,-0.99017 -0.475978,-0.86252 -0.09967,0.12765 -0.51372,0.60205 -0.920099,1.05422 -0.70698,0.78665 -0.725522,0.87515 -0.429559,2.05052 0.170122,0.67562 0.348988,1.22839 0.397481,1.22839 0.0485,0 0.455986,-0.5346 0.905537,-1.188 z m -2.267511,-1.987 c -0.08752,-0.50932 -0.211855,-0.97946 -0.276302,-1.04476 -0.06444,-0.0653 -0.479991,0.24409 -0.923433,0.68753 -0.77965,0.77965 -0.795983,0.84442 -0.494916,1.96249 l 0.311338,1.15622 0.771218,-0.91771 c 0.639921,-0.76149 0.744127,-1.07538 0.612095,-1.84377 z m -2.66713,-0.24223 c -0.299016,-1.26181 -0.443254,-1.34 -1.226582,-0.66493 -0.706694,0.60902 -0.725048,0.68373 -0.418957,1.70537 l 0.320114,1.06845 0.743733,-0.71254 c 0.575816,-0.55167 0.70715,-0.86694 0.581692,-1.39635 z m 31.097967,-12.52391 c 0.031,-4.26613 0.0125,-4.43177 -0.49694,-4.43177 -0.64414,0 -0.62852,-0.75055 -0.20366,9.78958 l 0.33596,8.33437 0.1662,-4.6302 c 0.0914,-2.54662 0.18071,-6.62451 0.19844,-9.06198 z m -26.16557,10.58722 c -0.0081,-1.20253 -0.375663,-1.30776 -1.286264,-0.36826 -0.773618,0.79818 -0.84365,0.99528 -0.674325,1.89787 l 0.188952,1.0072 0.887844,-0.96881 c 0.488315,-0.53284 0.886021,-1.23845 0.883793,-1.568 z m 2.795535,-1.09027 c -0.09392,-0.45751 -0.237382,-1.21634 -0.318805,-1.68626 l -0.148042,-0.85442 -1.146696,0.93963 c -0.654275,0.53613 -1.096595,1.10188 -1.030029,1.31744 0.40354,1.30675 0.374672,1.30011 1.215607,0.27991 0.447763,-0.54322 0.874081,-0.9277 0.94737,-0.85441 0.07329,0.0733 -0.283657,0.62031 -0.793213,1.21562 -0.875392,1.0227 -0.911664,1.14067 -0.657987,2.14008 l 0.268476,1.05772 0.91704,-1.36173 c 0.744972,-1.10622 0.885,-1.51781 0.746279,-2.19358 z m -5.613252,0.90841 c -0.227066,-0.94942 -0.21368,-0.94759 -1.23402,-0.16934 -0.871675,0.66486 -0.901972,0.74253 -0.632343,1.62106 l 0.283197,0.92274 0.873127,-0.84626 c 0.694169,-0.67282 0.8397,-0.98604 0.710039,-1.5282 z m 7.845041,0.25166 c 0.793359,-1.57163 0.970412,-2.50111 0.590291,-3.09887 -0.128143,-0.20151 -0.54905,0.22718 -1.18033,1.20215 -0.90391,1.39602 -0.959842,1.59255 -0.710388,2.49601 0.148929,0.53937 0.322998,0.98067 0.386823,0.98067 0.06383,0 0.474949,-0.71098 0.913604,-1.57996 z m -11.137384,0.71866 c 0.626388,-0.52707 0.680638,-0.69615 0.464817,-1.44867 l -0.244337,-0.85195 -0.757351,0.44738 c -0.769467,0.45453 -0.876078,0.78934 -0.590587,1.85464 0.197389,0.73656 0.25052,0.73649 1.127458,-10e-4 z m 14.924527,-5.10336 c -0.08162,-0.50298 -0.222123,-0.91249 -0.312222,-0.91002 -0.0901,0.002 -0.596003,0.80614 -1.124228,1.78594 -0.922856,1.71179 -0.949433,1.83491 -0.679764,3.14898 l 0.280643,1.36753 0.991989,-2.23896 c 0.758378,-1.7117 0.957038,-2.45433 0.843582,-3.15347 z m -17.437905,4.03386 c 0.371274,-0.27148 0.431041,-0.54822 0.285708,-1.32292 -0.209476,-1.1166 -0.149368,-1.07767 -1.038479,-0.67256 -0.769279,0.3505 -0.776375,0.37837 -0.383439,1.50555 0.323574,0.92821 0.457723,0.98605 1.13621,0.48993 z m 7.391755,-0.44634 c 0.693679,-0.60906 0.870246,-0.94184 0.77211,-1.45521 -0.158872,-0.83108 -0.253588,-0.82453 -1.361319,0.0942 -0.747469,0.61991 -0.869196,0.86386 -0.722563,1.44809 0.09699,0.38642 0.229457,0.70259 0.294383,0.70259 0.06492,0 0.522748,-0.35534 1.017389,-0.78964 z m -2.573158,-0.31794 c 0.376436,-0.33786 0.516396,-0.7107 0.432176,-1.15126 -0.150696,-0.78833 -0.172942,-0.79023 -1.275003,-0.10912 -0.52006,0.32141 -0.829276,0.69877 -0.758833,0.92604 0.06539,0.21097 0.177575,0.56972 0.249309,0.79723 0.141136,0.44763 0.459166,0.33877 1.352351,-0.46289 z m 15.540451,-5.89734 -0.177102,-1.32946 -1.038185,2.24896 c -0.932477,2.01996 -1.021662,2.39404 -0.875917,3.67384 0.08925,0.78368 0.240176,1.55093 0.335397,1.705 0.09522,0.15407 0.569079,-0.9009 1.053018,-2.34438 0.73103,-2.18049 0.849929,-2.84943 0.702789,-3.95396 z m -17.920036,4.53748 c -0.08487,-0.3164 -0.155925,-0.72217 -0.157912,-0.90172 -0.0026,-0.23773 -0.253518,-0.20728 -0.923171,0.11206 -0.78986,0.37666 -0.896654,0.53466 -0.757168,1.1202 0.25265,1.06059 0.330808,1.10405 1.188193,0.66067 0.630523,-0.32605 0.771009,-0.54026 0.650058,-0.99121 z m 10.732936,-0.24454 c 0.864296,-1.31179 0.899499,-1.45226 0.632772,-2.52511 l -0.28244,-1.13604 -1.160314,1.18257 c -0.837538,0.8536 -1.110091,1.31346 -0.979768,1.65307 0.153181,0.39918 0.337373,0.29186 1.215178,-0.70799 0.569048,-0.64816 1.034635,-1.05942 1.034635,-0.9139 0,0.14552 -0.452845,0.78011 -1.006324,1.4102 -0.737751,0.83986 -0.973654,1.3165 -0.883915,1.78593 0.06732,0.35218 0.21073,0.64033 0.318686,0.64033 0.107952,0 0.608123,-0.62508 1.11149,-1.38906 z m -15.267329,0.60703 c 0.194845,-0.31526 -0.457977,-2.12868 -0.764751,-2.12434 -0.749861,0.0106 -0.9094,0.39353 -0.618324,1.48406 0.229696,0.86055 0.390443,1.0583 0.777899,0.95698 0.268605,-0.0702 0.540936,-0.21276 0.605176,-0.3167 z m 24.717016,-2.71041 c 0.786664,-2.96062 0.972669,-4.91369 0.595712,-6.25507 -0.137988,-0.49103 -0.383265,-0.0188 -1.183508,2.27857 l -1.009444,2.89797 0.329393,2.15174 c 0.181166,1.18345 0.355479,2.12262 0.387358,2.08704 0.03188,-0.0356 0.428101,-1.45769 0.880489,-3.16025 z m -14.829883,1.48258 c 0.04967,-0.0368 0.01217,-0.31309 -0.08331,-0.61395 -0.161165,-0.50779 -0.224573,-0.5194 -0.884055,-0.16191 -1.331957,0.72202 -1.410073,0.82169 -1.224256,1.56204 l 0.178324,0.7105 0.961499,-0.71488 c 0.528825,-0.39318 1.002135,-0.74499 1.051803,-0.7818 z m 2.952403,-1.21884 c 0,-0.65997 -0.241683,-0.58846 -1.419725,0.42007 -0.828262,0.70908 -0.986787,0.98931 -0.833276,1.47298 0.18519,0.58347 0.213463,0.57398 1.22129,-0.41014 0.567442,-0.55409 1.031711,-1.2214 1.031711,-1.48291 z m -11.518024,1.86158 c 0.512551,-0.23353 0.639427,-0.44309 0.520623,-0.85989 -0.0864,-0.30312 -0.212624,-0.75138 -0.280505,-0.99615 -0.101683,-0.36666 -0.255453,-0.399 -0.873165,-0.18367 -0.721736,0.2516 -0.739852,0.30036 -0.484862,1.30493 0.145685,0.57396 0.304331,1.04357 0.352544,1.04357 0.04821,0 0.392625,-0.13896 0.765365,-0.30879 z m 4.889807,-0.15423 c 0.678471,-0.38171 0.794618,-0.57909 0.661392,-1.12394 -0.217154,-0.8881 -0.186383,-0.87958 -1.284491,-0.35592 -0.615011,0.29327 -0.91577,0.59411 -0.826508,0.82673 0.07718,0.20112 0.140324,0.53453 0.140324,0.74091 0,0.49426 0.311904,0.47334 1.309283,-0.0878 z m 12.00037,-1.65329 c 0.702003,-1.28901 0.936649,-1.97305 0.77556,-2.2609 -0.353123,-0.63099 -2.356236,2.40382 -2.234263,3.38502 0.04975,0.40018 0.171836,0.72681 0.271312,0.72583 0.09947,-0.001 0.633801,-0.83345 1.187391,-1.84995 z m 9.71318,-3.29747 c 0.869418,-4.71471 0.879242,-6.22789 0.04044,-6.22789 -0.366363,0 -0.602316,0.58228 -1.152567,2.84427 -0.670248,2.75528 -0.680474,2.91877 -0.326806,5.22552 0.200801,1.30969 0.377063,2.55985 0.391695,2.77813 0.04488,0.66954 0.189357,0.0322 1.047242,-4.62003 z m -23.816583,3.52991 c 0,-0.10909 -0.114382,-0.4992 -0.254179,-0.8669 -0.232389,-0.61123 -0.323123,-0.64451 -1.058334,-0.38821 -0.874876,0.30498 -0.879374,0.31548 -0.64245,1.5001 l 0.161702,0.80851 0.896631,-0.42757 c 0.493146,-0.23516 0.89663,-0.51683 0.89663,-0.62593 z m 4.350502,0.006 c 0.654389,-0.38609 0.941165,-0.74493 0.941165,-1.17768 v -0.62239 l -1.124479,0.50345 c -0.618464,0.27689 -1.112573,0.62826 -1.098021,0.78081 0.123648,1.29624 0.02556,1.25675 1.281335,0.51582 z m 4.116165,-1.47392 c 0,-0.47394 -0.153493,-0.44832 -1.353039,0.22587 -0.744292,0.41831 -1.028211,0.75162 -1.028211,1.20706 0,0.62906 2.36e-4,0.62901 1.190625,-0.22586 0.654844,-0.47027 1.190625,-1.01346 1.190625,-1.20707 z m 21.406426,-7.78068 0.0248,-1.47552 -0.79375,0.11649 c -0.93003,0.1365 -0.89627,-0.33196 -0.39494,5.4804 0.21337,2.47385 0.40629,4.73604 0.42869,5.02708 0.0564,0.73317 0.70464,-7.33297 0.73518,-9.14845 z m -34.781669,8.58898 c -0.0076,-0.12886 -0.10668,-0.66238 -0.220218,-1.18561 -0.181187,-0.83498 -0.287324,-0.93587 -0.86782,-0.8249 -0.527331,0.1008 -0.62888,0.23999 -0.501015,0.68675 0.0882,0.30817 0.230177,0.87904 0.315497,1.26859 0.129815,0.5927 0.247507,0.6741 0.721236,0.49886 0.311356,-0.11518 0.559903,-0.31484 0.55232,-0.44369 z m 6.369442,0.23891 c 0.81897,-0.39054 0.926472,-0.54521 0.781219,-1.12394 -0.217541,-0.86675 -0.13127,-0.83433 -1.281171,-0.48142 -0.820449,0.2518 -0.970663,0.40224 -0.850053,0.8513 0.08057,0.3 0.148124,0.69428 0.150111,0.87618 0.0046,0.42514 0.0652,0.41897 1.199894,-0.12212 z m 25.779077,-9.28735 c 0.0105,-0.53119 -0.0995,-0.60112 -0.832512,-0.52916 -1.218462,0.1196 -1.418424,1.11588 -1.025621,5.10999 0.565804,5.75317 0.592254,5.76717 1.249739,0.66146 0.32794,-2.54662 0.601714,-4.90565 0.608394,-5.24229 z m -10.207679,7.11393 c 1.000948,-2.32594 1.114669,-2.80279 0.725752,-3.04315 -0.346128,-0.21392 -2.147599,3.37204 -2.147599,4.27496 0,0.6668 0.232873,1.27452 0.407612,1.06373 0.03016,-0.0364 0.486563,-1.06937 1.014235,-2.29554 z m -6.585963,1.04363 c 0.565779,-0.57941 0.967756,-1.11441 0.893281,-1.18889 -0.210947,-0.21094 -2.343748,1.51997 -2.343748,1.90211 0,0.57202 0.375991,0.38714 1.450467,-0.71322 z m 4.016544,-2.6314 c -0.112924,-1.03151 -0.278424,-1.19415 -0.699204,-0.68714 -0.184076,0.2218 -0.23641,0.40327 -0.1163,0.40327 0.120113,0 -0.244525,0.47406 -0.810308,1.05347 -0.565779,0.57942 -0.942064,1.1401 -0.836189,1.24598 0.105876,0.10588 0.658612,-0.33842 1.228299,-0.98733 1.383168,-1.57551 1.354905,-1.09729 -0.03238,0.54795 -0.727405,0.86266 -1.034092,1.44117 -0.920686,1.73671 0.289943,0.75558 2.29897,-2.28805 2.186773,-3.31291 z m -0.57222,-0.54846 c 0.08994,-0.14552 0.223052,-0.26458 0.295813,-0.26458 0.07276,0 0.05871,0.11906 -0.03123,0.26458 -0.08994,0.14552 -0.223052,0.26459 -0.295812,0.26459 -0.07276,0 -0.05871,-0.11907 0.03123,-0.26459 z m -17.103489,3.73317 c 0.24761,-0.15689 0.302868,-0.4831 0.178083,-1.05125 -0.21663,-0.98631 -0.495411,-1.19545 -1.318231,-0.98893 -0.580223,0.14562 -0.602004,0.22134 -0.349652,1.21553 0.270933,1.0674 0.71701,1.31431 1.4898,0.82465 z M 80.02933,181.1237 c 1.04443,-0.69117 1.205347,-0.91458 0.887608,-1.23232 -0.126629,-0.12663 -2.017426,0.6525 -2.420863,0.99755 -0.100547,0.086 0.236143,0.93139 0.370938,0.93139 0.06031,0 0.583353,-0.31348 1.162317,-0.69662 z m -7.801925,-0.56607 c -0.07893,-0.20568 -0.212622,-0.64936 -0.2971,-0.98595 -0.136176,-0.54256 -0.245155,-0.58571 -0.960848,-0.38045 -1.081849,0.31027 -1.097896,0.34004 -0.750544,1.39253 0.296657,0.89887 0.319027,0.91039 1.227082,0.6317 0.625899,-0.19209 0.878523,-0.40476 0.78141,-0.65783 z m 4.744567,0.55223 c 0.969772,-0.46245 1.037,-0.568 0.783143,-1.22954 -0.134081,-0.34941 -0.284525,-0.35059 -1.284007,-0.01 -0.988754,0.3369 -1.116397,0.46806 -1.007904,1.0356 0.147256,0.77032 0.282704,0.78864 1.508768,0.20397 z m 6.305031,-0.95334 c 0.552416,-0.42968 0.948714,-0.83692 0.880668,-0.90496 -0.233338,-0.23334 -2.546514,1.29588 -2.546514,1.68347 0,0.44562 0.230688,0.33781 1.665846,-0.77851 z m -9.155861,0.17225 c 0.576569,-0.14471 0.641929,-0.27128 0.50183,-0.97177 -0.08859,-0.44296 -0.196297,-0.84061 -0.239345,-0.88365 -0.203017,-0.20302 -2.03245,0.49992 -2.029275,0.77972 0.0098,0.86234 0.354068,1.52981 0.717198,1.39046 0.212678,-0.0816 0.684993,-0.22326 1.049592,-0.31476 z m 6.696265,-1.3393 c 0,-0.42371 -0.310467,-0.43092 -1.622948,-0.0377 -0.946949,0.28372 -1.330722,0.88501 -0.86323,1.3525 0.25106,0.25106 2.486178,-0.93098 2.486178,-1.31481 z m -15.345833,0.96364 c 0,-0.15384 -0.133196,-0.80869 -0.295992,-1.45521 -0.218943,-0.86949 -0.425572,-1.1755 -0.79375,-1.1755 -0.604872,0 -0.609706,0.10636 -0.07601,1.67266 0.234114,0.68709 0.587251,1.23776 0.79375,1.23776 0.204602,0 0.372004,-0.12587 0.372004,-0.27971 z m 17.808464,-0.845 c 0.408559,-0.28628 0.690846,-0.57251 0.627303,-0.63605 -0.224033,-0.22403 -2.560767,1.07713 -2.560767,1.42592 0,0.39595 0.578345,0.15968 1.933464,-0.78987 z m 10.501953,-4.89574 c 0,-0.70327 -0.661141,-0.17078 -1.250204,1.00692 -0.938908,1.87714 -1.217062,3.01781 -1.00665,4.12811 0.191619,1.01115 0.19952,0.99907 1.22486,-1.87183 0.567597,-1.58926 1.031994,-3.05769 1.031994,-3.2632 z m -26.535978,5.38172 c 0.03006,-0.0241 -0.100333,-0.56872 -0.289753,-1.21024 -0.359503,-1.21757 -0.69142,-1.51183 -1.293016,-1.14632 -0.299784,0.18214 -0.298371,0.42179 0.0088,1.48582 0.323247,1.11984 0.433835,1.24789 0.942779,1.09161 0.317117,-0.0974 0.601168,-0.19677 0.631225,-0.22087 z m 22.279253,-1.66177 c 0.586753,-1.11976 1.020114,-2.08264 0.963025,-2.13973 -0.215353,-0.21535 -2.4794,3.46301 -2.345796,3.81118 0.07693,0.20046 0.17948,0.36447 0.227901,0.36447 0.04842,0 0.568114,-0.91617 1.15487,-2.03592 z m -12.948018,1.47753 c 0.836253,-0.25054 0.962819,-0.38687 0.859748,-0.92604 -0.128797,-0.67375 -0.312894,-0.72702 -1.613599,-0.46688 -0.626512,0.12531 -0.826823,0.30692 -0.826823,0.74966 0,0.9918 0.176977,1.06382 1.580674,0.64326 z m 9.443633,-1.15501 c 0,-0.3172 -0.125672,-0.30685 -0.749655,0.0617 -0.412308,0.24356 -0.749652,0.55468 -0.749652,0.69138 0,0.13669 0.217734,0.0515 0.483854,-0.18934 0.781773,-0.70749 0.987613,-0.50176 0.28987,0.28972 l -0.641432,0.7276 0.683506,-0.6 c 0.37593,-0.33001 0.683509,-0.7715 0.683509,-0.9811 z M 68.81064,179.2813 c 0.528576,-0.14187 0.541779,-0.21417 0.228817,-1.25316 -0.291799,-0.96874 -0.420032,-1.09603 -1.05613,-1.0484 -0.3982,0.0298 -0.762979,0.0932 -0.810617,0.14083 -0.04764,0.0476 0.04085,0.58879 0.196641,1.20256 0.286911,1.13034 0.434417,1.2284 1.441289,0.95817 z m 14.910948,-1.60384 c 0.0044,-0.21618 -0.383328,-0.18183 -1.316681,0.11664 -0.920612,0.29441 -1.322916,0.56349 -1.322916,0.88486 0,0.42372 0.108577,0.4141 1.31668,-0.11665 0.724175,-0.31815 1.319488,-0.71633 1.322917,-0.88485 z m -12.450503,0.98664 c 0.632097,-0.40008 0.0343,-1.98614 -0.780849,-2.0717 -1.127596,-0.11834 -1.423099,0.26069 -1.060286,1.36002 0.32548,0.98622 0.997172,1.24586 1.841135,0.71168 z m 8.043981,-0.17594 c 1.284915,-0.43782 1.375984,-0.53818 1.010812,-1.11392 -0.32489,-0.51223 -2.774194,0.12386 -2.566001,0.6664 0.08091,0.21086 0.147114,0.4927 0.147114,0.62632 0,0.31074 -0.04567,0.31654 1.408075,-0.1788 z m -5.138814,-0.52337 c 0.169979,-0.16749 -0.350639,-1.74256 -0.56874,-1.72065 -0.109141,0.011 -0.624616,0.0199 -1.145503,0.0199 -0.929923,0 -0.943727,0.0156 -0.762635,0.8599 0.101436,0.47294 0.243594,0.95988 0.315907,1.08209 0.120062,0.20291 1.913387,0.003 2.160971,-0.24127 z m 11.25624,-0.13936 c 1.271961,-0.75047 1.1947,-0.90771 -0.117168,-0.23844 -0.582083,0.29695 -1.058333,0.59703 -1.058333,0.66683 0,0.21869 0.206065,0.1436 1.175501,-0.42839 z m 3.459313,-0.56917 c 0.524849,-0.80146 0.585785,-0.99131 0.212125,-0.66088 -0.28834,0.25497 -0.586925,0.40093 -0.66352,0.32433 -0.07659,-0.0766 -0.305056,0.072 -0.507695,0.33015 -0.335018,0.42684 -0.326438,0.43648 0.09459,0.10629 0.275836,-0.21632 0.463021,-0.24938 0.463021,-0.0818 0,0.15475 -0.119062,0.35495 -0.264583,0.44489 -0.249304,0.15408 -0.377749,0.66146 -0.167452,0.66146 0.05342,0 0.428506,-0.50602 0.833516,-1.12448 z m -12.502618,0.21709 c 0.64016,-0.14255 0.709618,-0.25263 0.558094,-0.88448 -0.22942,-0.95668 -0.1479,-0.91868 -1.527175,-0.71184 -1.146725,0.17196 -1.203439,0.21966 -1.046001,0.87974 0.238564,1.00022 0.34884,1.13072 0.843174,0.99786 0.242414,-0.0651 0.769773,-0.19173 1.171908,-0.28128 z m 6.252763,-0.17396 c 1.843638,-0.55236 1.283854,-1.22604 -0.620344,-0.74655 -0.923772,0.2326 -1.204199,0.42572 -1.204199,0.82928 0,0.34148 0.129593,0.47633 0.369335,0.38434 0.203134,-0.0779 0.857978,-0.28813 1.455208,-0.46707 z m 2.937957,-0.26889 c 0.509323,-0.29387 0.70662,-0.46697 0.438441,-0.38466 -0.268181,0.0823 -0.774197,0.22158 -1.124479,0.3095 -0.350284,0.0879 -0.636878,0.266 -0.636878,0.39575 0,0.34623 0.288292,0.27637 1.322916,-0.32059 z m 9.948183,-2.79798 c 0.176125,-0.93883 -0.0393,-1.08561 -0.788906,-0.53749 -0.402095,0.29402 -0.439173,0.57848 -0.267284,2.05052 l 0.199575,1.70914 0.345869,-1.17165 c 0.190227,-0.64441 0.420063,-1.56714 0.510746,-2.05052 z m -32.743989,1.2378 c -0.294857,-0.87313 -0.64424,-1.5875 -0.776399,-1.5875 -0.324665,0 -0.309435,0.13103 0.204899,1.76268 0.244856,0.77678 0.594238,1.41232 0.776401,1.41232 0.242453,0 0.187547,-0.4254 -0.204901,-1.5875 z m 1.709835,1.38906 c 0.06156,-0.10914 -0.06573,-0.82351 -0.282855,-1.5875 -0.295688,-1.0404 -0.519097,-1.38906 -0.890059,-1.38906 -0.602993,0 -0.603221,0.008 -0.05009,1.76268 0.397989,1.26257 0.909299,1.77007 1.223002,1.21388 z m 15.306048,-0.22372 c 0.123021,-0.076 0.223673,-0.43027 0.223673,-0.78721 0,-0.6118 -0.06439,-0.63995 -1.124479,-0.49149 -1.679143,0.23516 -1.733047,0.27076 -1.58474,1.04657 0.127524,0.6671 0.200501,0.7 1.19883,0.54036 0.584673,-0.0935 1.163695,-0.2322 1.286716,-0.30823 z m 12.103894,-0.97232 c 0.295015,-0.68825 0.419809,-1.25135 0.27732,-1.25135 -0.432387,0 -1.258565,1.59331 -1.113607,2.14762 0.168709,0.64515 0.181372,0.63158 0.836287,-0.89627 z m -25.849765,-0.32531 c -0.363305,-1.30528 -0.478751,-1.45521 -1.120521,-1.45521 h -0.715484 l 0.428297,1.45471 c 0.377782,1.28315 0.509934,1.45477 1.120518,1.45521 l 0.692227,5.3e-4 -0.405037,-1.45521 z m 20.029439,0.75858 c 1.272398,-0.52089 0.882338,-0.6926 -0.728614,-0.32075 -0.839232,0.19372 -1.362531,0.45633 -1.362531,0.68377 0,0.39525 0.414788,0.32325 2.091145,-0.36302 z m -17.701561,0.15233 c 0,-0.15384 -0.133197,-0.80868 -0.295992,-1.45521 -0.234953,-0.93307 -0.41229,-1.17466 -0.859896,-1.17144 -1.018328,0.007 -1.152827,0.29803 -0.763177,1.64959 0.326466,1.1324 0.439351,1.25677 1.140692,1.25677 0.428107,0 0.778373,-0.12587 0.778373,-0.27971 z m 14.74606,-0.37878 c 0.183054,-0.0647 0.252335,-0.30789 0.157834,-0.55416 -0.137673,-0.35877 -0.409188,-0.41042 -1.48663,-0.28282 -1.550294,0.18361 -1.531056,0.17106 -1.346028,0.8786 0.130276,0.49818 0.249036,0.52792 1.246275,0.31212 0.606255,-0.13119 1.2491,-0.29037 1.428549,-0.35374 z m 3.774773,0.5262 c 0,-0.0728 -0.05953,-0.13229 -0.132292,-0.13229 -0.07276,0 -0.132291,0.0595 -0.132291,0.13229 0,0.0728 0.05953,0.13229 0.132291,0.13229 0.07276,0 0.132292,-0.0595 0.132292,-0.13229 z M 70.39814,176.10594 c 0.526989,-0.14144 0.541324,-0.2173 0.236852,-1.25316 -0.307877,-1.04745 -0.380249,-1.10674 -1.446633,-1.18523 -0.6174,-0.0454 -1.063469,0.0141 -0.991267,0.13229 0.0722,0.1182 0.266994,0.72093 0.432869,1.33939 0.308668,1.15086 0.563303,1.29008 1.768179,0.96671 z m 3.195862,-0.4829 c 0.02895,-0.0208 -0.07461,-0.53917 -0.230129,-1.15186 l -0.282763,-1.11401 -1.09279,0.16717 c -0.601033,0.0919 -1.116473,0.18421 -1.145424,0.20504 -0.02895,0.0208 0.07461,0.53917 0.23013,1.15186 l 0.282762,1.11401 1.09279,-0.16717 c 0.601033,-0.0919 1.116473,-0.18421 1.145424,-0.20504 z m 11.837747,-0.29985 c 0.918556,-0.17232 1.408274,-0.53339 1.117634,-0.82403 -0.07802,-0.078 -0.744781,-0.0589 -1.481704,0.0424 -1.10536,0.15202 -1.339855,0.2775 -1.339855,0.71692 0,0.353 0.127519,0.48371 0.378087,0.38756 0.207947,-0.0798 0.804574,-0.22509 1.325838,-0.32288 z m 4.646075,0.27906 c 0,-0.0728 -0.05953,-0.13229 -0.132292,-0.13229 -0.07276,0 -0.132291,0.0595 -0.132291,0.13229 0,0.0728 0.05953,0.13229 0.132291,0.13229 0.07276,0 0.132292,-0.0595 0.132292,-0.13229 z m -13.832517,-0.34543 c 0.217794,-0.13838 0.255,-0.45958 0.114459,-0.98813 -0.191879,-0.72161 -0.313299,-0.78929 -1.546085,-0.86192 l -1.337853,-0.0788 0.285867,1.07101 c 0.266271,0.99759 0.350131,1.07072 1.223394,1.06695 0.515641,-0.002 1.082738,-0.0963 1.260218,-0.20909 z m 12.377309,-0.0514 c 0.333544,-0.14333 0.38245,-0.22739 0.132291,-0.22739 -0.218281,0 -0.635,0.10232 -0.926041,0.22739 -0.333545,0.14333 -0.38245,0.22739 -0.132292,0.22739 0.218281,0 0.635,-0.10233 0.926042,-0.22739 z m -9.570122,-0.26098 c 0.705564,-0.003 0.738028,-0.0531 0.564404,-0.8635 -0.101323,-0.47295 -0.207087,-0.88675 -0.235032,-0.91957 -0.02795,-0.0328 -0.667044,0.0133 -1.420215,0.10252 -1.315122,0.15575 -1.362871,0.18958 -1.204616,0.85342 0.245935,1.03164 0.362662,1.1485 0.981379,0.98248 0.310999,-0.0834 0.902332,-0.15336 1.31408,-0.15535 z m 12.083663,0.12868 c 0,-0.0728 -0.05953,-0.13229 -0.132291,-0.13229 -0.07276,0 -0.132292,0.0595 -0.132292,0.13229 0,0.0728 0.05953,0.1323 0.132292,0.1323 0.07276,0 0.132291,-0.0595 0.132291,-0.1323 z m -29.721526,-0.57326 c -0.09701,-0.097 -0.17639,-0.0176 -0.17639,0.17639 0,0.19403 0.07937,0.2734 0.17639,0.17639 0.09701,-0.097 0.09701,-0.25577 0,-0.35278 z m 27.456701,0.0296 c 0.521264,-0.0978 1.024483,-0.30195 1.118264,-0.45369 0.112731,-0.18241 -0.123603,-0.21707 -0.697455,-0.1023 -0.47738,0.0955 -1.150736,0.17359 -1.496348,0.17359 -0.40077,0 -0.628386,0.15401 -0.628386,0.42519 0,0.25984 0.147021,0.36876 0.378087,0.28009 0.207947,-0.0798 0.804574,-0.22509 1.325838,-0.32288 z m 0.941909,0.27906 c 0,-0.0728 -0.05953,-0.13229 -0.132292,-0.13229 -0.07276,0 -0.132292,0.0595 -0.132292,0.13229 0,0.0728 0.05953,0.13229 0.132292,0.13229 0.07276,0 0.132292,-0.0595 0.132292,-0.13229 z m -7.648776,-0.29529 c 0.82981,-0.13728 0.934836,-0.23746 0.82905,-0.79084 -0.11135,-0.58251 -0.246131,-0.63366 -1.669481,-0.63366 -1.25503,0 -1.524865,0.0752 -1.424366,0.39687 0.06819,0.21829 0.179785,0.57547 0.247978,0.79375 0.134213,0.42961 0.545365,0.47729 2.016819,0.23388 z m 4.118276,-0.61498 c 0.173599,-0.009 0.246095,-0.24469 0.167579,-0.54494 -0.146441,-0.55998 -0.87512,-0.67374 -2.383411,-0.37209 -0.639009,0.12781 -0.764323,0.2673 -0.672349,0.74844 0.104775,0.5481 0.203362,0.57648 1.347634,0.38786 0.679024,-0.11192 1.37227,-0.21059 1.540547,-0.21927 z m -25.0445,0.11652 c 0,-0.0728 -0.05953,-0.13229 -0.132292,-0.13229 -0.07276,0 -0.132292,0.0595 -0.132292,0.13229 0,0.0728 0.05953,0.13229 0.132292,0.13229 0.07276,0 0.132292,-0.0595 0.132292,-0.13229 z m 29.765625,-0.13229 c 0.08994,-0.14552 0.103989,-0.26458 0.03123,-0.26458 -0.07276,0 -0.205875,0.11906 -0.295813,0.26458 -0.08994,0.14552 -0.103989,0.26458 -0.03123,0.26458 0.07276,0 0.205875,-0.11906 0.295813,-0.26458 z m -1.521354,-0.41716 c 1.179599,-0.24191 0.561766,-0.64117 -0.992188,-0.64117 -1.422834,0 -1.5875,0.0561 -1.5875,0.54115 0,0.55732 0.294233,0.56873 2.579688,0.10002 z m -28.797491,-1.41087 c -0.178922,-0.59719 -0.37402,-1.03709 -0.433552,-0.97756 -0.05953,0.0595 0.03815,0.59685 0.217075,1.19404 0.178922,0.59719 0.37402,1.03709 0.433552,0.97756 0.05953,-0.0595 -0.03815,-0.59685 -0.217075,-1.19404 z m 30.980303,0.90199 c 0.280818,-0.33837 0.207584,-0.39688 -0.496771,-0.39688 -0.78718,0 -1.033285,0.23384 -0.649756,0.61736 0.295146,0.29515 0.799007,0.19825 1.146527,-0.22048 z m 1.322917,-0.26459 c 0,-0.0728 -0.05953,-0.13229 -0.132292,-0.13229 -0.07276,0 -0.132292,0.0595 -0.132292,0.13229 0,0.0728 0.05953,0.1323 0.132292,0.1323 0.07276,0 0.132292,-0.0595 0.132292,-0.1323 z m 3.086806,-0.83784 c -0.09701,-0.097 -0.255765,-0.097 -0.352779,0 -0.09701,0.097 -0.01764,0.17639 0.176389,0.17639 0.194027,0 0.273402,-0.0794 0.17639,-0.17639 z m 1.852084,0 c -0.09701,-0.097 -0.255765,-0.097 -0.35278,0 -0.09701,0.097 -0.01764,0.17639 0.17639,0.17639 0.194027,0 0.273402,-0.0794 0.17639,-0.17639 z m -2.822224,-1.20315 c 0,-0.37247 -0.493511,0.0236 -0.830826,0.66667 -0.302392,0.57654 -0.300564,0.57707 0.26316,0.0765 0.312217,-0.27722 0.567666,-0.61167 0.567666,-0.74322 z m 1.405951,0.0323 c 0.122095,-0.46689 0.09967,-0.46842 -0.495498,-0.0339 -0.899335,0.65661 -1.065554,1.17592 -0.258718,0.8083 0.344483,-0.15696 0.683879,-0.50544 0.754216,-0.77441 z m 0.357939,0.64173 c -0.09701,-0.097 -0.17639,-0.0176 -0.17639,0.17639 0,0.19403 0.07937,0.2734 0.17639,0.17639 0.09701,-0.097 0.09701,-0.25577 0,-0.35278 z m 3.527773,-0.52518 c 0,-0.27009 -0.20773,-0.24914 -0.926038,0.0934 -0.509322,0.24288 -0.926041,0.52746 -0.926041,0.63241 0,0.10495 0.416719,0.0629 0.926041,-0.0934 0.509323,-0.15631 0.926038,-0.4409 0.926038,-0.63241 z m 0,0.83386 c 0,-0.0728 -0.0595,-0.13229 -0.13229,-0.13229 -0.0728,0 -0.13229,0.0595 -0.13229,0.13229 0,0.0728 0.0595,0.13229 0.13229,0.13229 0.0728,0 0.13229,-0.0595 0.13229,-0.13229 z m 2.64584,0 c 0,-0.0728 -0.0595,-0.13229 -0.13229,-0.13229 -0.0728,0 -0.1323,0.0595 -0.1323,0.13229 0,0.0728 0.0595,0.13229 0.1323,0.13229 0.0728,0 0.13229,-0.0595 0.13229,-0.13229 z m -0.022,-0.56007 c 0.36776,-0.33821 -0.32002,-0.32911 -1.07165,0.0142 l -0.89068,0.40678 0.92604,-0.15979 c 0.50932,-0.0879 0.97565,-0.20541 1.03629,-0.26118 z m 1.08037,0.29549 c 0,-0.0728 -0.0595,-0.13229 -0.13229,-0.13229 -0.0728,0 -0.13229,0.0595 -0.13229,0.13229 0,0.0728 0.0595,0.13229 0.13229,0.13229 0.0728,0 0.13229,-0.0595 0.13229,-0.13229 z m -5.881406,-0.61203 c 0.06445,-0.19334 -0.05651,-0.25248 -0.314193,-0.15359 -0.230441,0.0884 -0.418984,0.27702 -0.418984,0.4191 0,0.34776 0.60134,0.13 0.733177,-0.26551 z m -4.17276,0.0829 c 0,-0.0728 -0.05953,-0.13229 -0.132292,-0.13229 -0.07276,0 -0.132291,0.0595 -0.132291,0.13229 0,0.0728 0.05953,0.13229 0.132291,0.13229 0.07276,0 0.132292,-0.0595 0.132292,-0.13229 z m 9.038736,-1.74581 c 0.35133,-2.33543 0.55448,-9.97664 0.3475,-13.07085 l -0.21239,-3.175 -1.00497,7.67291 c -1.15927,8.85101 -1.18175,9.17162 -0.62825,8.95922 0.21828,-0.0838 0.39687,-0.0344 0.39687,0.10974 0,0.14412 -0.23812,0.3243 -0.52916,0.40041 -0.29104,0.0761 -0.52917,0.32189 -0.52917,0.54618 0,0.3558 0.12651,0.36407 0.99219,0.0649 0.89556,-0.30951 1.00925,-0.45631 1.16738,-1.5075 z m 0.99582,1.01821 c -0.0108,-0.47295 -0.10967,-1.39568 -0.21974,-2.05052 -0.19063,-1.13406 -0.20541,-1.09317 -0.31112,0.86051 -0.0825,1.52392 -0.026,2.05098 0.21974,2.05052 0.20065,-2.6e-4 0.32302,-0.33883 0.31112,-0.86051 z m -43.989416,0.15434 c -0.09702,-0.097 -0.17639,-0.0176 -0.17639,0.17639 0,0.19402 0.07937,0.2734 0.17639,0.17639 0.09701,-0.097 0.09701,-0.25577 0,-0.35278 z m 39.630953,0.13392 c 0.371533,-0.16928 0.673903,-0.52848 0.673903,-0.80055 0,-0.46315 -0.0488,-0.46825 -0.793746,-0.083 -0.436562,0.22576 -0.79375,0.586 -0.79375,0.80055 0,0.46996 0.05366,0.47484 0.913593,0.083 z m -2.914631,-0.93556 c 0.06921,-0.18037 0.02315,-0.39141 -0.102344,-0.46897 -0.125505,-0.0776 -0.171643,-0.4088 -0.102534,-0.73608 0.114221,-0.54089 0.09771,-0.5511 -0.181382,-0.11218 -0.168873,0.26557 -0.2408,0.5491 -0.159838,0.63006 0.08096,0.081 -0.02719,0.39619 -0.240331,0.70049 -0.213143,0.30431 -0.387533,0.64686 -0.387533,0.76124 0,0.29506 1.02235,-0.37946 1.173962,-0.77456 z m 1.736455,-0.15957 c 0,-0.30937 -0.118068,-0.41363 -0.330729,-0.29203 -0.741672,0.42407 -0.953755,0.69275 -0.82064,1.03964 0.198271,0.51669 1.151369,-0.10218 1.151369,-0.74761 z M 95.6257,169.00335 c -0.0046,-0.15408 -0.183224,-0.049 -0.396875,0.23344 -0.213653,0.28247 -0.384675,0.63966 -0.380047,0.79375 0.0046,0.15408 0.183224,0.049 0.396875,-0.23344 0.213654,-0.28247 0.384675,-0.63966 0.380047,-0.79375 z m -35.798529,0.4695 c -0.09701,-0.097 -0.17639,-0.0176 -0.17639,0.17639 0,0.19402 0.07938,0.2734 0.17639,0.17639 0.09701,-0.097 0.09701,-0.25577 0,-0.35278 z m 40.410519,-1.97378 c -0.0146,-0.63642 -0.0544,-1.69291 -0.0883,-2.34775 l -0.0617,-1.19062 -0.35771,1.58749 c -0.463801,2.05832 -0.466326,1.99459 0.07133,1.80142 0.36902,-0.13259 0.34217,-0.0334 -0.132292,0.48837 -0.327422,0.36011 -0.595313,0.86995 -0.595313,1.13298 0,0.43704 0.05128,0.44408 0.595313,0.0817 0.475112,-0.31645 0.589942,-0.63014 0.568682,-1.55362 z m -40.675103,1.18003 c -0.09701,-0.097 -0.17639,-0.0176 -0.17639,0.17639 0,0.19402 0.07938,0.2734 0.17639,0.17639 0.09701,-0.097 0.09701,-0.25577 0,-0.35278 z m 39.383065,-1.41111 0.190889,-0.66146 -0.825172,0.7771 c -0.453845,0.42741 -0.825172,1.02002 -0.825172,1.31691 0,0.51118 0.03363,0.50505 0.634283,-0.11565 0.348854,-0.3605 0.720183,-0.9531 0.825172,-1.3169 z m -2.83347,0.12529 c -0.08146,-0.0815 -0.229407,0.0654 -0.328766,0.32632 -0.143584,0.37708 -0.113194,0.40747 0.148114,0.14811 0.180821,-0.17948 0.262114,-0.39297 0.180652,-0.47443 z m 1.374015,-0.42111 c 0,-0.14552 -0.119062,-0.191 -0.264583,-0.10106 -0.145521,0.0899 -0.264583,0.28258 -0.264583,0.42811 0,0.14552 0.119062,0.191 0.264583,0.10106 0.145521,-0.0899 0.264583,-0.28258 0.264583,-0.42811 z m 2.080316,-2.87868 c 0.165513,-1.00222 0.292071,-2.3946 0.281239,-3.09418 -0.01958,-1.26412 -0.02358,-1.2581 -0.64911,0.97701 -0.762995,2.72626 -0.769877,2.80453 -0.206447,2.3475 0.385855,-0.31299 0.41683,-0.30833 0.224338,0.0337 -0.122828,0.21828 -0.387414,0.58883 -0.587968,0.82344 -0.200554,0.23461 -0.477451,0.81989 -0.615323,1.30063 l -0.250679,0.87406 0.751509,-0.71999 c 0.58865,-0.56396 0.816721,-1.11488 1.052441,-2.54222 z m -1.551149,0.89623 c 0,-0.20216 -0.05647,-0.36757 -0.125497,-0.36757 -0.15916,0 -0.9358,1.49001 -0.924034,1.7728 0.01523,0.36594 1.049531,-1.01891 1.049531,-1.40523 z m 0.264583,-0.76444 c 0,-0.0728 -0.05953,-0.13229 -0.132291,-0.13229 -0.07276,0 -0.132292,0.0595 -0.132292,0.13229 0,0.0728 0.05953,0.13229 0.132292,0.13229 0.07276,0 0.132291,-0.0595 0.132291,-0.13229 z m 0.25648,-1.5875 c 0,-0.14552 -0.115414,-0.086 -0.25648,0.13229 -0.141065,0.21828 -0.256479,0.51594 -0.256479,0.66146 0,0.14552 0.115414,0.086 0.256479,-0.13229 0.141066,-0.21828 0.25648,-0.51594 0.25648,-0.66146 z m 0.272687,-0.52917 c 0,-0.0728 -0.05953,-0.13229 -0.132292,-0.13229 -0.07276,0 -0.132291,0.0595 -0.132291,0.13229 0,0.0728 0.05953,0.13229 0.132291,0.13229 0.07276,0 0.132292,-0.0595 0.132292,-0.13229 z m 0.529167,-2.11666 c 0,-0.0728 -0.05953,-0.1323 -0.132292,-0.1323 -0.07276,0 -0.132292,0.0595 -0.132292,0.1323 0,0.0728 0.05953,0.13229 0.132292,0.13229 0.07276,0 0.132292,-0.0595 0.132292,-0.13229 z m 11.028809,78.44895 c -0.10293,-2.40109 -0.53878,-21.86781 -0.96855,-43.25937 -0.42977,-21.39156 -0.8537,-40.94758 -0.94208,-43.45781 -0.1001,-2.84338 -0.0652,-4.56407 0.0927,-4.56407 0.15235,0 0.31926,3.24378 0.41866,8.13594 0.2875,14.15021 0.40699,16.20573 0.94206,16.20573 0.42228,0 0.49333,-0.73991 0.83204,-8.6651 0.20369,-4.76581 0.35953,-8.96276 0.34633,-9.32657 -0.0132,-0.3638 -0.11078,-2.20927 -0.21683,-4.10104 -0.12934,-2.30724 -0.10515,-3.35248 0.0735,-3.175 0.14644,0.14552 0.30355,0.80037 0.34911,1.45521 0.0456,0.65484 0.5935,-9.93643 1.21763,-23.53616 0.62412,-13.59973 1.18967,-24.781687 1.25677,-24.848786 0.0671,-0.0671 0.16928,-0.07239 0.22706,-0.01175 0.0578,0.06063 -0.46232,12.362226 -1.15578,27.336866 l -1.26086,27.22662 0.52562,8.62442 c 0.28908,4.74344 0.57106,8.67403 0.62662,8.73467 0.27085,0.29562 0.41015,-0.63041 1.01472,-6.74549 l 0.65191,-6.59393 -0.6094,-6.21771 c -0.33517,-3.41974 -0.56837,-6.26732 -0.51823,-6.32795 0.25756,-0.31146 0.40693,0.56357 0.83651,4.9007 0.38,3.83642 0.50325,4.50869 0.64974,3.54392 0.0994,-0.65485 1.31538,-12.91828 2.70209,-27.25209 1.38671,-14.3338 2.60189,-26.47817 2.7004,-26.987499 0.5996,-3.100273 0.14107,2.596729 -1.7813,22.131809 l -2.1572,21.92132 0.74167,6.14994 c 0.40792,3.38247 0.81724,6.06137 0.90961,5.95312 0.0924,-0.10824 0.43693,-2.00397 0.76568,-4.21273 0.55123,-3.70354 0.57449,-5.12423 0.11077,-6.76585 -0.0719,-0.25466 -0.004,-0.46302 0.15162,-0.46302 0.15533,0 0.28241,0.23812 0.28241,0.52916 0,2.4459 0.88842,-2.56248 3.9307,-22.15885 1.93724,-12.47841 3.62188,-22.98568 3.74364,-23.349482 l 0.22139,-0.661458 0.0209,0.658907 c 0.0115,0.3624 -1.65409,11.369153 -3.7013,24.459443 l -3.72218,23.80054 0.60588,4.04363 c 0.33323,2.224 0.68358,3.95694 0.77854,3.85098 0.095,-0.10597 0.4757,-1.56925 0.84609,-3.25176 0.64216,-2.91706 0.656,-3.15046 0.29812,-5.02708 -0.20642,-1.08239 -0.3679,-2.26565 -0.35884,-2.62945 0.0149,-0.60043 0.0362,-0.61263 0.23078,-0.13229 0.11788,0.29104 0.30283,1.17412 0.41101,1.96241 0.11785,0.85881 0.27322,1.28298 0.38764,1.05833 0.10503,-0.2062 2.5576,-11.06077 5.45017,-24.12126 2.89257,-13.0605 5.36647,-23.746359 5.49754,-23.746359 0.13108,0 0.18402,0.20836 0.11764,0.463021 -0.0664,0.254668 -2.5453,11.380648 -5.50872,24.724418 l -5.38802,24.26139 0.49886,3.0703 c 0.27438,1.68866 0.58181,2.91541 0.68318,2.72611 0.10137,-0.18931 0.49849,-1.4225 0.88248,-2.74043 l 0.69817,-2.39623 -0.5337,-2.59383 c -0.61861,-3.0065 -0.60425,-2.87499 -0.29299,-2.68263 0.13239,0.0818 0.39054,0.98717 0.57366,2.01188 0.18313,1.02471 0.40223,1.90533 0.4869,1.95693 0.0847,0.0516 3.06269,-9.6871 6.61783,-21.64157 7.88977,-26.53003 7.73976,-26.04156 7.87798,-25.65249 0.0618,0.17393 -3.12131,11.17566 -7.07357,24.4483 l -7.18593,24.13206 0.45649,2.3502 c 0.25107,1.29261 0.48858,2.31619 0.52779,2.27462 0.0392,-0.0416 0.43572,-1.02809 0.88111,-2.19225 l 0.80982,-2.11667 -0.5121,-2.24896 c -0.59136,-2.59702 -0.59707,-2.64583 -0.30965,-2.64583 0.11883,0 0.37009,0.775 0.55837,1.72222 0.18828,0.94722 0.42955,1.77613 0.53615,1.84202 0.10661,0.0659 4.11183,-10.06667 8.90049,-22.51679 4.78866,-12.45012 8.78948,-22.77082 8.89071,-22.93488 0.84937,-1.37658 -0.75118,2.96361 -8.56821,23.2343 l -8.97881,23.28334 0.30499,1.78593 c 0.16775,0.98227 0.39135,1.78594 0.4969,1.78594 0.10555,0 0.53327,-0.7142 0.95048,-1.58712 l 0.75857,-1.58712 -0.47201,-2.00218 c -0.25961,-1.1012 -0.40328,-2.07091 -0.31928,-2.15491 0.17956,-0.17957 0.28375,0.0915 0.78405,2.03966 l 0.3737,1.45521 1.33066,-2.77812 c 6.92393,-14.45569 19.94455,-40.89238 20.1788,-40.97047 0.16601,-0.0553 0.0939,0.29205 -0.16405,0.79057 -0.2531,0.4891 -5.13294,10.49895 -10.84409,22.24412 -10.33656,21.25747 -10.38279,21.36001 -10.13809,22.48958 0.43097,1.9894 0.4708,2.00802 1.33275,0.62317 0.82633,-1.32762 0.83585,-1.43805 0.32993,-3.82905 -0.12997,-0.61424 -0.10062,-0.84539 0.0922,-0.72622 0.15558,0.0961 0.36322,0.65045 0.46143,1.23177 0.0982,0.58132 0.2574,1.05518 0.35375,1.05301 0.0964,-0.002 5.59253,-8.95415 12.21373,-19.89333 6.62119,-10.93917 12.25806,-20.13498 12.52637,-20.43513 0.80945,-0.90553 -0.45841,1.23442 -12.80385,21.6109 l -11.82096,19.5108 0.27296,1.19284 c 0.15013,0.65607 0.35783,1.19285 0.46157,1.19285 0.10373,0 0.51277,-0.425 0.90897,-0.94445 0.64987,-0.85202 0.69454,-1.04624 0.45641,-1.98438 -0.30758,-1.21179 0.0188,-1.42393 0.36911,-0.23993 0.22977,0.77654 0.65023,0.24846 14.3449,-18.01663 7.7595,-10.34915 14.16779,-18.75703 14.24063,-18.68418 0.0728,0.0728 -6.25108,8.64349 -14.05317,19.04588 l -14.18563,18.91344 0.31107,1.23535 0.31106,1.23534 0.75841,-0.72659 c 0.44423,-0.42561 0.76007,-1.0075 0.76245,-1.4047 0.003,-0.47745 0.0709,-0.57263 0.22995,-0.32165 0.16373,0.25835 4.53432,-4.29261 15.88107,-16.53646 8.61034,-9.2911 15.79944,-16.93711 15.97577,-16.99113 0.17634,-0.054 -0.22758,0.48176 -0.89759,1.19063 -0.67,0.70886 -7.32509,7.89681 -14.78908,15.97321 -7.46398,8.07641 -14.08735,15.22226 -14.71858,15.87967 -1.12514,1.1718 -1.14205,1.21601 -0.85981,2.24896 0.15835,0.57952 0.32496,1.09325 0.37024,1.14162 0.0453,0.0484 8.25609,-7.01797 18.24623,-15.703 9.99014,-8.68504 18.21867,-15.7362 18.28562,-15.66925 0.0669,0.067 -7.72469,6.9385 -17.31475,15.27011 l -17.43647,15.14838 0.40691,1.03588 c 0.2238,0.56974 0.48172,1.00267 0.57315,0.96207 0.21138,-0.0939 35.96229,-24.84467 37.64903,-26.0649 0.69122,-0.50006 1.25677,-0.79537 1.25677,-0.65626 0,0.13911 -8.75721,6.31073 -19.46047,13.71472 l -19.46046,13.4618 0.16948,0.92604 c 0.20805,1.13683 0.2183,1.14749 0.89609,0.93237 0.37254,-0.11824 0.55181,-0.40252 0.55752,-0.88406 0.008,-0.646 0.04,-0.66824 0.35932,-0.24755 0.3221,0.42429 2.03877,-0.45153 20.91614,-10.6711 11.31088,-6.12333 20.62172,-11.07685 20.69076,-11.00781 0.16909,0.16909 0.0337,0.24394 -21.8663,12.09185 -10.55026,5.70769 -19.23113,10.42239 -19.29083,10.47712 -0.24832,0.22767 0.55959,2.25534 0.85328,2.14154 0.17247,-0.0668 10.24233,-4.18733 22.37745,-9.15666 12.13512,-4.96932 22.1168,-8.98219 22.18152,-8.91748 0.19777,0.19778 -0.20451,0.3675 -22.02038,9.29024 -11.64166,4.76147 -21.19502,8.68203 -21.22969,8.71236 -0.0347,0.0303 0.0923,0.58241 0.28203,1.22685 0.25057,0.85085 0.46669,1.1505 0.78925,1.09427 0.24432,-0.0426 10.41631,-2.99318 22.60444,-6.55689 24.50863,-7.16612 23.59301,-6.90891 23.21856,-6.52224 -0.14553,0.15027 -10.32537,3.20656 -22.62188,6.79177 -12.29651,3.5852 -22.60191,6.60302 -22.90089,6.70626 -0.51697,0.1785 -0.52594,0.24928 -0.18306,1.44447 0.22517,0.78491 0.51047,1.25677 0.75987,1.25677 0.25632,0 0.35006,-0.16581 0.26177,-0.46302 -0.42563,-1.43266 -0.49036,-1.98845 -0.21153,-1.81612 0.16111,0.0996 0.37032,0.59358 0.46491,1.0978 0.13317,0.70984 0.29971,0.91523 0.73786,0.90998 0.31122,-0.004 10.9243,-1.94842 23.58461,-4.32153 12.66031,-2.37311 23.06836,-4.27506 23.129,-4.22656 0.0606,0.0485 0.0421,0.15634 -0.0412,0.23961 -0.12425,0.12426 -46.23114,8.83157 -46.81682,8.84139 -0.0996,0.002 0.0624,0.72407 0.36002,1.60534 0.57514,1.70311 0.9647,2.00609 0.52314,0.40688 -0.1444,-0.52297 -0.1703,-0.95085 -0.0576,-0.95085 0.11274,0 0.31529,0.38695 0.45011,0.85989 0.1815,0.63666 0.41466,0.87834 0.89817,0.93094 0.35917,0.0391 11.07101,-0.87269 23.80408,-2.02614 12.73307,-1.15345 23.20065,-2.04863 23.26129,-1.98927 0.0606,0.0593 0.0567,0.16146 -0.009,0.2269 -0.0654,0.0654 -10.17584,1.01761 -22.46754,2.11592 -27.52147,2.45917 -24.94859,2.14688 -24.73395,3.00208 0.0943,0.3759 0.32756,0.80987 0.51827,0.96437 0.39575,0.32063 1.50586,3.84574 1.31059,4.1617 -0.0708,0.11448 0.16471,1.16338 0.52325,2.33088 0.35854,1.1675 0.55171,2.12273 0.42926,2.12273 -0.12245,0 -0.34398,-0.38696 -0.49229,-0.8599 -2.34606,-7.48108 -3.01335,-9.45885 -3.19136,-9.45885 -0.11656,0 0.82995,3.30398 2.10336,7.34218 2.08168,6.6014 2.41969,7.872 1.97609,7.4284 -0.0738,-0.0739 -1.15615,-3.39768 -2.4051,-7.38629 -1.24896,-3.9886 -2.29331,-7.27529 -2.32078,-7.30376 -0.0275,-0.0285 -0.19383,0.0372 -0.36967,0.14583 -0.23431,0.14482 0.45591,2.70288 2.58402,9.57676 1.59705,5.15854 2.85956,9.49823 2.80557,9.64375 -0.14793,0.39875 -0.28219,-7.9e-4 -3.32141,-9.88446 -2.52346,-8.20637 -2.87929,-9.17439 -3.40025,-9.25009 -0.32002,-0.0465 -0.58064,0.013 -0.57917,0.1323 0.002,0.11926 1.60355,5.51046 3.56017,11.98045 3.10669,10.27294 3.67958,12.39357 3.21331,11.89455 -0.0566,-0.0606 -1.67926,-5.349 -3.6058,-11.75192 -1.92654,-6.40291 -3.57683,-11.76587 -3.6673,-11.91767 -0.0905,-0.1518 -0.47036,-0.21133 -0.84419,-0.13229 l -0.67967,0.14371 4.16211,14.15521 c 2.28916,7.78537 4.11306,14.20482 4.05311,14.26546 -0.0599,0.0606 -0.16345,0.0558 -0.23,-0.0108 -0.0666,-0.0666 -1.99647,-6.51578 -4.28869,-14.3316 -3.74879,-12.78232 -4.22194,-14.21018 -4.70764,-14.20654 -1.40726,0.0106 -1.47859,-0.34425 3.3828,16.82686 2.54925,9.00428 4.58473,16.42167 4.52331,16.4831 -0.0614,0.0614 -0.15981,0.0621 -0.21862,0.001 -0.0588,-0.0605 -2.03002,-6.89668 -4.38047,-15.19137 -2.35045,-8.29469 -4.45391,-15.70633 -4.67435,-16.47031 -0.38134,-1.32162 -0.44409,-1.38906 -1.29245,-1.38906 -0.49041,0 -0.96164,0.11324 -1.04719,0.25166 -0.0855,0.13841 2.11557,8.60518 4.89135,18.81505 2.77578,10.20987 4.99573,18.69888 4.93322,18.86448 -0.16904,0.44784 -0.0406,0.89763 -5.20419,-18.21974 -2.63345,-9.74989 -4.91022,-18.11403 -5.05948,-18.58697 -0.24456,-0.77493 -0.37239,-0.8599 -1.29358,-0.8599 -0.56221,0 -1.08714,0.10507 -1.16651,0.2335 -0.10406,0.16837 9.25052,37.18432 10.60594,41.96754 0.1111,0.39205 0.0711,0.45463 -0.15421,0.24152 -0.16729,-0.15821 -2.72269,-9.68321 -5.67866,-21.16667 l -5.37452,-20.87902 -1.13389,-0.0831 c -0.62364,-0.0457 -1.22865,0.0138 -1.34447,0.13229 -0.11582,0.11848 2.28161,10.51286 5.32762,23.09863 3.046,12.58577 5.53819,23.05335 5.53819,23.26129 0,0.20793 -0.078,0.30008 -0.17328,0.20478 -0.0953,-0.0953 -2.6862,-10.56287 -5.75755,-23.26128 l -5.58428,-23.08801 -1.05547,-0.069 c -0.58051,-0.038 -1.22175,0.0394 -1.42499,0.17188 -0.30511,0.19892 0.6078,4.60914 5.23734,25.3013 3.08377,13.78322 5.55587,25.1954 5.49355,25.36041 -0.0709,0.18783 -0.1683,0.15162 -0.2604,-0.0968 -0.0809,-0.21829 -2.60196,-11.41016 -5.60235,-24.87084 -3.00039,-13.46067 -5.52448,-24.75647 -5.60909,-25.10176 -0.14324,-0.58461 -0.24478,-0.61703 -1.47578,-0.47123 -0.72708,0.0861 -1.38574,0.22034 -1.46369,0.29829 -0.078,0.0779 2.32138,12.25579 5.33186,27.06186 3.01047,14.80608 5.46359,27.09873 5.45137,27.31701 -0.0151,0.27051 -0.098,0.22839 -0.26036,-0.13229 -0.19652,-0.43669 -11.10313,-53.72125 -11.10313,-54.24467 0,-0.13194 -2.90514,0.0963 -3.09314,0.24298 -0.0277,0.0216 2.30889,13.07384 5.19249,29.00489 2.88361,15.93105 5.19826,29.01516 5.14366,29.07579 -0.0546,0.0606 -0.16064,0.0489 -0.23565,-0.0261 -0.075,-0.075 -2.47308,-13.10243 -5.32905,-28.94983 -2.85597,-15.84739 -5.26514,-28.8802 -5.35372,-28.96179 -0.0886,-0.0816 -0.81959,-0.10185 -1.62448,-0.045 l -1.46342,0.10334 4.69746,30.20752 c 2.58361,16.61413 4.68851,30.50517 4.67756,30.86897 -0.0187,0.62074 -0.0349,0.61259 -0.26285,-0.13229 -0.13362,-0.43656 -2.26509,-13.89062 -4.7366,-29.89792 -2.47151,-16.00729 -4.56303,-29.40182 -4.64783,-29.76562 l -0.15418,-0.66146 -0.5802,0.72503 c -0.31912,0.39877 -0.91015,1.35127 -1.31341,2.11667 l -0.7332,1.39163 3.8176,29.89792 c 2.09968,16.44385 3.77263,29.94752 3.71765,30.00816 -0.055,0.0606 -0.15861,0.0516 -0.23031,-0.0201 -0.0717,-0.0717 -1.82783,-13.50014 -3.90251,-29.84097 l -3.77213,-29.7106 -1.37621,2.87552 -1.37621,2.87553 2.62806,27.38437 c 2.54208,26.48854 2.80859,29.62784 2.4881,29.30734 -0.10823,-0.10823 -5.32604,-53.45416 -5.41567,-55.3688 -0.007,-0.14552 -0.41807,0.74745 -0.9139,1.98438 -0.49583,1.23693 -1.01235,2.22401 -1.14782,2.19351 -0.13546,-0.0305 -0.32009,0.40601 -0.41028,0.97 -0.0902,0.564 -0.26061,1.0652 -0.37873,1.11378 -0.11812,0.0486 0.47085,11.33974 1.30883,25.09146 1.69839,27.87159 1.63747,26.65932 1.32229,26.31281 -0.12575,-0.13824 -0.90475,-11.68135 -1.7311,-25.65135 -0.82636,-13.97 -1.5431,-25.5786 -1.59276,-25.79688 -0.0497,-0.21828 -0.10593,-0.0397 -0.12504,0.39688 -0.0191,0.43656 -0.15015,0.97234 -0.29122,1.19062 -0.35415,0.54801 -0.34662,-0.31815 0.0225,-2.59486 0.18882,-1.16448 0.21115,-2.90312 0.0652,-5.07805 l -0.22193,-3.3073 -0.61913,6.35 c -0.34052,3.4925 -0.66752,6.39961 -0.72666,6.46025 -0.3482,0.35701 -0.28061,-0.9077 0.43086,-8.06226 0.87859,-8.83512 0.86604,-11.91167 -0.0476,-11.67274 -0.68532,0.17921 -0.61398,-0.20876 0.10453,-0.56841 0.54292,-0.27175 0.52545,-0.28368 -0.19844,-0.1355 -0.43656,0.0894 -0.8223,0.18421 -0.8572,0.21077 -0.0349,0.0266 -0.26625,4.58016 -0.5141,10.11912 -0.42791,9.56293 -0.42628,11.30332 0.0323,34.50876 0.45718,23.13588 0.48131,31.11329 0.0647,21.39522 z m 5.33566,-59.81918 c -0.13902,-0.0866 -0.0682,-0.30644 0.15947,-0.49542 0.42835,-0.35551 0.57283,-1.5979 0.18582,-1.5979 -0.70289,0 -1.09713,1.21044 -1.73761,5.33498 -1.09482,7.0503 -0.86328,7.94787 0.50073,1.94106 0.66919,-2.94701 1.03811,-5.09148 0.89159,-5.18272 z m -0.84225,7.51988 c -0.097,-0.097 -0.17639,-0.0176 -0.17639,0.17639 0,0.19402 0.0794,0.2734 0.17639,0.17639 0.097,-0.097 0.097,-0.25577 0,-0.35278 z m 1.1934,-4.13253 c 0.0188,-0.40537 0.13502,-0.79935 0.25825,-0.87551 0.12323,-0.0762 0.22405,-0.39338 0.22405,-0.70494 0,-1.14005 -0.47872,-0.021 -1.02827,2.40362 -0.30758,1.35706 -0.55283,2.60722 -0.545,2.77813 0.0255,0.55747 1.0558,-2.84349 1.09097,-3.6013 z m -1.40934,-5.74525 c -0.02,-0.3638 0.0516,-0.89958 0.15926,-1.19063 0.43738,-1.18301 0.42244,-1.21092 -0.41598,-0.77735 -0.44618,0.23072 -0.87444,0.35629 -0.9517,0.27904 -0.0772,-0.0772 0.291,-0.34621 0.81834,-0.59768 0.52734,-0.25147 0.9588,-0.61376 0.9588,-0.80509 0,-0.41884 0.015,-0.41781 -0.98886,-0.0679 -0.59033,0.20579 -0.84627,0.49509 -0.96553,1.09141 -0.21543,1.07717 -0.20575,4.57225 0.0212,7.64991 l 0.18346,2.48804 0.6087,-3.70417 c 0.33479,-2.03729 0.59233,-4.00182 0.57232,-4.36562 z m -4.48853,-2.05052 c 0.0246,-1.7773 -0.0436,-2.18281 -0.36671,-2.18281 -0.33211,0 -0.39661,0.55051 -0.39529,3.37343 8e-4,1.85539 0.0902,4.38547 0.19844,5.6224 l 0.19685,2.24896 0.16828,-3.43959 c 0.0926,-1.89177 0.18184,-4.42184 0.19843,-5.62239 z m 7.17392,6.15156 c 0,-0.0728 -0.0595,-0.13229 -0.13229,-0.13229 -0.0728,0 -0.1323,0.0595 -0.1323,0.13229 0,0.0728 0.0595,0.13229 0.1323,0.13229 0.0728,0 0.13229,-0.0595 0.13229,-0.13229 z m -0.26459,-1.05833 c 0,-0.0728 -0.0595,-0.13229 -0.13229,-0.13229 -0.0728,0 -0.13229,0.0595 -0.13229,0.13229 0,0.0728 0.0595,0.13229 0.13229,0.13229 0.0728,0 0.13229,-0.0595 0.13229,-0.13229 z m -0.52916,-0.26459 c 0,-0.0728 -0.0595,-0.13229 -0.13229,-0.13229 -0.0728,0 -0.1323,0.0595 -0.1323,0.13229 0,0.0728 0.0595,0.1323 0.1323,0.1323 0.0728,0 0.13229,-0.0595 0.13229,-0.1323 z m 0.94374,-1.58905 c 0.39128,-0.93645 0.39206,-0.99998 0.008,-0.68161 -0.60043,0.49832 -0.52729,-0.0665 0.0798,-0.61588 0.52646,-0.47644 0.91406,-1.47908 0.57178,-1.47908 -0.54807,0 -1.09598,1.12363 -1.23757,2.53798 -0.17301,1.7281 -0.0637,1.77328 0.57758,0.23859 z m 0.59266,0.52372 c -0.0815,-0.0815 -0.22941,0.0654 -0.32877,0.32632 -0.14358,0.37708 -0.11319,0.40747 0.14812,0.14811 0.18082,-0.17947 0.26211,-0.39297 0.18065,-0.47443 z m 0.31568,-0.52217 c 0,-0.0728 -0.0595,-0.13229 -0.13229,-0.13229 -0.0728,0 -0.13229,0.0595 -0.13229,0.13229 0,0.0728 0.0595,0.1323 0.13229,0.1323 0.0728,0 0.13229,-0.0595 0.13229,-0.1323 z m 0.78787,-2.08291 c 0.0111,-0.43444 -0.73045,0.37955 -0.881,0.9671 -0.14285,0.55751 -0.12485,0.55379 0.3624,-0.0748 0.28199,-0.3638 0.51536,-0.76533 0.5186,-0.89229 z m -3.21276,0.2255 c 0.0778,-0.6659 0.0376,-0.71587 -0.33073,-0.41022 -0.49819,0.41346 -0.56909,1.43485 -0.0887,1.27709 0.1819,-0.0597 0.37062,-0.44982 0.41938,-0.86687 z m 0.90062,-0.78041 c 0.0687,-0.3594 0.023,-0.5905 -0.10145,-0.51355 -0.21922,0.13548 -0.32964,1.167 -0.12492,1.167 0.0558,0 0.15766,-0.29405 0.22637,-0.65345 z m 1.8348,-1.28448 c 0.14383,-0.26875 0.21099,-0.53916 0.14925,-0.6009 -0.21496,-0.21497 -1.51811,1.19381 -1.51811,1.64116 0,0.4082 0.052,0.40345 0.55367,-0.0506 0.30452,-0.27559 0.67136,-0.72096 0.81519,-0.98971 z m 0.85557,0.31075 c -0.2082,-0.33688 -0.54998,-0.0568 -0.71888,0.58908 -0.13938,0.53295 -0.1235,0.53743 0.35869,0.10105 0.27749,-0.25112 0.43958,-0.56168 0.36019,-0.69013 z m -3.54735,0.15636 c 0,-0.2097 -0.11906,-0.38126 -0.26458,-0.38126 -0.14552,0 -0.26459,0.24515 -0.26459,0.54478 0,0.29963 0.11907,0.4712 0.26459,0.38126 0.14552,-0.0899 0.26458,-0.33509 0.26458,-0.54478 z m 4.23333,0.28019 c 0,-0.0728 -0.0595,-0.13229 -0.13229,-0.13229 -0.0728,0 -0.13229,0.0595 -0.13229,0.13229 0,0.0728 0.0595,0.1323 0.13229,0.1323 0.0728,0 0.13229,-0.0595 0.13229,-0.1323 z m -3.05693,-0.85207 c 0.0874,-0.22786 0.0995,-0.47374 0.0268,-0.54641 -0.20469,-0.20469 -0.93867,0.49391 -0.93867,0.89341 0,0.46207 0.70418,0.19409 0.91182,-0.347 z m 3.32152,0.32291 c 0,-0.0728 -0.0595,-0.13229 -0.13229,-0.13229 -0.0728,0 -0.1323,0.0595 -0.1323,0.13229 0,0.0728 0.0595,0.13229 0.1323,0.13229 0.0728,0 0.13229,-0.0595 0.13229,-0.13229 z m -1.97507,-1.08876 c 0.35868,-0.23502 0.65215,-0.53013 0.65215,-0.65579 0,-0.33884 -1.27114,0.30194 -1.43235,0.72205 -0.18008,0.4693 -0.0159,0.45535 0.7802,-0.0663 z m -3.9307,-0.15502 c 1.22779,-0.44397 1.09967,-0.74042 -0.17965,-0.4157 -0.58208,0.14775 -1.05833,0.37322 -1.05833,0.50104 0,0.3068 0.1897,0.29373 1.23798,-0.0853 z m 2.86394,-0.47744 c 0.20908,-0.33829 -0.0348,-0.33444 -0.67973,0.0108 -0.28148,0.15064 -0.51178,0.39295 -0.51178,0.53847 0,0.30387 0.9289,-0.12429 1.19151,-0.54921 z m 3.60474,0.33216 c 0.32911,-0.41965 0.31975,-0.42901 -0.0999,-0.0999 -0.25466,0.19972 -0.46302,0.40808 -0.46302,0.46302 0,0.21776 0.21727,0.0776 0.56291,-0.36312 z m -0.68432,-0.0838 c 0.28476,-0.46076 -0.0396,-0.55834 -0.40245,-0.12109 -0.20869,0.25146 -0.22877,0.40327 -0.0533,0.40327 0.15475,0 0.35984,-0.12698 0.45577,-0.28218 z m -6.75776,-0.37928 c 0,-0.0728 -0.0595,-0.13229 -0.13229,-0.13229 -0.0728,0 -0.13229,0.0595 -0.13229,0.13229 0,0.0728 0.0595,0.1323 0.13229,0.1323 0.0728,0 0.13229,-0.0595 0.13229,-0.1323 z m 5.17574,-0.601 c -0.0887,-0.0887 -0.36678,0.0539 -0.61798,0.31693 -0.43662,0.45714 -0.42952,0.46423 0.16126,0.16125 0.33988,-0.1743 0.54541,-0.38949 0.45672,-0.47818 z m -2.08893,0.29232 c -0.097,-0.097 -0.25577,-0.097 -0.35278,0 -0.097,0.097 -0.0176,0.17639 0.17639,0.17639 0.19402,0 0.2734,-0.0794 0.17639,-0.17639 z m 3.98518,-0.51273 c -0.18518,-0.18518 -0.98657,0.19023 -0.98657,0.46216 0,0.13515 0.24813,0.11278 0.55183,-0.0497 0.3035,-0.16243 0.49913,-0.34801 0.43474,-0.41241 z m -8.58718,-0.63379 c -0.033,-0.50933 -0.19698,-3.42636 -0.36444,-6.48229 -0.16746,-3.05594 -0.33187,-5.5889 -0.36535,-5.6288 -0.0335,-0.0399 -0.14021,2.28182 -0.23718,5.15937 -0.097,2.87756 -0.24788,5.86635 -0.33536,6.64175 l -0.15906,1.40983 0.76069,-0.0869 c 0.69023,-0.0789 0.75513,-0.17268 0.7007,-1.01295 z m 5.21936,0.92604 c 0,-0.0728 -0.0595,-0.13229 -0.13229,-0.13229 -0.0728,0 -0.1323,0.0595 -0.1323,0.13229 0,0.0728 0.0595,0.13229 0.1323,0.13229 0.0728,0 0.13229,-0.0595 0.13229,-0.13229 z m 4.37262,-0.34578 c -0.0815,-0.0815 -0.29495,-1.7e-4 -0.47443,0.18065 -0.25936,0.26131 -0.22897,0.2917 0.14811,0.14812 0.26094,-0.0994 0.40779,-0.24731 0.32632,-0.32877 z m -6.50959,-0.0329 c 0.32224,-0.20395 0.32918,-0.78551 0.0481,-4.03084 -0.57424,-6.63099 -0.61389,-6.69475 -1.12451,-1.80814 -0.6266,5.99651 -0.62506,6.08633 0.10449,6.08137 0.32743,-0.002 0.76477,-0.11131 0.97189,-0.24239 z m 3.04441,-2.38776 c 0.41372,-1.91482 0.41437,-2.26909 0.01,-5.20041 -0.23891,-1.73008 -0.46252,-3.17429 -0.4969,-3.20934 -0.0344,-0.0351 -0.39006,2.10807 -0.79038,4.7625 -0.40032,2.65443 -0.78555,5.07105 -0.85607,5.37027 -0.11363,0.4822 -0.0249,0.53197 0.7808,0.43791 0.90256,-0.10537 0.91215,-0.12069 1.35297,-2.16093 z m 2.26756,1.97274 c 0,-0.0728 -0.0595,-0.13229 -0.13229,-0.13229 -0.0728,0 -0.1323,0.0595 -0.1323,0.13229 0,0.0728 0.0595,0.13229 0.1323,0.13229 0.0728,0 0.13229,-0.0595 0.13229,-0.13229 z m -1.42074,-0.72761 c -0.0877,-0.32742 -0.17525,-0.89296 -0.19445,-1.25677 -0.0325,-0.61492 -0.0491,-0.60561 -0.2369,0.13229 -0.33138,1.30233 -0.29178,1.7198 0.16315,1.7198 0.31446,0 0.38549,-0.15766 0.2682,-0.59532 z m 1.65972,-3.14833 c 0.9299,-3.19778 0.93847,-3.30201 0.50525,-6.14795 l -0.31761,-2.08639 -0.88921,3.93847 c -0.75926,3.36287 -0.86378,4.22622 -0.71517,5.9073 0.20504,2.31925 0.30764,2.20254 1.41674,-1.61143 z m 5.58185,3.0888 c 0,-0.29788 -0.20355,-0.35105 -0.8599,-0.22464 -1.75341,0.33772 -1.96842,0.58076 -0.52916,0.59813 1.05545,0.0128 1.38906,-0.077 1.38906,-0.37349 z m -4.59062,-1.19222 c 0.53615,-1.11762 0.59296,-2.22804 0.17622,-3.4446 -0.0987,-0.28811 -1.64089,4.07334 -1.66748,4.71575 -0.002,0.047 0.20482,0.047 0.45948,0 0.25467,-0.047 0.71897,-0.61906 1.03178,-1.27115 z m 8.0302,0.78873 c 0,-0.61443 -0.0654,-0.62304 -1.84088,-0.24227 -1.692,0.36288 -1.47947,0.77144 0.40129,0.77144 1.2632,0 1.43959,-0.0648 1.43959,-0.52917 z m 3.02107,0.10399 c 0.51115,-0.19615 0.55983,-1.16232 0.0586,-1.16232 -0.19797,0 -0.8975,0.0737 -1.55451,0.16373 -1.00228,0.13738 -1.17361,0.24385 -1.0644,0.66146 0.0986,0.37714 0.37385,0.49773 1.13599,0.49773 0.55321,0 1.19417,-0.0723 1.42435,-0.1606 z m -10.16482,-0.50086 c 0,-0.21828 -0.10632,-0.39688 -0.23627,-0.39688 -0.12995,0 -0.30481,0.1786 -0.38857,0.39688 -0.0928,0.24175 -5.3e-4,0.39687 0.23627,0.39687 0.21372,0 0.38857,-0.17859 0.38857,-0.39687 z m 2.29306,0.22048 c -0.097,-0.097 -0.25576,-0.097 -0.35278,0 -0.097,0.097 -0.0176,0.17639 0.17639,0.17639 0.19403,0 0.2734,-0.0794 0.17639,-0.17639 z m 10.89993,0.0117 c 0.73091,-0.14619 0.80497,-0.24308 0.65731,-0.8599 -0.0915,-0.38233 -0.17951,-0.71509 -0.19554,-0.73946 -0.0429,-0.0652 -2.6176,0.42833 -2.70845,0.51919 -0.0426,0.0426 -0.009,0.34008 0.0753,0.66115 0.16194,0.61923 0.67517,0.71827 2.17143,0.41902 z m -9.82506,-0.2597 c -0.0879,-0.0879 -0.31612,-0.0973 -0.50712,-0.0209 -0.21106,0.0845 -0.14837,0.14715 0.15985,0.15985 0.27892,0.0115 0.43519,-0.051 0.34727,-0.13897 z m 12.80409,-0.005 c 0.95499,-0.15795 0.95747,-0.16183 0.67997,-1.06598 -0.25608,-0.83439 -0.3439,-0.89436 -1.09076,-0.74485 -1.55281,0.31085 -1.7799,0.42685 -1.62515,0.8301 0.0833,0.21704 0.15142,0.56347 0.15142,0.76985 0,0.40839 0.41178,0.45447 1.88452,0.21088 z m -21.99688,-5.77317 0.78731,-5.01148 -0.70448,-5.65118 c -0.38746,-3.10815 -0.78502,-5.49642 -0.88347,-5.30727 -0.0985,0.18915 -0.39354,2.64137 -0.65573,5.44938 -0.46265,4.95467 -0.46201,5.27117 0.0217,10.71562 0.27415,3.08559 0.53195,5.43157 0.57289,5.21329 0.0409,-0.21828 0.42872,-2.65204 0.86174,-5.40836 z m 7.81582,4.18959 c 0.54107,-0.84583 0.91001,-1.72711 0.85842,-2.05052 -0.0678,-0.42503 -0.33672,-0.0881 -1.07305,1.34445 -0.54041,1.0514 -0.98258,1.97413 -0.98258,2.05053 0,0.38037 0.33324,0.006 1.19721,-1.34446 z m 4.73828,0.92768 c 0.47501,-0.44099 -0.0727,-0.5366 -1.21337,-0.21181 -1.70706,0.48607 -1.91049,0.84333 -0.35649,0.62604 0.7276,-0.10174 1.43404,-0.28814 1.56986,-0.41423 z m 13.07801,0.15121 c 0.0636,-0.0636 0.002,-0.50464 -0.13656,-0.98008 -0.22973,-0.78738 -0.33348,-0.8566 -1.16405,-0.77672 -1.19817,0.11523 -1.39983,0.35036 -1.17571,1.37078 0.18162,0.8269 0.21525,0.84473 1.27361,0.6755 0.59788,-0.0956 1.1391,-0.22588 1.20271,-0.28948 z m -17.37349,-5.58576 -0.21588,-1.02124 -1.07022,2.72258 c -0.70927,1.80434 -1.02291,2.9644 -0.92993,3.43958 0.12337,0.63053 0.27849,0.42533 1.2861,-1.70134 1.00587,-2.123 1.11944,-2.54307 0.92993,-3.43958 z m 19.97466,5.36584 c 0.0648,-0.0648 -0.0221,-0.5849 -0.19311,-1.15574 -0.30191,-1.00768 -0.33902,-1.03332 -1.27511,-0.88116 -1.0363,0.16844 -1.0599,0.21911 -0.72991,1.56694 0.20633,0.84273 0.26739,0.88199 1.1491,0.73891 0.51215,-0.0831 0.98421,-0.20414 1.04903,-0.26895 z m -20.15946,-0.16936 c 0.0899,-0.14552 0.10399,-0.26459 0.0312,-0.26459 -0.0728,0 -0.20587,0.11907 -0.29581,0.26459 -0.0899,0.14552 -0.10399,0.26458 -0.0312,0.26458 0.0728,0 0.20588,-0.11906 0.29581,-0.26458 z m 7.07761,-0.14763 c 1.0165,-0.18016 1.1283,-0.29471 0.7897,-0.80917 -0.28893,-0.43898 -2.70793,0.32064 -2.70793,0.85034 0,0.26276 0.16387,0.35856 0.46302,0.27069 0.25466,-0.0748 0.9095,-0.21515 1.45521,-0.31186 z m 15.39309,0.17818 c 0.28105,-0.45474 -0.54574,-2.2775 -1.06465,-2.34717 -1.01192,-0.13586 -1.29385,0.31545 -0.93833,1.50207 0.28167,0.94014 0.42217,1.07913 1.09083,1.07913 0.42213,0 0.8326,-0.10531 0.91215,-0.23403 z m -20.22174,-0.16285 c 0,-0.0728 -0.0595,-0.13229 -0.13229,-0.13229 -0.0728,0 -0.13229,0.0595 -0.13229,0.13229 0,0.0728 0.0595,0.1323 0.13229,0.1323 0.0728,0 0.13229,-0.0595 0.13229,-0.1323 z m 22.225,-0.16774 c 0,-0.16501 -0.13791,-0.76033 -0.30646,-1.32291 -0.26577,-0.88705 -0.41012,-1.02289 -1.08702,-1.02289 -0.69673,0 -0.76304,0.0698 -0.61747,0.64979 0.39901,1.58978 0.67235,1.99605 1.34294,1.99605 0.36741,0 0.66801,-0.13502 0.66801,-0.30004 z m 1.43497,-0.85883 c -0.35579,-1.63651 -0.57781,-1.98317 -1.17083,-1.8281 -0.30841,0.0806 -0.50114,0.29596 -0.43027,0.48066 0.0706,0.18401 0.27032,0.8083 0.4438,1.38731 0.25306,0.84464 0.41636,1.02634 0.82609,0.9192 0.42005,-0.10985 0.47883,-0.28006 0.33121,-0.95907 z m -22.18529,0.6223 c 0.39346,-0.1496 0.65735,-0.33002 0.58642,-0.40094 -0.0709,-0.0709 -0.53391,0.0468 -1.02887,0.26163 -1.01834,0.44197 -0.65472,0.55645 0.44245,0.13931 z m 23.66074,0.0545 c 0,-0.74085 -0.90163,-2.69296 -1.24381,-2.69296 -0.23939,0 -0.34164,0.15289 -0.25436,0.38032 0.0803,0.20918 0.27619,0.86403 0.43538,1.45521 0.17083,0.63443 0.44788,1.07488 0.67611,1.07488 0.21267,0 0.38668,-0.0979 0.38668,-0.21745 z m -26.51879,-0.98953 c -0.0887,-0.0887 -0.30387,0.11683 -0.47818,0.45672 -0.30298,0.59078 -0.29589,0.59787 0.16125,0.16125 0.263,-0.2512 0.40562,-0.52929 0.31693,-0.61797 z m 9.38702,0.77258 c 0.98589,-0.16296 1.18227,-0.44384 0.76745,-1.09768 -0.33861,-0.53372 -2.68568,0.15948 -2.68568,0.79321 0,0.51214 0.33762,0.56572 1.91823,0.30447 z m -2.4474,-1.18102 c 0,-0.4775 -0.5466,-0.46378 -1.69104,0.0425 -1.66894,0.73826 -1.53499,1.06089 0.23583,0.568 0.80037,-0.22277 1.45521,-0.49748 1.45521,-0.61046 z m -4.23333,0.68938 c 0,-0.0728 -0.0595,-0.13229 -0.13229,-0.13229 -0.0728,0 -0.1323,0.0595 -0.1323,0.13229 0,0.0728 0.0595,0.13229 0.1323,0.13229 0.0728,0 0.13229,-0.0595 0.13229,-0.13229 z m 10.21953,-0.13229 c 0.41148,0 0.47678,-0.73471 0.11596,-1.30488 -0.35262,-0.55723 -2.39799,0.0759 -2.39799,0.74224 0,0.69906 0.30194,0.8859 1.15571,0.71514 0.41938,-0.0839 0.92623,-0.1525 1.12632,-0.1525 z m -9.96681,-2.87995 c 0.012,-0.37032 -0.30082,-0.012 -1.70566,1.95391 -0.67788,0.94861 -0.62929,0.92118 0.46876,-0.26459 0.67378,-0.7276 1.23038,-1.4878 1.2369,-1.68932 z m 0.27644,2.74766 c 0,-0.0728 -0.0595,-0.13229 -0.13229,-0.13229 -0.0728,0 -0.13229,0.0595 -0.13229,0.13229 0,0.0728 0.0595,0.13229 0.13229,0.13229 0.0728,0 0.13229,-0.0595 0.13229,-0.13229 z m 12.88969,-0.51314 c 0.0316,-0.0234 -0.0395,-0.39383 -0.15789,-0.82308 -0.1907,-0.69133 -0.31767,-0.77181 -1.11197,-0.70484 -1.13896,0.096 -1.41115,0.37584 -1.19673,1.23017 0.15992,0.63717 0.2466,0.67155 1.29032,0.51172 0.61538,-0.0942 1.1447,-0.19053 1.17627,-0.21397 z m -14.06138,-2.04521 c 0.37671,-0.53397 0.64562,-1.22266 0.59758,-1.53043 -0.0673,-0.43146 -0.34481,-0.13004 -1.21182,1.31641 -1.7714,2.95525 -1.4088,3.08159 0.61424,0.21402 z m 0.52688,1.30158 0.77711,-0.8599 -0.8599,0.77711 c -0.80154,0.72437 -0.98151,0.94268 -0.77711,0.94268 0.0455,0 0.43249,-0.38695 0.8599,-0.85989 z m 2.93798,0.2988 c 0.70329,-0.30859 1.13896,-0.61315 0.96815,-0.67678 -0.1708,-0.0636 -0.88518,0.18332 -1.5875,0.54877 -1.56125,0.81241 -1.13918,0.89965 0.61935,0.12801 z m 3.7261,-2.6e-4 c 0.34692,-0.12779 0.59532,-0.44098 0.59532,-0.75059 0,-0.52663 -0.011,-0.52697 -1.25677,-0.0383 -1.42717,0.55986 -1.96727,1.50075 -0.68287,1.1896 0.41196,-0.0998 1.0169,-0.28013 1.34432,-0.40074 z m -11.20592,-2.27757 c 0.91882,-2.40772 0.92283,-2.43675 0.58382,-4.2245 l -0.34137,-1.80012 -0.88456,2.77813 c -0.83244,2.61439 -1.08789,4.85343 -0.63699,5.58301 0.23721,0.38381 0.24965,0.36108 1.2791,-2.33653 z m 20.49152,2.1728 c 0.15285,-0.15026 -0.24961,-1.69995 -0.47816,-1.84121 -0.11761,-0.0727 -0.59464,5.3e-4 -1.06006,0.16284 -0.68259,0.23795 -0.81707,0.40361 -0.69546,0.85673 0.0829,0.30895 0.15238,0.72381 0.15437,0.9219 0.003,0.27251 0.24511,0.31507 0.9958,0.17485 0.5457,-0.10194 1.03328,-0.22574 1.08351,-0.27511 z m -12.12987,-1.49259 c 0,-0.35842 -0.24085,-0.26573 -1.27442,0.49047 -1.56674,1.14629 -1.59474,1.26175 -0.11464,0.47263 0.76399,-0.40731 1.38906,-0.84071 1.38906,-0.9631 z m 6.30867,0.18356 c 0.16113,-0.81896 -0.34609,-0.99291 -1.44129,-0.49428 -0.56701,0.25815 -1.05596,0.4781 -1.08657,0.48877 -0.0306,0.0107 0.009,0.26662 0.088,0.56878 0.13444,0.51412 0.21445,0.52852 1.24627,0.22422 0.66774,-0.19693 1.13849,-0.50751 1.19357,-0.78749 z m 7.79498,1.03229 c 0.31824,-0.12212 0.33712,-0.32567 0.10431,-1.12448 -0.36524,-1.25321 -0.28083,-1.18677 -1.2401,-0.97608 -0.76837,0.16876 -0.81536,0.2424 -0.64927,1.01736 0.0985,0.45949 0.23161,0.92474 0.29585,1.03388 0.1378,0.23412 0.93852,0.26063 1.48921,0.0493 z m -19.14894,-1.96778 c 0.96026,-1.61635 1.07658,-1.97866 0.91313,-2.84427 l -0.18731,-0.99196 -1.01526,2.21133 c -0.86506,1.88416 -1.2834,3.47721 -0.91313,3.47721 0.0562,0 0.59734,-0.83354 1.20257,-1.85231 z m 4.23154,0.48416 c 0.33396,-0.24316 0.56438,-0.55987 0.51204,-0.7038 -0.0523,-0.14392 -0.69047,0.27736 -1.41808,0.9362 -1.2386,1.12153 -0.79841,1.00862 0.90604,-0.2324 z m 3.98875,-0.12234 c 0,-0.49451 -0.36772,-0.45471 -1.59804,0.17295 -0.57628,0.294 -1.04779,0.70412 -1.04779,0.91138 0,0.303 0.25921,0.26911 1.32292,-0.17294 0.7276,-0.30238 1.32291,-0.7125 1.32291,-0.91139 z m 13.16408,1.09944 c 0.20864,-0.16154 -0.71005,-2.13333 -1.01957,-2.18831 -0.80213,-0.14246 -1.01846,0.29439 -0.72273,1.45946 0.26027,1.02542 0.33827,1.10091 0.97895,0.94753 0.38288,-0.0917 0.72639,-0.19007 0.76335,-0.21868 z m -28.53539,-3.82678 0.78387,-3.55637 -0.57315,-3.78582 c -0.31524,-2.0822 -0.63942,-3.78581 -0.7204,-3.78581 -0.081,0 -0.42817,1.88082 -0.77151,4.17961 -0.56736,3.79856 -0.59558,4.41971 -0.30951,6.81302 0.36168,3.02602 0.60061,4.33522 0.72203,3.95633 0.0466,-0.14553 0.43754,-1.86496 0.86867,-3.82096 z m 30.09812,3.49023 c -0.0666,-0.10914 -0.25682,-0.70446 -0.42269,-1.32292 -0.173,-0.64502 -0.45981,-1.12448 -0.67266,-1.12448 -0.60434,0 -0.711,0.45279 -0.37266,1.58206 0.25708,0.85807 0.44154,1.06377 0.95391,1.06377 0.34935,0 0.5807,-0.0893 0.5141,-0.19843 z m -19.43431,-1.04589 c 0.55183,-0.53885 1.00334,-1.14875 1.00334,-1.35531 0,-0.49439 -0.51926,-0.0721 -1.61973,1.31741 -1.02403,1.29294 -0.68993,1.31348 0.61639,0.0379 z m 10.3299,0.53614 c 0.26029,-0.1532 0.24694,-0.92242 -0.0234,-1.34839 -0.17072,-0.269 -0.40952,-0.25497 -1.18657,0.0697 -0.9989,0.41737 -1.09326,0.57142 -0.80699,1.31743 0.12671,0.33021 0.36079,0.3904 0.99218,0.25511 0.4545,-0.0974 0.91565,-0.22962 1.02479,-0.29385 z m -5.95294,-1.47408 c -0.12643,-0.37928 -0.52391,-0.28639 -1.58769,0.37106 -1.54659,0.95585 -1.25874,1.46014 0.33753,0.59134 0.73135,-0.39805 1.29392,-0.83113 1.25016,-0.9624 z m -3.63821,-1.75719 c 0,-0.75605 0.0215,-0.77285 -1.33375,1.04356 -1.43847,1.92799 -1.32926,2.57539 0.15499,0.91876 0.71489,-0.79791 1.17876,-1.57015 1.17876,-1.96232 z m 6.65558,1.65957 c -0.0502,-0.27403 -0.12797,-0.53631 -0.1728,-0.58284 -0.19169,-0.19901 -2.24944,1.05315 -2.24944,1.3688 0,0.6264 0.29589,0.66525 1.4124,0.18547 0.81797,-0.35151 1.07766,-0.60132 1.00984,-0.97143 z m 5.08078,0.97126 c 0.61186,-0.23262 0.63843,-0.31503 0.37668,-1.1679 -0.26462,-0.8622 -0.32331,-0.89998 -0.97181,-0.6255 -1.03949,0.43995 -1.16963,0.62033 -0.98327,1.36286 0.18325,0.73013 0.53678,0.82657 1.5784,0.43054 z m -15.5646,-5.27781 c -0.37271,-2.10789 -0.44524,-2.095 -1.35188,0.24032 -0.89118,2.2955 -1.02758,3.08395 -0.72751,4.20544 0.14921,0.55768 0.30055,0.37909 1.20933,-1.42705 0.8531,-1.69549 1.00862,-2.23507 0.87006,-3.01871 z m 7.26783,3.14976 c 0,-0.12995 -0.12981,-0.31649 -0.28847,-0.41455 -0.33644,-0.20792 -2.40204,1.7128 -2.19765,2.04352 0.15783,0.25537 2.48612,-1.27019 2.48612,-1.62897 z m 11.01984,1.32001 c 0.0393,0 -0.49046,-1.90237 -0.56972,-2.04592 -0.0187,-0.0339 -0.39548,0.0749 -0.83732,0.24168 -0.77095,0.291 -0.79321,0.3431 -0.55223,1.2925 0.24286,0.95679 0.27844,0.98143 1.08362,0.7505 0.45789,-0.13132 0.85193,-0.23876 0.87565,-0.23876 z m -5.20306,-1.03233 c -0.01,-1.02654 -0.4259,-1.18882 -1.44043,-0.5618 -0.62652,0.3872 -0.91665,0.73575 -0.82066,0.98589 0.0817,0.21281 0.14847,0.48668 0.14847,0.60859 0,0.12191 0.47625,0.0346 1.05834,-0.19407 0.62453,-0.24532 1.05667,-0.58906 1.05428,-0.83861 z m -10.56441,-0.41184 c 0.9299,-1.23164 1.06353,-1.56629 0.90807,-2.2741 l -0.18228,-0.82994 -1.02245,1.67879 c -0.87642,1.43903 -1.33374,2.86942 -0.91741,2.86942 0.068,0 0.61438,-0.64988 1.21407,-1.44417 z m 7.65804,-0.18044 c 0,-0.25346 -0.0992,-0.52212 -0.22038,-0.59704 -0.38732,-0.23937 -2.16087,1.15475 -2.16087,1.69858 0,0.50264 0.0313,0.50101 1.19063,-0.0623 0.73397,-0.35659 1.19062,-0.7552 1.19062,-1.03928 z m -14.71719,-1.72241 0.85785,-2.87069 -0.53088,-3.04271 -0.53088,-3.04271 -0.45806,1.98438 c -1.09305,4.73526 -1.12937,5.09888 -0.76396,7.64819 0.19046,1.3288 0.39619,2.3661 0.45718,2.30511 0.061,-0.061 0.49693,-1.4027 0.96875,-2.98157 z m 24.33197,2.92985 c 0.34017,-0.13054 0.34905,-0.29306 0.0615,-1.12448 -0.33934,-0.98103 -0.80632,-1.27877 -1.40171,-0.8937 -0.24268,0.15696 -0.25621,0.45688 -0.0537,1.1903 0.26352,0.95442 0.57779,1.14106 1.39395,0.82788 z m -12.9899,-2.62711 c -0.0694,-0.36294 -0.15316,-0.65989 -0.18618,-0.65989 -0.033,0 -0.56197,0.59527 -1.17545,1.32282 -1.3893,1.64763 -1.18482,2.18696 0.35177,0.92784 0.91367,-0.74868 1.11132,-1.06002 1.00986,-1.59077 z m 14.64441,1.65521 c -0.0932,-0.32742 -0.23821,-0.90844 -0.32217,-1.29115 -0.1147,-0.52289 -0.27753,-0.66319 -0.65509,-0.56446 -0.57775,0.15109 -0.6175,0.45441 -0.21198,1.6177 0.19644,0.56351 0.46338,0.83323 0.82461,0.83323 0.42777,0 0.50038,-0.11856 0.36463,-0.59532 z m -6.6409,0.0188 c 0.58929,-0.2685 0.66035,-0.42496 0.51071,-1.12448 -0.22602,-1.05657 -0.17586,-1.03486 -1.13284,-0.49011 -0.51019,0.29042 -0.82855,0.68281 -0.82958,1.02249 -0.003,0.95002 0.35015,1.09401 1.45171,0.5921 z m -5.15755,-1.97223 c 0,-0.81565 -0.2098,-0.79016 -1.37041,0.16651 -0.68172,0.56193 -0.92251,0.94303 -0.82689,1.30871 0.12907,0.49355 0.17959,0.48634 1.16611,-0.16651 0.71592,-0.47377 1.03119,-0.87389 1.03119,-1.30871 z m -6.74877,-2.75415 c -0.0973,-0.57593 -0.26251,-1.04714 -0.36712,-1.04714 -0.10462,0 -0.58072,0.80721 -1.058,1.7938 -0.71604,1.48013 -0.83493,1.96895 -0.67989,2.79539 l 0.1879,1.00159 1.04701,-1.74825 c 0.91443,-1.52687 1.02461,-1.88085 0.8701,-2.79539 z m 8.72417,4.06323 c 0.93234,-0.44461 1.29316,-1.41822 0.66863,-1.8042 -0.46931,-0.29004 -1.85028,0.90909 -1.85028,1.60663 0,0.76539 -0.007,0.76426 1.18165,0.19757 z m -5.30522,-2.72671 -0.24206,-0.82861 -0.99219,1.33227 c -0.5457,0.73275 -0.99218,1.49411 -0.99218,1.69192 0,0.77885 0.41587,0.68565 1.41971,-0.31819 0.95617,-0.95617 1.0274,-1.12195 0.80672,-1.87739 z m 11.12269,1.75462 c -0.0891,-0.31152 -0.21975,-0.77383 -0.29041,-1.02735 -0.11805,-0.42357 -0.19166,-0.42825 -0.908,-0.0578 -0.66176,0.34221 -0.75357,0.51179 -0.60771,1.1224 0.25621,1.07251 0.30771,1.10799 1.1715,0.80687 0.64333,-0.22427 0.76541,-0.38665 0.63462,-0.8441 z m -18.39304,-5.97116 c -0.54802,-2.94479 -0.60929,-2.94457 -1.47646,0.005 -0.65805,2.23857 -0.7619,2.938 -0.58342,3.92907 0.48941,2.71757 0.47492,2.71593 1.46561,0.16659 0.90183,-2.32069 0.91223,-2.39248 0.59427,-4.10104 z m 19.69119,6.03497 c 0.58888,-0.26831 0.62359,-0.37287 0.37321,-1.12448 -0.38335,-1.15079 -0.59226,-1.3179 -1.18489,-0.94779 -0.45147,0.28195 -0.48092,0.44619 -0.24112,1.34463 0.15025,0.56291 0.30251,1.02346 0.33836,1.02346 0.0359,0 0.35735,-0.13312 0.71444,-0.29582 z m -9.68629,-1.34547 c 0.15607,-0.18869 0.2192,-0.67944 0.14029,-1.09056 l -0.14348,-0.74747 -1.02368,0.99961 c -0.95678,0.93426 -1.25159,1.63445 -0.85512,2.03092 0.17486,0.17486 1.3855,-0.59225 1.88199,-1.1925 z m 5.714,-0.19056 c -0.24687,-1.052 -0.45227,-1.12731 -1.31984,-0.48389 -0.70109,0.51995 -0.77297,0.68712 -0.56365,1.31079 0.23917,0.71259 0.24277,0.71348 1.14169,0.28482 0.77103,-0.36768 0.87858,-0.52886 0.7418,-1.11172 z m -2.78278,-0.83019 -0.26759,-0.76762 -0.90189,0.6879 c -0.90124,0.68741 -1.03934,1.01738 -0.74588,1.78214 0.13167,0.34311 0.3142,0.30189 1.16949,-0.26411 0.94347,-0.62437 0.99499,-0.7237 0.74587,-1.43831 z m -6.97456,0.55682 c 0.82869,-1.1289 0.93823,-1.44199 0.78684,-2.24896 -0.0967,-0.51562 -0.25387,-0.93748 -0.3492,-0.93748 -0.0953,0 -0.55776,0.64275 -1.02764,1.42833 -0.66566,1.1129 -0.81808,1.60957 -0.6902,2.24896 0.0903,0.45134 0.19863,0.82062 0.2408,0.82062 0.0422,0 0.50991,-0.59016 1.0394,-1.31147 z m 11.67385,-0.88473 c -0.22906,-1.1453 -0.45416,-1.28946 -1.16945,-0.74896 -0.52364,0.39569 -0.58916,0.61156 -0.43502,1.43324 l 0.18148,0.96738 0.79449,-0.41084 c 0.69928,-0.36161 0.7746,-0.51031 0.6285,-1.24082 z m -14.66707,-4.42734 -0.39688,-1.84846 -0.88591,2.2915 c -0.85762,2.21834 -0.87573,2.34303 -0.56726,3.90527 l 0.31865,1.61378 0.96414,-2.05682 0.96414,-2.05682 z m 6.68227,2.79211 c -0.27334,-1.27678 -0.36764,-1.27923 -1.3183,-0.0342 -0.74017,0.96937 -0.87192,1.32977 -0.73547,2.012 l 0.16622,0.8311 1.02928,-1.00506 c 0.88615,-0.86531 1.0055,-1.11614 0.85827,-1.80385 z m 5.42888,0.83686 c -0.0102,-0.31752 -0.0995,-0.77776 -0.19844,-1.02275 -0.15849,-0.39258 -0.2781,-0.36117 -1.00766,0.26458 -0.74969,0.64302 -0.8049,0.7922 -0.58498,1.58059 l 0.24283,0.87056 0.78342,-0.55785 c 0.47706,-0.33969 0.77615,-0.7836 0.76483,-1.13513 z m -3.05587,0.38383 c 0.38091,-0.42091 0.45052,-0.76149 0.30939,-1.5138 l -0.18211,-0.97071 -0.90766,0.87974 c -1.12556,1.09094 -1.18746,0.84844 -0.0997,-0.39049 0.77243,-0.87975 0.79458,-0.97002 0.5034,-2.0514 l -0.30459,-1.13116 -0.76086,0.91772 c -0.89054,1.07412 -0.91397,1.31448 -0.34781,3.56835 0.45964,1.82983 0.68214,1.91582 1.78991,0.69175 z m -6.64246,-1.17568 c 0.84037,-1.40108 0.9009,-1.6358 0.68229,-2.64584 -0.42813,-1.97807 -0.49349,-1.98108 -1.37963,-0.0637 -0.77569,1.67842 -0.82711,1.94841 -0.59078,3.10209 0.14237,0.69501 0.28295,1.23693 0.3124,1.20428 0.0294,-0.0327 0.46852,-0.75125 0.97572,-1.59685 z m 11.4855,-1.11811 -0.26043,-1.13806 -0.75407,0.55751 c -0.85853,0.63474 -0.85458,0.6199 -0.46371,1.74116 0.2872,0.82384 0.2983,0.82828 1.0145,0.4052 0.68841,-0.40665 0.71128,-0.48389 0.46371,-1.56581 z m -8.44101,0.30822 c 0.70555,-0.94677 0.74333,-1.11226 0.49836,-2.18281 -0.1458,-0.63711 -0.33518,-1.15838 -0.42087,-1.15838 -0.0857,0 -0.49259,0.5576 -0.90423,1.23911 -0.6386,1.05724 -0.72261,1.41143 -0.57239,2.41317 0.18956,1.2641 0.23237,1.25458 1.39913,-0.31109 z m 5.85773,-1.4547 -0.33003,-1.10155 -0.74349,0.8643 c -0.58535,0.68046 -0.71024,1.03314 -0.58714,1.65806 0.24592,1.24851 0.37381,1.29762 1.20767,0.46376 0.75601,-0.75601 0.77164,-0.82102 0.45299,-1.88457 z m -33.58113,-5.06149 c 0,-31.57361 0.0892,-47.625 0.26458,-47.625 0.17541,0 0.26459,16.05139 0.26459,47.625 0,31.57361 -0.0892,47.625 -0.26459,47.625 -0.1754,0 -0.26458,-16.05139 -0.26458,-47.625 z"
       id="path2398" />
  </g>
</svg>
