<?xml version="1.0" encoding="UTF-8" standalone="no"?>
<svg
   xmlns:dc="http://purl.org/dc/elements/1.1/"
   xmlns:cc="http://creativecommons.org/ns#"
   xmlns:rdf="http://www.w3.org/1999/02/22-rdf-syntax-ns#"
   xmlns:svg="http://www.w3.org/2000/svg"
   xmlns="http://www.w3.org/2000/svg"
   xmlns:sodipodi="http://sodipodi.sourceforge.net/DTD/sodipodi-0.dtd"
   xmlns:inkscape="http://www.inkscape.org/namespaces/inkscape"
   width="210mm"
   height="297mm"
   viewBox="0 0 210 297"
   version="1.1"
   id="svg8"
   inkscape:version="1.0.2 (e86c8708, 2021-01-15)"
   sodipodi:docname="8.svg">
  <defs
     id="defs2" />
  <sodipodi:namedview
     id="base"
     pagecolor="#ffffff"
     bordercolor="#666666"
     borderopacity="1.0"
     inkscape:pageopacity="0.0"
     inkscape:pageshadow="2"
     inkscape:zoom="0.62"
     inkscape:cx="400"
     inkscape:cy="680.13348"
     inkscape:document-units="mm"
     inkscape:current-layer="layer1"
     inkscape:document-rotation="0"
     showgrid="false"
     inkscape:window-width="1252"
     inkscape:window-height="938"
     inkscape:window-x="650"
     inkscape:window-y="25"
     inkscape:window-maximized="0" />
  <metadata
     id="metadata5">
    <rdf:RDF>
      <cc:Work
         rdf:about="">
        <dc:format>image/svg+xml</dc:format>
        <dc:type
           rdf:resource="http://purl.org/dc/dcmitype/StillImage" />
        <dc:title></dc:title>
      </cc:Work>
    </rdf:RDF>
  </metadata>
  <g
     inkscape:label="Layer 1"
     inkscape:groupmode="layer"
     id="layer1">
    <path
       style="fill:#000000;stroke-width:0.264583"
       d="m 111.23595,170.5812 c -0.87312,-0.17558 -2.24234,-0.53273 -3.0427,-0.79366 -1.76375,-0.57501 -5.29167,-2.26824 -5.29167,-2.53975 0,-0.10761 -0.27608,-0.26495 -0.61351,-0.34964 -1.33993,-0.33631 -5.895759,-4.89672 -7.987187,-7.99524 -4.654087,-6.89516 -5.86137,-15.53945 -3.266676,-23.3898 1.60228,-4.84776 5.81701,-10.11929 10.698803,-13.38141 6.95566,-4.64793 15.55109,-5.84308 23.3898,-3.25223 4.62415,1.52837 9.90685,5.67317 13.15414,10.32071 6.2664,8.96852 6.43421,21.20551 0.40764,29.72727 -2.59841,3.67424 -6.97124,7.42911 -10.77989,9.2565 -5.01256,2.40504 -11.78591,3.37916 -16.66875,2.39725 z m 11.58033,-1.83425 c 7.1503,-1.84205 12.9577,-6.58633 16.34404,-13.35202 0.59155,-1.18189 1.38635,-3.31191 1.76622,-4.73339 0.59392,-2.22245 0.69067,-3.1219 0.69067,-6.42095 0,-3.29905 -0.0967,-4.19849 -0.69067,-6.42095 -2.44035,-9.13184 -9.38836,-15.93262 -18.6378,-18.24285 -3.27476,-0.81793 -8.51206,-0.81793 -11.78682,0 -9.44737,2.35967 -16.410725,9.32303 -18.77039,18.77039 -0.817938,3.27476 -0.817938,8.51207 0,11.78683 3.484102,13.94926 17.23253,22.18155 31.08475,18.61294 z"
       id="path1147" />
  </g>
</svg>
